<?xml version="1.0" encoding="UTF-8"?>
<svg id="Layer_1" data-name="Layer 1" xmlns="http://www.w3.org/2000/svg" viewBox="0 0 1921.59 1173.51">
  <defs>
    <style>
      .cls-1 {
        stroke: #f4b400;
      }

      .cls-1, .cls-2, .cls-3, .cls-4, .cls-5, .cls-6, .cls-7 {
        fill: none;
        stroke-linecap: round;
        stroke-miterlimit: 10;
        stroke-width: 15px;
      }

      .cls-2 {
        stroke: #1e2226;
      }

      .cls-3 {
        stroke: #000;
      }

      .cls-4 {
        stroke: #1e1a10;
      }

      .cls-5 {
        stroke: #ddff7d;
      }

      .cls-6 {
        stroke: #351935;
      }

      .cls-7 {
        stroke: #3c1d3d;
      }
    </style>
  </defs>
  <path class="cls-5" d="M133.21,198.66c0,35.01,28.38,63.39,63.39,63.39"/>
  <path class="cls-5" d="M196.6,135.27c-35.01,0-63.39,28.38-63.39,63.39"/>
  <line class="cls-5" x1="195.28" y1="262.04" x2="330.51" y2="262.04"/>
  <line class="cls-5" x1="7.5" y1="894.41" x2="7.5" y2="769.15"/>
  <line class="cls-6" x1="1849.6" y1="796.8" x2="1849.6" y2="672.81"/>
  <line class="cls-6" x1="75.93" y1="1166.01" x2="75.93" y2="1102.52"/>
  <line class="cls-6" x1="1589.79" y1="509.99" x2="1589.79" y2="594.51"/>
  <line class="cls-6" x1="1909.37" y1="84.93" x2="1834.59" y2="84.93"/>
  <line class="cls-5" x1="223.6" y1="324.27" x2="308.13" y2="324.27"/>
  <line class="cls-3" x1="131.03" y1="11.34" x2="273.61" y2="11.34"/>
  <line class="cls-5" x1="1783.87" y1="735.4" x2="1783.87" y2="832.54"/>
  <path class="cls-5" d="M76.28,200.01c0,68.62,55.63,124.26,124.26,124.26"/>
  <path class="cls-5" d="M200.54,75.76c-68.63,0-124.26,55.63-124.26,124.26"/>
  <path class="cls-5" d="M324.8,200.01c0-68.62-55.63-124.26-124.26-124.26"/>
  <line class="cls-5" x1="1848.32" y1="325.77" x2="1914.09" y2="325.77"/>
  <path class="cls-3" d="M134.56,453.65c0,34.99,28.37,63.36,63.36,63.36"/>
  <path class="cls-3" d="M197.92,390.29c-34.99,0-63.36,28.37-63.36,63.36"/>
  <path class="cls-3" d="M261.28,453.65c0-34.99-28.37-63.36-63.36-63.36"/>
  <path class="cls-3" d="M7.61,8.33c0,33.27,26.97,60.24,60.24,60.24"/>
  <path class="cls-3" d="M360.7,75.92c0-35.67-28.91-64.58-64.58-64.58"/>
  <path class="cls-6" d="M1834.59,84.93c-62.86,0-113.81,50.95-113.81,113.81"/>
  <g>
    <path class="cls-7" d="M166.31,770.05c0,17.46,14.15,31.61,31.61,31.61"/>
    <path class="cls-7" d="M197.92,738.45c-17.46,0-31.61,14.15-31.61,31.61"/>
    <path class="cls-7" d="M197.92,801.66c17.46,0,31.61-14.15,31.61-31.61"/>
    <path class="cls-7" d="M229.53,770.05c0-17.46-14.15-31.61-31.61-31.61"/>
  </g>
  <path class="cls-5" d="M166.09,1086.72c0-17.46-14.15-31.61-31.61-31.61"/>
  <path class="cls-5" d="M134.48,1118.33c17.46,0,31.61-14.15,31.61-31.61"/>
  <path class="cls-5" d="M1910.74,1083.5c0-17.46-14.15-31.61-31.61-31.61"/>
  <path class="cls-5" d="M1879.14,1115.1c17.46,0,31.61-14.15,31.61-31.61"/>
  <path class="cls-5" d="M1849.6,903.23c0,34.91,28.3,63.21,63.21,63.21"/>
  <path class="cls-5" d="M1720.35,7.5c-34.91,0-63.21,28.3-63.21,63.21"/>
  <path class="cls-3" d="M71.04,388.65c0-34.72-28.14-62.86-62.86-62.86"/>
  <path class="cls-3" d="M8.18,451.38c34.72,0,62.86-28.14,62.86-62.86"/>
  <path class="cls-3" d="M8.18,532.38c28.16,0,54.44-8.09,76.63-22.07"/>
  <path class="cls-5" d="M1851.35,451.64c0-70.44-57.1-127.54-127.54-127.54"/>
  <path class="cls-5" d="M1723.81,579.17c70.44,0,127.54-57.1,127.54-127.54"/>
  <path class="cls-5" d="M67.72,769c0,70.44,57.1,127.54,127.54,127.54"/>
  <path class="cls-5" d="M195.26,641.47c-70.44,0-127.54,57.1-127.54,127.54"/>
  <path class="cls-5" d="M195.26,581.39c-103.7,0-187.76,84.06-187.76,187.76"/>
  <path class="cls-5" d="M1720.39,262.11c34.99,0,63.36-28.37,63.36-63.36"/>
  <path class="cls-5" d="M1720.53,262.11c-35.03,0-63.43-28.4-63.43-63.43V70.63"/>
  <path class="cls-5" d="M1783.79,452.34c0-34.99-28.37-63.36-63.36-63.36"/>
  <path class="cls-5" d="M1720.43,388.98c-34.99,0-63.36,28.37-63.36,63.36"/>
  <path class="cls-5" d="M1720.43,515.7c34.99,0,63.36-28.37,63.36-63.36"/>
  <path class="cls-5" d="M1657.07,579.21c0,34.99,28.37,63.36,63.36,63.36"/>
  <path class="cls-5" d="M1783.79,705.92c0-34.99-28.37-63.36-63.36-63.36"/>
  <path class="cls-5" d="M1720.43,515.85c-34.99,0-63.36,28.37-63.36,63.36"/>
  <path class="cls-2" d="M1911.14,263.55c-35.03,0-63.43-28.4-63.43-63.43v-.22"/>
  <path class="cls-4" d="M1849.6,673.18c0-35.03,28.4-63.43,63.43-63.43h.22"/>
  <path class="cls-6" d="M1657.07,705.58c0,35.03-28.4,63.43-63.43,63.43h-.22"/>
  <path class="cls-6" d="M1657.07,705.58c0-35.03-28.4-63.43-63.43-63.43h-.44"/>
  <path class="cls-1" d="M197.44,959.14c-67.11,0-121.52,54.4-121.52,121.51v.84"/>
  <path class="cls-6" d="M197.44,959.14c-67.11,0-121.52,54.4-121.52,121.51v.84"/>
  <path class="cls-6" d="M33.71,1011.09c-8.99,21.26-13.96,44.63-13.96,69.17v1.23"/>
  <path class="cls-6" d="M120.45,920.07c-38.86,18.71-69.87,51.15-86.74,91.03"/>
</svg>