<?xml version="1.0" encoding="UTF-8"?>
<svg id="Layer_1" data-name="Layer 1" xmlns="http://www.w3.org/2000/svg" viewBox="0 0 1827.58 1076.74">
  <defs>
    <style>
      .cls-1 {
        stroke: #281426;
      }

      .cls-1, .cls-2, .cls-3, .cls-4, .cls-5, .cls-6, .cls-7, .cls-8 {
        fill: none;
        stroke-linecap: round;
        stroke-miterlimit: 10;
        stroke-width: 15px;
      }

      .cls-2 {
        stroke: #f4b400;
      }

      .cls-3 {
        stroke: #1e2226;
      }

      .cls-4 {
        stroke: #000;
      }

      .cls-5 {
        stroke: #1e1a10;
      }

      .cls-6 {
        stroke: #ddff7d;
      }

      .cls-7 {
        stroke: #351935;
      }

      .cls-8 {
        stroke: #3c1d3d;
      }
    </style>
  </defs>
  <path class="cls-1" d="M122.79,182.05c0,32.11,26.03,58.13,58.14,58.13"/>
  <path class="cls-1" d="M180.93,123.92c-32.11,0-58.14,26.03-58.14,58.13"/>
  <line class="cls-1" x1="179.72" y1="240.18" x2="303.74" y2="240.18"/>
  <line class="cls-8" x1="7.5" y1="820.14" x2="7.5" y2="705.26"/>
  <line class="cls-7" x1="1760.93" y1="737.62" x2="1760.93" y2="623.91"/>
  <line class="cls-7" x1="70.26" y1="1069.24" x2="70.26" y2="1011.01"/>
  <line class="cls-7" x1="1522.66" y1="474.58" x2="1522.66" y2="552.1"/>
  <line class="cls-7" x1="1815.75" y1="84.75" x2="1747.17" y2="84.75"/>
  <line class="cls-6" x1="205.69" y1="297.25" x2="283.21" y2="297.25"/>
  <line class="cls-4" x1="120.79" y1="10.26" x2="251.56" y2="10.26"/>
  <line class="cls-6" x1="1700.65" y1="681.31" x2="1700.65" y2="770.4"/>
  <path class="cls-6" d="M70.58,183.29c0,62.94,51.02,113.96,113.96,113.96"/>
  <path class="cls-6" d="M184.54,69.34c-62.94,0-113.96,51.02-113.96,113.96"/>
  <path class="cls-6" d="M298.5,183.29c0-62.94-51.02-113.96-113.96-113.96"/>
  <line class="cls-6" x1="1759.76" y1="305.63" x2="1820.08" y2="305.63"/>
  <path class="cls-4" d="M182.14,357.8c-32.09,0-58.11,26.02-58.11,58.11"/>
  <path class="cls-4" d="M7.6,7.5c0,30.51,24.73,55.25,55.25,55.25"/>
  <path class="cls-4" d="M331.43,69.48c0-32.71-26.52-59.23-59.23-59.23"/>
  <path class="cls-7" d="M1747.17,84.75c-57.65,0-104.38,46.73-104.38,104.38"/>
  <g>
    <path class="cls-8" d="M153.15,706.09c0,16.01,12.98,28.99,28.99,28.99"/>
    <path class="cls-8" d="M182.14,677.11c-16.01,0-28.99,12.98-28.99,28.99"/>
    <path class="cls-8" d="M182.14,735.08c16.01,0,28.99-12.98,28.99-28.99"/>
    <path class="cls-8" d="M211.13,706.09c0-16.01-12.98-28.99-28.99-28.99"/>
  </g>
  <path class="cls-8" d="M152.95,996.52c0-16.01-12.98-28.99-28.99-28.99"/>
  <path class="cls-7" d="M123.96,1025.5c16.01,0,28.99-12.98,28.99-28.99"/>
  <path class="cls-7" d="M1817.01,1000.56c0-16.01-12.98-28.99-28.99-28.99"/>
  <path class="cls-7" d="M1788.02,1029.55c16.01,0,28.99-12.98,28.99-28.99"/>
  <path class="cls-6" d="M1760.93,835.23c0,32.02,25.96,57.97,57.97,57.97"/>
  <path class="cls-6" d="M1642.4,13.74c-32.02,0-57.97,25.96-57.97,57.97"/>
  <path class="cls-4" d="M65.78,356.3c0-31.84-25.81-57.65-57.65-57.65"/>
  <path class="cls-4" d="M8.13,413.83c31.84,0,57.65-25.81,57.65-57.65"/>
  <path class="cls-6" d="M8.13,488.12c25.83,0,49.93-7.42,70.28-20.24"/>
  <path class="cls-6" d="M1762.54,421.06c0-64.6-52.37-116.97-116.97-116.97"/>
  <path class="cls-6" d="M1645.57,538.03c64.6,0,116.97-52.37,116.97-116.97"/>
  <path class="cls-6" d="M62.73,705.13c0,64.6,52.37,116.97,116.97,116.97"/>
  <path class="cls-6" d="M179.7,588.16c-64.6,0-116.97,52.37-116.97,116.97"/>
  <path class="cls-8" d="M179.7,533.06c-95.11,0-172.2,77.1-172.2,172.2"/>
  <path class="cls-6" d="M1642.44,247.25c32.09,0,58.11-26.02,58.11-58.11"/>
  <path class="cls-6" d="M1642.57,247.25c-32.13,0-58.17-26.04-58.17-58.17v-117.44"/>
  <path class="cls-8" d="M1700.58,421.71c0-32.09-26.02-58.11-58.11-58.11"/>
  <path class="cls-8" d="M1642.47,363.6c-32.09,0-58.11,26.02-58.11,58.11"/>
  <path class="cls-8" d="M1642.47,479.81c32.09,0,58.11-26.02,58.11-58.11"/>
  <path class="cls-6" d="M1584.36,538.06c0,32.09,26.02,58.11,58.11,58.11"/>
  <path class="cls-6" d="M1700.58,654.28c0-32.09-26.02-58.11-58.11-58.11"/>
  <path class="cls-8" d="M1642.47,479.96c-32.09,0-58.11,26.02-58.11,58.11"/>
  <path class="cls-3" d="M1817.37,248.57c-32.13,0-58.17-26.04-58.17-58.17v-.2"/>
  <path class="cls-5" d="M1760.93,624.25c0-32.13,26.04-58.17,58.17-58.17h.2"/>
  <path class="cls-7" d="M1584.36,653.96c0,32.13-26.04,58.17-58.17,58.17h-.2"/>
  <path class="cls-7" d="M1584.36,653.96c0-32.13-26.04-58.17-58.17-58.17h-.4"/>
  <path class="cls-2" d="M181.7,879.51c-61.55,0-111.45,49.89-111.45,111.44v.77"/>
  <path class="cls-6" d="M181.7,879.51c-61.55,0-111.45,49.89-111.45,111.44v.77"/>
  <path class="cls-7" d="M31.54,927.15c-8.25,19.5-12.81,40.93-12.81,63.43v1.13"/>
  <path class="cls-7" d="M111.09,843.67c-35.64,17.16-64.08,46.91-79.55,83.48"/>
</svg>