<?xml version="1.0" encoding="UTF-8"?>
<svg xmlns="http://www.w3.org/2000/svg" xmlns:xlink="http://www.w3.org/1999/xlink" viewBox="0 0 1380.87 652.59">
  <defs>
    <style>
      .cls-1 {
        fill: #fcefb4;
      }

      .cls-1, .cls-2, .cls-3, .cls-4, .cls-5, .cls-6, .cls-7, .cls-8, .cls-9, .cls-10, .cls-11, .cls-12, .cls-13, .cls-14, .cls-15, .cls-16, .cls-17, .cls-18, .cls-19, .cls-20, .cls-21, .cls-22, .cls-23, .cls-24, .cls-25, .cls-26, .cls-27, .cls-28 {
        stroke-width: 0px;
      }

      .cls-2 {
        fill: #c4d6ff;
      }

      .cls-3 {
        fill: url(#linear-gradient);
      }

      .cls-4 {
        fill: url(#linear-gradient-6);
      }

      .cls-5 {
        fill: #dde7ff;
      }

      .cls-6 {
        fill: #441729;
      }

      .cls-7 {
        fill: #f1f2f2;
      }

      .cls-29 {
        isolation: isolate;
      }

      .cls-8 {
        fill: #6d2643;
      }

      .cls-9 {
        fill: url(#linear-gradient-5);
      }

      .cls-10 {
        fill: #2f6f53;
      }

      .cls-11 {
        fill: #2a7a7c;
      }

      .cls-12 {
        fill: #1c5253;
      }

      .cls-13 {
        fill: url(#linear-gradient-3);
        opacity: .3;
      }

      .cls-13, .cls-23 {
        mix-blend-mode: multiply;
      }

      .cls-14 {
        fill: #bf2980;
      }

      .cls-15 {
        fill: url(#linear-gradient-2);
      }

      .cls-16 {
        fill: url(#linear-gradient-7);
      }

      .cls-17 {
        fill: #abc4ff;
      }

      .cls-18 {
        fill: url(#linear-gradient-9);
      }

      .cls-19 {
        fill: #f9dc5c;
      }

      .cls-20 {
        fill: #a3236d;
      }

      .cls-21 {
        fill: url(#linear-gradient-8);
      }

      .cls-22 {
        fill: #ff36ab;
      }

      .cls-23 {
        fill: #f2c354;
        opacity: .5;
      }

      .cls-24 {
        fill: #5e213a;
      }

      .cls-25 {
        fill: #212121;
      }

      .cls-26 {
        fill: url(#linear-gradient-10);
      }

      .cls-27 {
        fill: url(#linear-gradient-4);
      }

      .cls-28 {
        fill: #b66b2c;
      }
    </style>
    <linearGradient id="linear-gradient" x1="503.02" y1="279.54" x2="517.82" y2="279.54" gradientTransform="translate(-248.18 927.74) rotate(-90)" gradientUnits="userSpaceOnUse">
      <stop offset="0" stop-color="#ffdde1"/>
      <stop offset=".3" stop-color="#ffd7e0"/>
      <stop offset=".69" stop-color="#ffc6df"/>
      <stop offset=".94" stop-color="#ffb8de"/>
    </linearGradient>
    <linearGradient id="linear-gradient-2" x1="871.04" y1="294.59" x2="860.87" y2="267.56" gradientTransform="translate(-192.4 -119.91) rotate(38.68)" gradientUnits="userSpaceOnUse">
      <stop offset=".16" stop-color="#231f20"/>
      <stop offset=".19" stop-color="#3a3738"/>
      <stop offset=".25" stop-color="#757373"/>
      <stop offset=".31" stop-color="#a6a5a5"/>
      <stop offset=".37" stop-color="#cdcccc"/>
      <stop offset=".42" stop-color="#e8e8e8"/>
      <stop offset=".46" stop-color="#f9f9f9"/>
      <stop offset=".5" stop-color="#fff"/>
    </linearGradient>
    <linearGradient id="linear-gradient-3" x1="521.62" y1="293.98" x2="521.62" y2="265.09" gradientTransform="translate(-239.44 945.93) rotate(-90)" gradientUnits="userSpaceOnUse">
      <stop offset=".06" stop-color="#231f20"/>
      <stop offset=".1" stop-color="#3a3738"/>
      <stop offset=".19" stop-color="#757373"/>
      <stop offset=".27" stop-color="#a6a5a5"/>
      <stop offset=".35" stop-color="#cdcccc"/>
      <stop offset=".43" stop-color="#e8e8e8"/>
      <stop offset=".49" stop-color="#f9f9f9"/>
      <stop offset=".54" stop-color="#fff"/>
    </linearGradient>
    <linearGradient id="linear-gradient-4" x1="1346.46" y1="132.86" x2="1355.98" y2="103.74" gradientUnits="userSpaceOnUse">
      <stop offset="0" stop-color="#f28f3b"/>
      <stop offset=".49" stop-color="#f7a74a"/>
      <stop offset="1" stop-color="#fec55e"/>
    </linearGradient>
    <linearGradient id="linear-gradient-5" x1="1322.02" y1="97.42" x2="1347.7" y2="203.92" gradientUnits="userSpaceOnUse">
      <stop offset=".18" stop-color="#b56a27"/>
      <stop offset=".54" stop-color="#cd782e"/>
      <stop offset="1" stop-color="#f28f3b"/>
    </linearGradient>
    <linearGradient id="linear-gradient-6" x1="1313.83" y1="199.42" x2="1347.3" y2="88.92" xlink:href="#linear-gradient-4"/>
    <linearGradient id="linear-gradient-7" x1="1060.75" y1="250.17" x2="1105.01" y2="250.17" gradientUnits="userSpaceOnUse">
      <stop offset="0" stop-color="#ff36ab"/>
      <stop offset=".14" stop-color="#f633a4"/>
      <stop offset=".37" stop-color="#dd2e94"/>
      <stop offset=".66" stop-color="#b62579"/>
      <stop offset="1" stop-color="#801955"/>
      <stop offset="1" stop-color="#801955"/>
    </linearGradient>
    <linearGradient id="linear-gradient-8" x1="1125.84" y1="204.31" x2="1063.86" y2="222.15" gradientUnits="userSpaceOnUse">
      <stop offset="0" stop-color="#801955"/>
      <stop offset="0" stop-color="#801955"/>
      <stop offset=".34" stop-color="#b62579"/>
      <stop offset=".63" stop-color="#dd2e94"/>
      <stop offset=".86" stop-color="#f633a4"/>
      <stop offset="1" stop-color="#ff36ab"/>
    </linearGradient>
    <linearGradient id="linear-gradient-9" x1="1074.64" y1="173.19" x2="1123.16" y2="186.03" gradientUnits="userSpaceOnUse">
      <stop offset="0" stop-color="#ff36ab"/>
      <stop offset=".37" stop-color="#ff53be"/>
      <stop offset=".76" stop-color="#ff6bce"/>
      <stop offset="1" stop-color="#ff74d4"/>
    </linearGradient>
    <linearGradient id="linear-gradient-10" x1="233.26" y1="396.88" x2="305.43" y2="351.84" gradientUnits="userSpaceOnUse">
      <stop offset="0" stop-color="#38a3a5"/>
      <stop offset=".02" stop-color="#39a4a4"/>
      <stop offset=".45" stop-color="#5fcb9e"/>
      <stop offset=".79" stop-color="#77e49a"/>
      <stop offset="1" stop-color="#80ed99"/>
    </linearGradient>
  </defs>
  <g class="cls-29">
    <g id="Layer_1" data-name="Layer 1">
      <g>
        <rect class="cls-19" x="155.4" y="365.11" width="28.89" height="326.17" transform="translate(688.33 725.72) rotate(128.68)"/>
        <rect class="cls-19" x="159.12" y="372.85" width="9.06" height="326.17" transform="translate(684.3 743.14) rotate(128.68)"/>
        <rect class="cls-1" x="175.42" y="355.5" width="4.25" height="326.17" transform="translate(-338.24 333.07) rotate(-51.32)"/>
        <rect class="cls-23" x="155.4" y="365.11" width="28.89" height="326.17" transform="translate(688.33 725.72) rotate(128.68)"/>
        <path class="cls-3" d="M16.91,409.92h28.89v.36c0,7.97-6.47,14.44-14.44,14.44h0c-7.97,0-14.44-6.47-14.44-14.44v-.36h0Z" transform="translate(376.72 653.66) rotate(128.68)"/>
        <path class="cls-7" d="M324.01,650.1l-17.83-31.25-18.05,22.55,34.4,10.56c1.11.34,2.06-.85,1.48-1.85Z"/>
        <path class="cls-15" d="M324.01,650.1l-17.83-31.25-18.05,22.55,34.4,10.56c1.11.34,2.06-.85,1.48-1.85Z"/>
        <path class="cls-25" d="M325.09,652.08l-4.8-8.42-4.87,6.08,9.27,2.85c.3.09.55-.23.4-.5Z"/>
        <rect class="cls-17" x="25.65" y="420.52" width="28.89" height="7.59" transform="translate(396.38 658.21) rotate(128.68)"/>
        <rect class="cls-13" x="25.65" y="420.52" width="28.89" height="7.59" transform="translate(396.38 658.21) rotate(128.68)"/>
      </g>
      <g>
        <path class="cls-27" d="M1344.84,96.85c.13.08.27.15.4.23.38.24.76.49,1.13.75,0,0,.01.01.02.02.36.26.72.53,1.06.82.15.13.3.27.45.4.2.18.41.35.6.54.26.24.51.5.75.76.09.1.19.19.29.29.36.39.7.79,1.04,1.21.27.33.53.68.78,1.04.06.09.12.17.18.26.19.27.38.55.56.84.1.16.2.32.3.48.17.28.33.56.5.85.09.15.17.3.26.45.23.42.45.84.66,1.28.04.09.08.18.13.27.18.37.35.75.52,1.13.06.13.12.27.17.41.18.43.36.87.53,1.32.02.05.04.1.06.15.19.5.37,1.02.54,1.54.05.15.09.29.14.44.13.4.25.81.37,1.23.05.16.09.32.14.48.16.56.31,1.12.45,1.7l-.07.44,14.44,3.13.07-.44c-.14-.58-.29-1.14-.45-1.7-.05-.16-.09-.32-.14-.48-.12-.41-.24-.82-.37-1.22-.05-.15-.09-.3-.14-.44-.17-.51-.34-1.01-.52-1.5,0-.01-.01-.03-.02-.04-.02-.05-.04-.1-.06-.15-.17-.45-.34-.88-.53-1.31-.06-.14-.12-.27-.17-.41-.17-.39-.34-.76-.52-1.13-.04-.09-.08-.18-.13-.27-.19-.39-.38-.77-.59-1.14-.03-.05-.05-.09-.08-.14-.08-.15-.17-.3-.26-.45-.16-.29-.33-.57-.5-.85-.1-.16-.2-.32-.3-.48-.09-.14-.17-.28-.27-.42-.1-.14-.2-.28-.3-.42-.06-.09-.12-.17-.18-.26-.24-.33-.48-.66-.73-.97-.02-.02-.04-.04-.05-.06-.34-.42-.68-.83-1.04-1.21,0,0,0-.01-.01-.02-.09-.1-.18-.18-.28-.28-.25-.26-.49-.52-.75-.76-.01-.01-.03-.03-.04-.04-.18-.17-.37-.33-.56-.5-.15-.13-.3-.27-.46-.4-.01,0-.02-.02-.03-.03-.34-.28-.69-.55-1.04-.8,0,0,0,0-.01,0,0,0,0,0,0,0-.35-.25-.72-.5-1.09-.73-.01,0-.03-.02-.04-.02-.13-.08-.27-.15-.4-.23-.23-.14-.46-.27-.7-.4-.03-.01-.06-.03-.08-.04-.18-.09-.36-.18-.54-.26-.2-.1-.39-.2-.59-.29-.07-.03-.15-.07-.22-.1-.36-.15-.72-.3-1.08-.43-.03,0-.05-.02-.08-.03-.06-.02-.12-.04-.17-.06-.38-.14-.77-.26-1.16-.38-.07-.02-.13-.04-.19-.06-.04-.01-.09-.02-.14-.03-.41-.11-.83-.22-1.25-.31l-14.44-3.13c.42.09.84.2,1.25.31.11.03.22.06.33.1.39.11.78.24,1.16.38.08.03.17.06.25.09.36.13.72.28,1.08.43.28.12.54.26.81.39.18.09.36.17.54.26.26.14.52.29.78.44Z"/>
        <polygon class="cls-28" points="1356.81 116.17 1338.79 123.88 1353.23 127.01 1371.25 119.3 1356.81 116.17"/>
        <path class="cls-9" d="M1344.75,178.46c-.19-.06-.38-.12-.57-.19-.07-.03-.15-.06-.22-.09-.13-.05-.27-.11-.4-.16-.08-.04-.16-.07-.24-.11-.12-.06-.25-.12-.37-.18-.08-.04-.16-.08-.24-.13-.13-.07-.25-.14-.38-.22-.08-.05-.15-.09-.22-.14-.15-.1-.3-.2-.45-.3-.05-.04-.1-.07-.16-.11-.19-.14-.38-.28-.56-.43-.08-.07-.16-.14-.24-.21-.18-.15-.36-.31-.53-.47-.08-.07-.15-.15-.23-.22-.19-.18-.37-.37-.55-.56-.06-.07-.13-.13-.19-.2-.26-.28-.51-.58-.75-.88-.11-.13-.21-.27-.32-.41-.06-.08-.12-.16-.18-.24-.14-.19-.28-.39-.42-.59-.03-.04-.06-.08-.09-.12-.02-.03-.05-.07-.07-.11-.16-.25-.33-.5-.48-.76-.06-.1-.12-.21-.18-.31-.12-.2-.23-.4-.35-.61-.08-.14-.15-.28-.23-.43-.08-.14-.15-.29-.23-.44-.08-.15-.15-.31-.23-.47-.07-.15-.14-.3-.22-.46-.07-.16-.14-.32-.22-.49-.07-.16-.14-.32-.21-.48-.07-.17-.14-.34-.2-.51-.07-.17-.13-.33-.2-.5-.07-.19-.14-.38-.21-.58-.05-.14-.1-.28-.15-.43-.07-.21-.14-.43-.21-.64-.04-.14-.09-.27-.13-.41-.08-.24-.15-.49-.22-.73-.04-.12-.07-.24-.11-.36-.11-.37-.21-.75-.31-1.13l-4.97-19.11c-.13-.5-.25-1-.36-1.49-.03-.13-.06-.27-.09-.4-.09-.4-.17-.8-.25-1.2-.02-.09-.04-.19-.05-.28-.09-.47-.17-.94-.24-1.41-.02-.11-.03-.23-.05-.34-.05-.37-.1-.74-.14-1.11-.01-.13-.03-.26-.04-.4-.02-.17-.03-.35-.05-.52-.02-.18-.03-.36-.05-.54-.01-.17-.02-.34-.03-.51-.01-.18-.02-.36-.03-.53,0-.17-.01-.33-.02-.5,0-.18,0-.35-.01-.53,0-.16,0-.33,0-.49,0-.16,0-.33,0-.49,0-.23.01-.46.03-.69,0-.13.01-.26.02-.39.02-.27.04-.53.06-.8,0-.08.01-.17.02-.25.05-.51.12-1.02.2-1.52.01-.08.02-.17.04-.25.07-.41.15-.82.24-1.22.06-.26.12-.53.19-.78.06-.21.12-.42.18-.63.05-.17.1-.34.16-.5.04-.13.09-.27.14-.4.05-.14.1-.27.15-.4.05-.14.11-.28.16-.42.05-.12.1-.23.15-.35.06-.14.13-.28.19-.42.05-.1.1-.21.15-.31.07-.14.14-.28.22-.41.05-.09.1-.19.16-.28.08-.14.16-.27.24-.41.05-.09.11-.17.16-.26.09-.13.18-.26.27-.39.06-.08.11-.17.17-.25.08-.11.17-.22.26-.33.08-.1.15-.2.23-.29.06-.08.13-.15.2-.22.12-.13.23-.27.36-.4.06-.07.13-.13.19-.19.15-.16.31-.31.47-.46.07-.06.13-.12.2-.18.29-.25.59-.5.91-.73.12-.09.24-.17.36-.25.09-.06.18-.13.28-.19.13-.09.27-.17.41-.25.09-.05.18-.11.27-.16.16-.09.32-.17.48-.25.08-.04.16-.09.24-.13.24-.12.49-.24.75-.35,3.63-1.55,6.67-2.07,9.11-1.54l-14.44-3.13c-2.44-.53-5.48-.02-9.11,1.54-.26.11-.51.22-.75.35-.08.04-.16.08-.24.13-.16.08-.32.17-.48.25-.09.05-.18.11-.27.16-.14.08-.28.16-.41.25-.09.06-.19.13-.28.19-.11.07-.22.15-.33.22-.01,0-.02.02-.03.02-.32.23-.62.47-.91.73-.03.03-.07.05-.1.08-.04.03-.07.07-.11.1-.16.15-.32.3-.47.45-.05.05-.09.09-.14.13-.02.02-.03.04-.05.06-.12.13-.24.26-.36.4-.06.06-.11.12-.17.19,0,.01-.02.02-.03.04-.08.1-.15.19-.23.29-.08.1-.15.19-.23.29-.01.01-.02.03-.03.04-.06.08-.11.16-.17.25-.08.11-.15.21-.23.32-.02.02-.03.05-.05.07-.06.09-.11.17-.16.26-.06.1-.12.19-.18.29-.02.04-.04.08-.06.12-.05.09-.1.19-.16.28-.05.08-.09.16-.14.25-.03.05-.05.11-.08.16-.05.1-.1.21-.15.31-.03.07-.07.14-.1.21-.03.07-.06.14-.09.21-.05.11-.1.23-.15.35-.03.06-.05.12-.08.19-.03.07-.06.15-.08.23-.05.13-.1.27-.15.4-.02.06-.05.12-.07.18-.02.07-.05.15-.07.22-.05.16-.11.33-.16.5-.02.07-.04.14-.06.21-.04.14-.08.28-.11.42-.06.23-.12.47-.17.71,0,.02,0,.05-.01.07-.09.4-.17.81-.24,1.22,0,.03-.01.07-.02.1,0,.05-.01.1-.02.15-.08.5-.15,1-.2,1.52,0,0,0,.02,0,.03,0,.08-.01.15-.02.23-.02.26-.04.53-.06.8,0,.13-.01.26-.02.39-.01.23-.02.46-.02.69,0,.06,0,.11,0,.17,0,.11,0,.22,0,.32,0,.16,0,.33,0,.49,0,.17,0,.35.01.52,0,.17,0,.33.02.5,0,.18.02.36.03.53,0,.17.02.34.03.51.01.18.03.36.05.55.02.17.03.34.05.52,0,.06,0,.11.02.17,0,.07.02.15.03.23.04.37.09.73.14,1.11.02.11.03.23.05.34.07.46.15.93.24,1.41.02.09.04.19.05.28.08.4.16.8.25,1.2.03.14.06.27.09.41.11.49.23.99.36,1.49l4.97,19.11c.1.38.2.76.31,1.13.04.12.07.24.11.36.07.24.14.49.22.73.04.14.09.28.14.42.07.21.14.43.21.63.05.15.1.29.15.43.05.14.1.28.15.42.02.05.04.11.06.16.06.17.13.33.2.5.07.17.14.34.2.51.07.16.14.32.21.48.07.16.14.33.22.49.07.16.14.31.22.46.07.16.15.31.22.46.07.15.15.29.23.44.05.1.1.2.15.3.02.04.05.09.07.13.11.21.23.41.35.61.06.1.12.21.18.31.16.26.32.51.48.76.02.03.04.07.06.1,0,0,0,0,0,.01.03.04.06.08.08.12.14.2.28.4.42.6.06.08.12.16.18.24.09.12.17.23.26.35.02.02.04.04.05.06.25.31.5.6.75.88.02.02.04.04.06.06.04.05.09.09.13.13.18.19.37.38.55.56.04.04.08.09.13.13.03.03.07.06.1.09.17.16.35.32.53.47.05.04.1.09.15.13.03.03.06.05.1.08.19.15.37.29.56.43,0,0,.02.01.03.02.04.03.08.05.13.08.15.11.3.21.45.3.03.02.05.03.08.05.05.03.1.06.15.09.13.08.25.15.38.22.04.02.08.05.12.07.04.02.08.04.13.06.12.06.25.12.37.18.05.02.1.05.15.07.03.01.06.02.09.04.13.06.27.11.4.16.06.02.11.05.17.07.02,0,.04.01.06.02.19.07.38.13.57.19.02,0,.04.01.07.02,0,0,0,0,0,0,.2.06.4.11.6.15l14.44,3.13c-.2-.04-.4-.09-.6-.15-.02,0-.05-.02-.07-.02Z"/>
        <path class="cls-28" d="M1380.87,162.34s0-.07,0-.11c0-.1,0-.19,0-.29,0-.42,0-.85-.01-1.28,0-.14,0-.29-.01-.43-.02-.5-.05-1.01-.09-1.52,0-.02,0-.03,0-.05-.03-.42-.07-.85-.12-1.27,0-.08-.02-.16-.03-.25-.04-.36-.09-.72-.14-1.08-.04-.27-.07-.53-.11-.8-.06-.38-.13-.77-.2-1.15-.05-.26-.09-.51-.14-.77-.08-.43-.18-.86-.28-1.29-.05-.22-.09-.44-.14-.66-.15-.65-.32-1.3-.5-1.96,0,0,0-.02,0-.03l-.21-.33-14.44-3.13.21.33c.18.67.35,1.33.51,1.99.05.22.09.43.14.65.1.44.2.87.28,1.3.05.26.09.51.14.76.07.39.14.77.2,1.16.04.27.08.54.11.8.05.36.1.72.14,1.08.06.51.11,1.02.15,1.52,0,.02,0,.03,0,.05.04.51.07,1.02.09,1.52,0,.14,0,.29.01.43.01.43.02.85.01,1.28,0,.1,0,.19,0,.29,0,.53-.02,1.06-.05,1.59,0,.1-.02.19-.02.28-.03.43-.06.87-.11,1.3-.01.11-.02.22-.04.32-.05.42-.1.83-.17,1.25-.01.09-.02.17-.04.26-.03.19-.07.37-.1.56-.07.4-.15.81-.23,1.2-.05.24-.11.49-.17.73-.07.28-.14.57-.22.85-.07.26-.15.52-.23.78-.07.24-.15.49-.23.73-.09.27-.19.54-.29.81-.08.22-.16.43-.24.65-.11.28-.23.56-.34.83-.08.2-.16.4-.25.59-.2.45-.41.89-.63,1.32-.12.24-.26.47-.39.71-.14.27-.29.53-.44.79-.11.19-.23.38-.35.58-.17.28-.34.56-.52.83-.12.18-.24.36-.36.53-.2.3-.4.59-.61.88-.13.17-.26.34-.39.51-.25.33-.5.65-.76.97-.18.22-.35.43-.54.64-.08.1-.17.2-.25.29-.32.36-.64.72-.98,1.07-.05.05-.1.1-.15.15-.31.32-.62.63-.94.93-.13.12-.26.24-.39.36-.24.22-.48.44-.72.65-.32.28-.64.55-.97.82-.15.12-.3.25-.45.37-.49.39-.98.77-1.5,1.14-.42.3-.85.6-1.29.9-.13.09-.26.17-.39.26-.33.22-.67.43-1.01.64-.14.08-.27.17-.41.25-.45.27-.91.54-1.38.8-.01,0-.03.02-.04.02-.48.27-.98.53-1.48.79-.15.08-.3.15-.45.23-.38.19-.76.38-1.14.56-.15.07-.31.15-.46.22-.53.24-1.06.48-1.6.72-6.97,2.98-13.41,3.83-19.33,2.55l14.44,3.13c5.92,1.28,12.36.44,19.33-2.55.54-.23,1.08-.47,1.6-.72.16-.07.31-.15.46-.22.39-.18.77-.37,1.15-.56.15-.07.3-.15.44-.22.5-.26,1-.52,1.48-.79.01,0,.02-.01.03-.02.47-.26.93-.53,1.39-.81.14-.08.27-.17.41-.25.34-.21.68-.42,1.01-.64.13-.09.26-.17.39-.26.44-.29.87-.59,1.28-.89,0,0,0,0,0,0,.51-.37,1.01-.75,1.5-1.14.15-.12.3-.25.45-.37.33-.27.65-.54.97-.82.06-.05.13-.11.19-.16.18-.16.35-.33.53-.49.13-.12.26-.24.39-.36.32-.31.63-.62.94-.94.05-.05.1-.1.15-.15,0,0,.01-.01.02-.02.33-.34.65-.69.96-1.05.09-.1.17-.2.25-.29.1-.12.21-.24.31-.36.08-.09.15-.19.22-.28.26-.32.51-.64.76-.97.08-.11.17-.21.25-.31.05-.07.09-.13.14-.2.21-.29.41-.58.61-.88.09-.13.19-.26.28-.4.03-.04.06-.09.08-.14.18-.27.35-.55.52-.83.1-.16.2-.32.3-.48.02-.03.04-.07.05-.1.15-.26.29-.53.44-.79.1-.18.21-.36.3-.55.03-.05.06-.11.08-.16.2-.39.39-.79.58-1.19.02-.04.04-.09.06-.13.09-.2.17-.39.25-.59.09-.22.19-.43.28-.65.02-.06.04-.12.07-.18.08-.21.16-.43.24-.65.07-.19.15-.39.21-.58.03-.07.05-.15.07-.23.08-.24.15-.48.23-.73.06-.18.12-.36.17-.54.02-.08.04-.16.06-.24.08-.28.15-.57.22-.85.04-.18.09-.35.13-.53.01-.07.02-.13.04-.2.09-.4.16-.8.23-1.2.03-.15.06-.29.08-.43,0-.04.01-.08.02-.12.01-.09.02-.17.04-.26.06-.41.12-.83.17-1.25.01-.11.03-.21.04-.32,0-.07.02-.14.02-.21.04-.36.06-.73.08-1.09,0-.09.02-.19.02-.28.03-.49.05-.98.06-1.48Z"/>
        <path class="cls-4" d="M1364.63,146.28l-.21-.33-18.02,7.71c1.47,5.66,1.58,10.1.32,13.32-1.25,3.22-3.99,5.73-8.23,7.54-4.57,1.95-8.57,1.54-12.01-1.24-3.44-2.79-5.99-7.37-7.64-13.73l-4.97-19.11c-1.64-6.33-1.85-11.87-.61-16.64,1.24-4.76,3.94-8.03,8.1-9.81,4.75-2.03,8.48-2.28,11.19-.76,2.71,1.53,4.79,5.07,6.24,10.65l18.02-7.71.07-.44c-2.52-10.31-7.24-16.96-14.17-19.97-6.93-3-15.45-2.34-25.57,1.98-9.45,4.04-16.17,10.74-20.13,20.09-3.96,9.35-4.5,19.56-1.63,30.64l4.93,18.99c2.89,11.12,8.21,18.84,15.96,23.15,7.76,4.32,16.56,4.37,26.42.15,9.68-4.14,16.46-10.01,20.35-17.62,3.88-7.61,4.41-16.57,1.57-26.87Z"/>
      </g>
      <g>
        <path class="cls-20" d="M1119.15,238.6c.05.03.11.06.17.1.41.25.79.51,1.17.78.12.09.24.18.36.27.17.13.34.25.5.38.13.1.25.2.37.3.16.13.31.26.47.4.13.11.25.23.38.34.11.1.21.2.31.3.13.13.26.26.38.39.1.1.19.2.29.31.18.2.36.4.53.61l-9.78-11.91c-.13-.16-.26-.31-.4-.47-.04-.05-.09-.1-.14-.15-.09-.1-.19-.2-.29-.31-.12-.13-.25-.26-.38-.39-.1-.1-.21-.2-.31-.3-.06-.06-.12-.12-.19-.18-.06-.06-.13-.11-.19-.16-.15-.13-.31-.27-.47-.4-.12-.1-.25-.2-.37-.3-.16-.13-.33-.26-.51-.39-.08-.06-.16-.12-.24-.19-.04-.03-.08-.05-.12-.08-.38-.27-.76-.53-1.17-.78-.05-.03-.11-.07-.17-.1-.36-.22-.74-.44-1.12-.64-.06-.03-.12-.07-.18-.1-.16-.09-.32-.17-.49-.26l9.78,11.91c.23.12.45.24.67.36.39.21.76.42,1.12.64Z"/>
        <path class="cls-16" d="M1103.63,257.54c1.63-4.16,1.82-7.57.57-10.23-.25-.54-.58-1.05-.98-1.54l-9.78-11.91c.4.48.72,1,.98,1.54,1.25,2.66,1.06,6.07-.57,10.23-.19.49-.39.96-.61,1.4-.07.15-.15.28-.22.42-.15.29-.3.59-.46.87-.01.02-.03.05-.04.07-.21.34-.42.67-.64.99-.05.07-.1.14-.15.21-.17.23-.35.44-.53.66-.1.12-.2.25-.31.37-.26.29-.54.57-.82.83-.05.04-.1.08-.15.13-.24.21-.49.42-.75.61-.08.06-.15.11-.23.17-.3.21-.61.42-.94.6-.03.02-.07.03-.1.05-.34.19-.69.36-1.05.52-.29.12-.59.22-.89.32-.22.07-.45.14-.68.21-.22.06-.44.12-.67.17-.16.03-.32.07-.48.1-.27.05-.54.09-.81.12-.16.02-.31.04-.48.06-.39.04-.79.06-1.2.07-.07,0-.15,0-.22,0-.43,0-.87,0-1.31-.03-.02,0-.05,0-.07,0-.46-.03-.94-.07-1.42-.13-.09-.01-.18-.02-.27-.03-.47-.06-.95-.14-1.44-.23-.09-.02-.18-.04-.27-.05-.51-.1-1.04-.21-1.57-.34l-14.31-3.51,9.78,11.91,14.31,3.51c.54.13,1.06.24,1.57.34.09.02.18.04.27.05.49.09.97.17,1.44.23.09.01.18.02.27.03.48.06.95.1,1.42.13.03,0,.05,0,.08,0,.45.02.88.03,1.31.03.07,0,.15,0,.22,0,.34,0,.68-.02,1.01-.05.07,0,.13-.02.19-.02.16-.02.32-.04.48-.06.27-.03.55-.07.81-.12.16-.03.32-.06.48-.1.11-.02.23-.04.34-.07.11-.03.21-.07.32-.1.23-.06.46-.13.68-.21.1-.03.2-.05.3-.09.2-.07.4-.15.6-.23.13-.05.25-.11.37-.17.23-.11.45-.23.68-.35.03-.02.07-.03.1-.05,0,0,.02,0,.03-.01.25-.14.49-.29.72-.45.06-.04.12-.09.19-.14.08-.05.15-.11.23-.17.09-.07.18-.13.27-.2.16-.13.32-.27.48-.41.05-.04.1-.08.15-.13.02-.02.04-.03.05-.05.24-.23.48-.46.7-.71.02-.02.04-.05.06-.07.11-.12.2-.25.3-.37.14-.16.28-.32.41-.5.04-.05.08-.11.12-.16.05-.07.1-.14.15-.21.22-.32.44-.64.64-.99.01-.02.03-.05.04-.07,0,0,.01-.02.02-.03.16-.27.3-.56.44-.84.07-.14.15-.28.22-.42.22-.45.42-.92.61-1.4Z"/>
        <path class="cls-21" d="M1115.16,217.35c1.63-4.16,1.53-7.5-.27-10.03-.11-.15-.23-.31-.35-.45l-9.78-11.91c.12.15.24.3.35.45,1.81,2.53,1.9,5.87.27,10.03-.17.44-.36.86-.56,1.26-.06.13-.14.25-.2.38-.15.29-.3.57-.47.84-.04.06-.08.13-.12.19-.21.33-.43.65-.66.96-.08.11-.17.2-.25.3-.18.23-.37.45-.57.66-.08.08-.16.16-.24.25-.22.22-.44.43-.68.63-.06.05-.12.11-.19.16-.29.24-.6.46-.91.67-.07.05-.15.09-.22.14-.26.16-.53.31-.8.46-.1.05-.19.1-.29.15-.36.17-.73.34-1.11.48-.18.07-.36.11-.55.17-.28.09-.56.19-.86.26-.42.11-.86.2-1.31.27-.02,0-.03,0-.05,0-.45.07-.9.12-1.38.16-.08,0-.17,0-.25.01-.4.02-.82.04-1.24.04-.09,0-.18,0-.27,0-.48,0-.97-.03-1.47-.06-.11,0-.22-.02-.33-.03-.46-.04-.94-.09-1.42-.15-.07,0-.13-.02-.2-.02-.53-.07-1.08-.17-1.64-.27-.13-.02-.26-.05-.4-.08-.57-.11-1.15-.24-1.75-.39l-8.77-2.15,9.78,11.91,8.77,2.15c.6.15,1.18.27,1.75.39.13.03.26.05.39.08.56.11,1.11.2,1.64.27.07,0,.13.02.2.02.49.06.96.12,1.43.15.11,0,.22.02.33.03.5.04.99.06,1.47.06.09,0,.18,0,.27,0,.42,0,.84-.01,1.24-.04.08,0,.17,0,.25-.01.04,0,.09,0,.14,0,.43-.03.84-.09,1.24-.15.02,0,.03,0,.05,0,.42-.07.83-.15,1.23-.25.03,0,.05-.02.08-.02.3-.07.58-.17.86-.26.15-.05.31-.08.45-.14.03-.01.06-.02.09-.03.32-.12.64-.25.95-.4.06-.03.11-.06.16-.08.1-.05.19-.1.29-.15.13-.07.27-.13.4-.21.14-.08.27-.17.41-.25.07-.05.15-.09.22-.14.04-.03.08-.05.12-.08.24-.16.47-.33.7-.51.03-.03.06-.05.09-.08.06-.05.12-.11.18-.16.13-.11.27-.22.39-.34.1-.09.19-.19.29-.29.08-.08.16-.16.24-.25.05-.05.1-.1.15-.15.15-.16.28-.33.42-.5.08-.1.17-.2.25-.3.02-.03.04-.05.06-.07.21-.28.41-.58.6-.88.04-.06.08-.13.12-.19.05-.08.1-.15.15-.23.11-.19.21-.4.32-.6.07-.13.14-.25.2-.38.2-.41.39-.82.56-1.26Z"/>
        <polygon class="cls-14" points="1069.86 164.53 1031.64 262.22 1041.41 274.13 1079.64 176.44 1069.86 164.53"/>
        <path class="cls-22" d="M1136.32,197.72c-4.9-6.13-13.31-10.66-25.22-13.58l-31.46-7.71-38.22,97.69,36.6,8.97c11.74,2.88,21.7,2.65,29.9-.68,8.2-3.34,14.16-9.77,17.88-19.29,2.01-5.15,2.42-10.02,1.2-14.63-1.21-4.61-4.42-8.24-9.65-10.9,5.2-.73,9.56-2.64,13.08-5.73,3.52-3.08,6.19-6.95,8.01-11.6,3.48-8.9,2.78-16.41-2.13-22.54ZM1103.63,257.54c-1.54,3.94-3.87,6.56-6.99,7.89-3.12,1.32-7.05,1.4-11.8.23l-14.31-3.51,9.58-24.49,14.38,3.52.73.18c4.74,1.31,7.73,3.29,8.98,5.95,1.25,2.66,1.06,6.07-.57,10.23ZM1115.16,217.35c-1.47,3.76-3.9,6.26-7.28,7.52-3.38,1.26-7.75,1.23-13.12-.09l-8.77-2.15,9.11-23.28,9.17,2.25c5.28,1.29,8.82,3.2,10.62,5.73,1.81,2.53,1.9,5.87.27,10.03Z"/>
        <path class="cls-18" d="M1114.32,185.01c.57.16,1.13.33,1.68.5.36.11.72.22,1.07.34.14.05.29.09.43.14.57.19,1.14.39,1.69.59.09.03.18.07.27.1.48.18.94.35,1.4.54.14.06.28.11.42.17.53.21,1.05.43,1.56.66.04.02.09.04.13.06.47.21.93.42,1.38.64.13.06.26.12.38.19.46.23.92.46,1.37.69.02.01.04.02.07.03.47.25.93.51,1.38.77.13.08.27.16.4.24.32.19.64.38.94.58.14.09.28.18.41.27.33.22.66.44.98.67.08.06.17.12.26.18.13.09.25.19.38.28.35.25.69.51,1.02.77.16.13.32.26.48.4.28.23.55.46.81.7.19.17.37.34.55.5.17.16.35.33.51.49.18.18.36.37.54.55.16.17.32.34.48.51.27.3.55.61.8.92l-9.78-11.91c-.2-.25-.41-.49-.63-.73-.06-.06-.12-.13-.18-.19-.16-.17-.32-.34-.48-.51-.18-.19-.35-.37-.54-.55-.17-.17-.34-.33-.52-.49-.11-.11-.22-.22-.34-.33-.07-.06-.14-.12-.21-.18-.26-.24-.54-.47-.81-.7-.16-.13-.32-.27-.48-.4-.33-.26-.67-.52-1.02-.77-.11-.08-.2-.16-.31-.24-.02-.02-.05-.03-.07-.05-.08-.06-.17-.12-.26-.18-.32-.22-.65-.45-.98-.67-.14-.09-.28-.18-.41-.27-.31-.2-.63-.39-.95-.58-.13-.08-.26-.16-.39-.24-.44-.26-.9-.51-1.36-.76,0,0-.01,0-.02,0-.02-.01-.04-.02-.06-.03-.45-.24-.9-.47-1.37-.7-.13-.06-.26-.12-.38-.19-.45-.22-.91-.43-1.38-.64-.04-.02-.09-.04-.13-.06-.51-.22-1.03-.44-1.56-.66-.14-.06-.28-.11-.42-.17-.46-.18-.93-.36-1.4-.54-.09-.03-.18-.07-.27-.1-.55-.2-1.12-.4-1.69-.59-.14-.05-.29-.09-.43-.14-.21-.07-.42-.14-.64-.21-.14-.04-.29-.08-.43-.13-.55-.17-1.11-.34-1.68-.5-.25-.07-.49-.14-.74-.21-.81-.22-1.64-.44-2.49-.65l-31.46-7.71,9.78,11.91,31.46,7.71c.85.21,1.67.43,2.49.65.25.07.5.14.74.21Z"/>
      </g>
      <g>
        <polygon class="cls-10" points="275.49 339.26 262.47 355.58 262.05 355.65 275.07 339.32 275.49 339.26"/>
        <polygon class="cls-11" points="297.93 369.63 284.91 385.96 262.47 355.58 275.49 339.26 297.93 369.63"/>
        <polygon class="cls-11" points="324.86 406.11 311.85 422.44 297.8 403.42 310.82 387.1 324.86 406.11"/>
        <polygon class="cls-12" points="349.62 402.25 336.6 418.58 311.85 422.44 324.86 406.11 349.62 402.25"/>
        <polygon class="cls-12" points="310.82 387.1 297.8 403.42 267.69 408.12 280.71 391.8 310.82 387.1"/>
        <polygon class="cls-11" points="249.45 308.78 236.43 325.1 245.22 432.84 258.24 416.51 249.45 308.78"/>
        <polygon class="cls-12" points="282.99 412.65 269.98 428.98 245.22 432.84 258.24 416.51 282.99 412.65"/>
        <path class="cls-26" d="M274.7,304.84l-12.66,1.98-12.59,1.96,8.79,107.74,24.75-3.86-2.28-20.85,30.11-4.7,14.04,19.02,24.75-3.86-74.92-97.42ZM278.67,372.63l-3.6-33.31.42-.07,22.44,30.37-19.26,3.01Z"/>
      </g>
      <g>
        <polygon class="cls-6" points="1215.01 306.17 1190.96 377.54 1240.74 434.05 1264.79 362.68 1215.01 306.17"/>
        <polygon class="cls-24" points="1338.62 347.83 1314.57 419.2 1240.74 434.05 1264.79 362.68 1338.62 347.83"/>
        <polygon class="cls-8" points="1264.79 362.68 1338.62 347.83 1288.84 291.32 1215.01 306.17 1264.79 362.68"/>
      </g>
      <g>
        <polygon class="cls-17" points="1176.53 7.54 1157.49 55.61 1189.6 96.13 1208.64 48.06 1176.53 7.54"/>
        <polygon class="cls-2" points="1259.78 40.52 1240.74 88.58 1189.6 96.13 1208.64 48.06 1259.78 40.52"/>
        <polygon class="cls-5" points="1208.64 48.06 1259.78 40.52 1227.67 0 1176.53 7.54 1208.64 48.06"/>
      </g>
      <g>
        <polygon class="cls-17" points="19.04 261.98 0 310.04 32.11 350.56 51.14 302.5 19.04 261.98"/>
        <polygon class="cls-2" points="102.29 294.95 83.25 343.02 32.11 350.56 51.14 302.5 102.29 294.95"/>
        <polygon class="cls-5" points="51.14 302.5 102.29 294.95 70.18 254.43 19.04 261.98 51.14 302.5"/>
      </g>
    </g>
  </g>
</svg>