<?xml version="1.0" encoding="UTF-8"?>
<svg xmlns="http://www.w3.org/2000/svg" xmlns:xlink="http://www.w3.org/1999/xlink" viewBox="0 0 1018.62 444.64">
  <defs>
    <style>
      .cls-1 {
        fill: #fcefb4;
      }

      .cls-1, .cls-2, .cls-3, .cls-4, .cls-5, .cls-6, .cls-7, .cls-8, .cls-9, .cls-10, .cls-11, .cls-12, .cls-13, .cls-14, .cls-15, .cls-16, .cls-17, .cls-18, .cls-19, .cls-20, .cls-21, .cls-22, .cls-23, .cls-24, .cls-25, .cls-26, .cls-27, .cls-28 {
        stroke-width: 0px;
      }

      .cls-2 {
        fill: #c4d6ff;
      }

      .cls-3 {
        fill: url(#linear-gradient);
      }

      .cls-4 {
        fill: url(#linear-gradient-6);
      }

      .cls-5 {
        fill: #dde7ff;
      }

      .cls-6 {
        fill: #441729;
      }

      .cls-7 {
        fill: #f1f2f2;
      }

      .cls-29 {
        isolation: isolate;
      }

      .cls-8 {
        fill: #6d2643;
      }

      .cls-9 {
        fill: url(#linear-gradient-5);
      }

      .cls-10 {
        fill: #2f6f53;
      }

      .cls-11 {
        fill: #2a7a7c;
      }

      .cls-12 {
        fill: #1c5253;
      }

      .cls-13 {
        fill: url(#linear-gradient-3);
        opacity: .3;
      }

      .cls-13, .cls-23 {
        mix-blend-mode: multiply;
      }

      .cls-14 {
        fill: #bf2980;
      }

      .cls-15 {
        fill: url(#linear-gradient-2);
      }

      .cls-16 {
        fill: url(#linear-gradient-7);
      }

      .cls-17 {
        fill: #abc4ff;
      }

      .cls-18 {
        fill: url(#linear-gradient-9);
      }

      .cls-19 {
        fill: #f9dc5c;
      }

      .cls-20 {
        fill: #a3236d;
      }

      .cls-21 {
        fill: url(#linear-gradient-8);
      }

      .cls-22 {
        fill: #ff36ab;
      }

      .cls-23 {
        fill: #f2c354;
        opacity: .5;
      }

      .cls-24 {
        fill: #5e213a;
      }

      .cls-25 {
        fill: #212121;
      }

      .cls-26 {
        fill: url(#linear-gradient-10);
      }

      .cls-27 {
        fill: url(#linear-gradient-4);
      }

      .cls-28 {
        fill: #b66b2c;
      }
    </style>
    <linearGradient id="linear-gradient" x1="474.02" y1="114.12" x2="481.96" y2="114.12" gradientTransform="translate(-107.2 826.91) rotate(-90)" gradientUnits="userSpaceOnUse">
      <stop offset="0" stop-color="#ffdde1"/>
      <stop offset=".3" stop-color="#ffd7e0"/>
      <stop offset=".69" stop-color="#ffc6df"/>
      <stop offset=".94" stop-color="#ffb8de"/>
    </linearGradient>
    <linearGradient id="linear-gradient-2" x1="671.51" y1="122.19" x2="666.06" y2="107.69" gradientTransform="translate(-360.02 22.03) rotate(28.27)" gradientUnits="userSpaceOnUse">
      <stop offset=".16" stop-color="#231f20"/>
      <stop offset=".19" stop-color="#3a3738"/>
      <stop offset=".25" stop-color="#757373"/>
      <stop offset=".31" stop-color="#a6a5a5"/>
      <stop offset=".37" stop-color="#cdcccc"/>
      <stop offset=".42" stop-color="#e8e8e8"/>
      <stop offset=".46" stop-color="#f9f9f9"/>
      <stop offset=".5" stop-color="#fff"/>
    </linearGradient>
    <linearGradient id="linear-gradient-3" x1="484" y1="121.87" x2="484" y2="106.36" gradientTransform="translate(-101.91 835.76) rotate(-90)" gradientUnits="userSpaceOnUse">
      <stop offset=".06" stop-color="#231f20"/>
      <stop offset=".1" stop-color="#3a3738"/>
      <stop offset=".19" stop-color="#757373"/>
      <stop offset=".27" stop-color="#a6a5a5"/>
      <stop offset=".35" stop-color="#cdcccc"/>
      <stop offset=".43" stop-color="#e8e8e8"/>
      <stop offset=".49" stop-color="#f9f9f9"/>
      <stop offset=".54" stop-color="#fff"/>
    </linearGradient>
    <linearGradient id="linear-gradient-4" x1="995.5" y1="89.3" x2="1001.89" y2="69.73" gradientUnits="userSpaceOnUse">
      <stop offset="0" stop-color="#f28f3b"/>
      <stop offset=".49" stop-color="#f7a74a"/>
      <stop offset="1" stop-color="#fec55e"/>
    </linearGradient>
    <linearGradient id="linear-gradient-5" x1="979.06" y1="65.48" x2="996.32" y2="137.07" gradientUnits="userSpaceOnUse">
      <stop offset=".18" stop-color="#b56a27"/>
      <stop offset=".54" stop-color="#cd782e"/>
      <stop offset="1" stop-color="#f28f3b"/>
    </linearGradient>
    <linearGradient id="linear-gradient-6" x1="973.56" y1="134.04" x2="996.05" y2="59.76" xlink:href="#linear-gradient-4"/>
    <linearGradient id="linear-gradient-7" x1="803.45" y1="168.15" x2="833.2" y2="168.15" gradientUnits="userSpaceOnUse">
      <stop offset="0" stop-color="#ff36ab"/>
      <stop offset=".14" stop-color="#f633a4"/>
      <stop offset=".37" stop-color="#dd2e94"/>
      <stop offset=".66" stop-color="#b62579"/>
      <stop offset="1" stop-color="#801955"/>
      <stop offset="1" stop-color="#801955"/>
    </linearGradient>
    <linearGradient id="linear-gradient-8" x1="847.2" y1="137.33" x2="805.54" y2="149.32" gradientUnits="userSpaceOnUse">
      <stop offset="0" stop-color="#801955"/>
      <stop offset="0" stop-color="#801955"/>
      <stop offset=".34" stop-color="#b62579"/>
      <stop offset=".63" stop-color="#dd2e94"/>
      <stop offset=".86" stop-color="#f633a4"/>
      <stop offset="1" stop-color="#ff36ab"/>
    </linearGradient>
    <linearGradient id="linear-gradient-9" x1="812.79" y1="116.41" x2="845.4" y2="125.04" gradientUnits="userSpaceOnUse">
      <stop offset="0" stop-color="#ff36ab"/>
      <stop offset=".37" stop-color="#ff53be"/>
      <stop offset=".76" stop-color="#ff6bce"/>
      <stop offset="1" stop-color="#ff74d4"/>
    </linearGradient>
    <linearGradient id="linear-gradient-10" x1="125.18" y1="322.97" x2="163.9" y2="298.8" gradientUnits="userSpaceOnUse">
      <stop offset="0" stop-color="#38a3a5"/>
      <stop offset=".02" stop-color="#39a4a4"/>
      <stop offset=".45" stop-color="#5fcb9e"/>
      <stop offset=".79" stop-color="#77e49a"/>
      <stop offset="1" stop-color="#80ed99"/>
    </linearGradient>
  </defs>
  <g class="cls-29">
    <g id="Layer_1" data-name="Layer 1">
      <g>
        <rect class="cls-19" x="83.02" y="306.49" width="15.5" height="175.04" transform="translate(480.78 500.67) rotate(118.27)"/>
        <rect class="cls-19" x="85.82" y="311.18" width="4.86" height="175.04" transform="translate(481.19 509.79) rotate(118.27)"/>
        <rect class="cls-1" x="92.76" y="300.67" width="2.28" height="175.04" transform="translate(-292.46 287.04) rotate(-61.73)"/>
        <rect class="cls-23" x="83.02" y="306.49" width="15.5" height="175.04" transform="translate(480.78 500.67) rotate(118.27)"/>
        <path class="cls-3" d="M-.83,344.95h15.5v.19c0,4.28-3.47,7.75-7.75,7.75h0c-4.28,0-7.75-3.47-7.75-7.75v-.19h0Z" transform="translate(317.5 508.07) rotate(118.27)"/>
        <path class="cls-7" d="M183.96,443.4l-12.44-14.77-7.34,13.65,19.18,2.24c.62.07,1-.65.6-1.12Z"/>
        <path class="cls-15" d="M183.96,443.4l-12.44-14.77-7.34,13.65,19.18,2.24c.62.07,1-.65.6-1.12Z"/>
        <path class="cls-25" d="M184.72,444.33l-3.35-3.98-1.98,3.68,5.17.6c.17.02.27-.17.16-.3Z"/>
        <rect class="cls-17" x="4.46" y="349.73" width="15.5" height="4.07" transform="translate(327.8 507.61) rotate(118.27)"/>
        <rect class="cls-13" x="4.46" y="349.73" width="15.5" height="4.07" transform="translate(327.8 507.61) rotate(118.27)"/>
      </g>
      <g>
        <path class="cls-27" d="M994.41,65.1c.09.05.18.1.27.16.26.16.51.33.76.5,0,0,0,0,.02.01.24.18.48.36.72.55.1.09.2.18.3.27.14.12.27.24.41.36.17.16.34.34.51.51.06.07.13.13.19.2.24.26.47.53.7.82.18.22.35.46.53.7.04.06.08.12.12.18.13.18.25.37.38.56.07.11.14.21.2.32.11.19.23.38.33.57.06.1.12.2.17.3.15.28.3.57.45.86.03.06.06.12.08.18.12.25.23.5.35.76.04.09.08.18.12.27.12.29.24.58.35.88.01.03.03.07.04.1.13.34.25.68.36,1.04.03.1.06.2.09.3.09.27.17.54.25.82.03.11.06.21.09.32.1.37.21.75.3,1.14l-.05.3,9.71,2.1.05-.3c-.1-.39-.2-.77-.3-1.14-.03-.11-.06-.22-.09-.32-.08-.28-.16-.55-.25-.82-.03-.1-.06-.2-.1-.3-.11-.34-.23-.68-.35-1.01,0,0,0-.02-.01-.03-.01-.03-.03-.07-.04-.1-.11-.3-.23-.59-.35-.88-.04-.09-.08-.18-.12-.27-.11-.26-.23-.51-.35-.76-.03-.06-.06-.12-.08-.18-.13-.26-.26-.52-.39-.77-.02-.03-.04-.06-.05-.09-.06-.1-.11-.2-.17-.3-.11-.19-.22-.38-.33-.57-.07-.11-.13-.21-.2-.32-.06-.09-.12-.19-.18-.28-.06-.1-.13-.19-.2-.28-.04-.06-.08-.12-.12-.18-.16-.22-.32-.44-.49-.66-.01-.01-.02-.03-.04-.04-.23-.28-.46-.55-.7-.81,0,0,0,0,0-.01-.06-.07-.12-.12-.19-.19-.17-.17-.33-.35-.51-.51,0,0-.02-.02-.03-.03-.12-.12-.25-.22-.38-.33-.1-.09-.2-.18-.31-.27,0,0-.01-.01-.02-.02-.23-.19-.46-.37-.7-.54,0,0,0,0,0,0,0,0,0,0,0,0-.24-.17-.48-.33-.73-.49,0,0-.02-.01-.03-.02-.09-.05-.18-.1-.27-.16-.16-.09-.31-.18-.47-.27-.02,0-.04-.02-.06-.03-.12-.06-.24-.12-.36-.18-.13-.06-.26-.13-.4-.19-.05-.02-.1-.04-.15-.07-.24-.1-.48-.2-.73-.29-.02,0-.03-.01-.05-.02-.04-.01-.08-.02-.12-.04-.26-.09-.51-.18-.78-.25-.04-.01-.09-.03-.13-.04-.03,0-.06-.01-.09-.02-.28-.08-.55-.15-.84-.21l-9.71-2.1c.28.06.56.13.84.21.07.02.15.04.22.06.26.08.52.16.78.25.06.02.11.04.17.06.24.09.49.19.73.29.19.08.36.17.55.26.12.06.24.11.36.18.18.09.35.2.52.3Z"/>
        <polygon class="cls-28" points="1002.45 78.08 990.34 83.27 1000.04 85.37 1012.16 80.19 1002.45 78.08"/>
        <path class="cls-9" d="M994.35,119.95c-.13-.04-.26-.08-.38-.13-.05-.02-.1-.04-.15-.06-.09-.03-.18-.07-.27-.11-.05-.02-.11-.05-.16-.07-.08-.04-.17-.08-.25-.12-.05-.03-.11-.06-.16-.09-.09-.05-.17-.1-.26-.15-.05-.03-.1-.06-.15-.09-.1-.06-.2-.13-.3-.2-.03-.02-.07-.05-.1-.07-.13-.09-.25-.19-.38-.29-.06-.04-.11-.09-.16-.14-.12-.1-.24-.21-.36-.31-.05-.05-.1-.1-.15-.15-.13-.12-.25-.25-.37-.38-.04-.04-.09-.09-.13-.13-.17-.19-.34-.39-.51-.59-.07-.09-.14-.18-.21-.28-.04-.05-.08-.11-.12-.16-.1-.13-.19-.26-.28-.4-.02-.03-.04-.05-.06-.08-.02-.02-.03-.05-.05-.07-.11-.17-.22-.34-.32-.51-.04-.07-.08-.14-.12-.21-.08-.13-.16-.27-.23-.41-.05-.09-.1-.19-.15-.29-.05-.1-.1-.19-.15-.29-.05-.1-.1-.21-.15-.31-.05-.1-.1-.2-.15-.31-.05-.11-.1-.22-.14-.33-.05-.11-.09-.21-.14-.32-.05-.11-.09-.23-.14-.34-.04-.11-.09-.22-.13-.34-.05-.13-.1-.26-.14-.39-.03-.1-.07-.19-.1-.29-.05-.14-.1-.29-.14-.43-.03-.09-.06-.18-.09-.28-.05-.16-.1-.33-.15-.49-.02-.08-.05-.16-.07-.24-.07-.25-.14-.5-.21-.76l-3.34-12.85c-.09-.34-.17-.67-.24-1-.02-.09-.04-.18-.06-.27-.06-.27-.12-.54-.17-.81-.01-.06-.03-.13-.04-.19-.06-.32-.11-.63-.16-.95-.01-.08-.02-.15-.03-.23-.04-.25-.07-.5-.1-.74-.01-.09-.02-.18-.03-.27-.01-.12-.02-.23-.03-.35-.01-.12-.02-.24-.03-.37,0-.11-.01-.23-.02-.34,0-.12-.01-.24-.02-.36,0-.11,0-.22-.01-.34,0-.12,0-.24,0-.35,0-.11,0-.22,0-.33,0-.11,0-.22,0-.33,0-.16,0-.31.02-.47,0-.09,0-.17.01-.26.01-.18.03-.36.04-.54,0-.06,0-.11.01-.17.03-.35.08-.69.13-1.02,0-.06.02-.11.03-.17.05-.28.1-.55.16-.82.04-.18.08-.35.13-.53.04-.14.08-.28.12-.42.03-.11.07-.23.11-.34.03-.09.06-.18.09-.27.03-.09.07-.18.1-.27.04-.09.07-.19.11-.28.03-.08.07-.16.1-.23.04-.09.08-.19.13-.28.03-.07.07-.14.1-.21.05-.09.1-.19.15-.28.03-.06.07-.13.1-.19.05-.09.11-.18.16-.27.04-.06.07-.12.11-.17.06-.09.12-.18.18-.27.04-.06.08-.11.12-.17.06-.08.11-.15.17-.22.05-.07.1-.13.16-.2.04-.05.09-.1.13-.15.08-.09.16-.18.24-.27.04-.04.08-.09.13-.13.1-.1.21-.21.32-.31.04-.04.09-.08.14-.12.2-.17.4-.34.61-.49.08-.06.16-.11.24-.17.06-.04.12-.09.19-.13.09-.06.18-.11.28-.17.06-.04.12-.07.18-.11.11-.06.21-.11.32-.17.05-.03.11-.06.16-.08.16-.08.33-.16.5-.23,2.44-1.04,4.48-1.39,6.12-1.03l-9.71-2.1c-1.64-.36-3.68-.01-6.12,1.03-.17.07-.34.15-.5.23-.05.03-.11.06-.16.08-.11.06-.22.11-.32.17-.06.04-.12.07-.18.11-.09.06-.19.11-.28.17-.06.04-.12.08-.19.13-.07.05-.15.1-.22.15,0,0-.01.01-.02.02-.21.15-.41.32-.61.49-.02.02-.04.03-.06.05-.02.02-.05.05-.07.07-.11.1-.21.2-.32.31-.03.03-.06.06-.09.09-.01.01-.02.03-.03.04-.08.09-.16.18-.24.27-.04.04-.08.08-.11.13,0,0-.01.02-.02.02-.05.06-.1.13-.15.2-.05.07-.1.13-.15.19,0,0-.01.02-.02.03-.04.05-.08.11-.12.17-.05.07-.1.14-.15.22-.01.02-.02.03-.03.05-.04.06-.07.12-.11.17-.04.07-.08.13-.12.2-.01.03-.03.05-.04.08-.04.06-.07.13-.1.19-.03.06-.06.11-.09.17-.02.04-.04.07-.05.11-.03.07-.07.14-.1.21-.02.05-.05.09-.07.14-.02.05-.04.09-.06.14-.03.08-.07.15-.1.23-.02.04-.04.08-.05.13-.02.05-.04.1-.06.15-.03.09-.07.18-.1.27-.01.04-.03.08-.05.12-.02.05-.03.1-.05.15-.04.11-.07.22-.1.34-.01.05-.03.09-.04.14-.03.09-.05.19-.08.28-.04.16-.08.32-.12.48,0,.02,0,.03,0,.05-.06.27-.11.54-.16.82,0,.02,0,.05-.01.07,0,.03,0,.07-.01.1-.05.34-.1.68-.13,1.02,0,0,0,.01,0,.02,0,.05,0,.1-.01.15-.02.18-.03.36-.04.53,0,.09,0,.18-.01.26,0,.15-.01.31-.02.46,0,.04,0,.07,0,.11,0,.07,0,.15,0,.22,0,.11,0,.22,0,.33,0,.12,0,.23,0,.35,0,.11,0,.22.01.34,0,.12.01.24.02.36,0,.11.01.23.02.34,0,.12.02.24.03.37.01.12.02.23.03.35,0,.04,0,.08.01.12,0,.05.01.1.02.15.03.25.06.49.1.74.01.08.02.15.03.23.05.31.1.63.16.95.01.06.02.13.04.19.05.27.11.54.17.81.02.09.04.18.06.27.08.33.15.66.24,1l3.34,12.85c.07.26.14.51.21.76.02.08.05.16.07.24.05.16.1.33.15.49.03.1.06.19.09.28.05.14.09.29.14.43.03.1.07.19.1.29.03.09.07.19.1.28.01.04.03.07.04.11.04.11.09.22.13.34.05.11.09.23.14.34.05.11.09.22.14.32.05.11.1.22.14.33.05.1.1.21.14.31.05.1.1.21.15.31.05.1.1.2.15.3.03.07.07.13.1.2.02.03.03.06.05.09.08.14.15.28.23.41.04.07.08.14.12.21.11.17.21.34.32.51.01.02.03.05.04.07,0,0,0,0,0,0,.02.03.04.05.06.08.09.14.19.27.28.4.04.06.08.11.12.16.06.08.12.16.18.23.01.01.02.03.04.04.16.21.33.4.51.59.01.01.02.03.04.04.03.03.06.06.09.09.12.13.25.26.37.38.03.03.06.06.08.09.02.02.05.04.07.06.12.11.24.21.36.32.03.03.07.06.1.09.02.02.04.04.06.05.13.1.25.2.38.29,0,0,.01,0,.02.01.03.02.06.04.08.06.1.07.2.14.31.2.02.01.03.02.05.03.03.02.07.04.1.06.08.05.17.1.26.15.03.01.05.03.08.04.03.01.06.03.08.04.08.04.17.08.25.12.03.02.07.03.1.05.02,0,.04.02.06.03.09.04.18.07.27.11.04.01.07.03.11.05.01,0,.03,0,.04.01.13.05.26.09.38.12.01,0,.03.01.04.01,0,0,0,0,0,0,.13.04.27.07.4.1l9.71,2.1c-.14-.03-.27-.06-.4-.1-.02,0-.03-.01-.05-.02Z"/>
        <path class="cls-28" d="M1018.62,109.12s0-.05,0-.07c0-.06,0-.13,0-.2,0-.28,0-.57,0-.86,0-.1,0-.19,0-.29-.01-.34-.03-.68-.06-1.02,0-.01,0-.02,0-.03-.02-.28-.05-.57-.08-.86,0-.05-.02-.11-.02-.16-.03-.24-.06-.48-.1-.73-.02-.18-.05-.36-.08-.54-.04-.26-.09-.52-.13-.77-.03-.17-.06-.34-.09-.52-.06-.29-.12-.58-.19-.87-.03-.15-.06-.29-.1-.44-.1-.44-.22-.87-.34-1.32,0,0,0-.01,0-.02l-.14-.22-9.71-2.1.14.22c.12.45.24.89.34,1.33.03.15.06.29.1.44.07.29.13.59.19.88.03.17.06.34.09.51.05.26.09.52.14.78.03.18.05.36.08.54.03.24.07.49.1.73.04.34.07.68.1,1.02,0,.01,0,.02,0,.03.03.34.04.68.06,1.02,0,.1,0,.19,0,.29,0,.29.01.57,0,.86,0,.06,0,.13,0,.2,0,.36-.02.71-.04,1.07,0,.06-.01.13-.01.19-.02.29-.04.58-.07.87,0,.07-.02.14-.02.22-.03.28-.07.56-.11.84,0,.06-.02.12-.03.17-.02.13-.05.25-.07.37-.05.27-.1.54-.16.81-.04.16-.08.33-.12.49-.05.19-.09.38-.15.57-.05.18-.1.35-.15.52-.05.16-.1.33-.15.49-.06.18-.13.36-.19.54-.05.15-.1.29-.16.44-.07.19-.15.37-.23.56-.06.13-.11.27-.17.4-.13.3-.28.6-.42.89-.08.16-.17.32-.26.48-.1.18-.19.36-.29.53-.08.13-.16.26-.24.39-.11.19-.23.37-.35.56-.08.12-.16.24-.24.36-.14.2-.27.4-.41.59-.08.12-.17.23-.26.34-.17.22-.34.44-.51.65-.12.14-.24.29-.36.43-.06.07-.11.13-.17.2-.21.24-.43.48-.66.72-.03.03-.07.07-.1.1-.21.21-.42.42-.63.63-.09.08-.17.16-.26.24-.16.15-.32.29-.48.44-.21.19-.43.37-.65.55-.1.08-.2.17-.3.25-.33.26-.66.52-1.01.77-.28.2-.57.41-.87.6-.09.06-.17.11-.26.17-.22.15-.45.29-.68.43-.09.06-.18.11-.28.17-.3.18-.61.36-.93.54,0,0-.02.01-.03.02-.32.18-.66.36-.99.53-.1.05-.2.1-.3.15-.25.13-.51.25-.77.38-.1.05-.21.1-.31.15-.35.16-.71.33-1.08.48-4.69,2-9.02,2.57-12.99,1.71l9.71,2.1c3.98.86,8.31.29,12.99-1.71.37-.16.72-.32,1.08-.48.1-.05.21-.1.31-.15.26-.12.52-.25.77-.38.1-.05.2-.1.3-.15.34-.17.67-.35.99-.53,0,0,.01,0,.02-.01.32-.18.63-.36.93-.54.09-.06.18-.11.28-.17.23-.14.46-.29.68-.43.09-.06.18-.11.26-.17.29-.2.58-.39.86-.6,0,0,0,0,0,0,.34-.25.68-.51,1.01-.77.1-.08.2-.17.3-.25.22-.18.44-.36.65-.55.04-.04.09-.07.13-.11.12-.11.24-.22.36-.33.09-.08.17-.16.26-.24.22-.21.43-.42.63-.63.03-.03.07-.07.1-.1,0,0,0,0,.01-.01.22-.23.43-.47.64-.7.06-.07.11-.13.17-.2.07-.08.14-.16.21-.24.05-.06.1-.13.15-.19.17-.21.35-.43.51-.65.05-.07.11-.14.17-.21.03-.04.06-.09.09-.13.14-.19.28-.39.41-.59.06-.09.13-.18.19-.27.02-.03.04-.06.06-.09.12-.18.23-.37.35-.56.07-.11.14-.21.2-.32.01-.02.02-.04.04-.07.1-.18.2-.35.29-.53.07-.12.14-.24.2-.37.02-.04.04-.07.06-.11.13-.26.26-.53.39-.8.01-.03.02-.06.04-.09.06-.13.11-.26.17-.4.06-.15.13-.29.19-.44.02-.04.03-.08.05-.12.06-.14.11-.29.16-.44.05-.13.1-.26.14-.39.02-.05.03-.1.05-.15.05-.16.1-.33.15-.49.04-.12.08-.24.11-.36.01-.05.03-.11.04-.16.05-.19.1-.38.15-.57.03-.12.06-.24.09-.36,0-.04.02-.09.03-.13.06-.27.11-.54.16-.81.02-.1.04-.19.06-.29,0-.03,0-.06.01-.08,0-.06.02-.12.03-.17.04-.28.08-.56.11-.84,0-.07.02-.14.02-.22,0-.05.01-.09.02-.14.02-.24.04-.49.06-.73,0-.06.01-.13.01-.19.02-.33.03-.66.04-.99Z"/>
        <path class="cls-4" d="M1007.71,98.32l-.14-.22-12.11,5.18c.99,3.8,1.06,6.79.22,8.95-.84,2.16-2.68,3.85-5.53,5.07-3.07,1.31-5.76,1.03-8.07-.84-2.31-1.87-4.03-4.95-5.14-9.23l-3.34-12.85c-1.11-4.26-1.24-7.98-.41-11.18.83-3.2,2.65-5.4,5.44-6.6,3.19-1.37,5.7-1.53,7.52-.51,1.82,1.03,3.22,3.41,4.19,7.16l12.11-5.18.05-.3c-1.69-6.93-4.87-11.4-9.52-13.42-4.66-2.02-10.38-1.58-17.18,1.33-6.35,2.72-10.87,7.22-13.53,13.51-2.66,6.29-3.03,13.15-1.09,20.59l3.32,12.76c1.94,7.47,5.52,12.66,10.73,15.56,5.21,2.9,11.13,2.94,17.76.1,6.5-2.78,11.06-6.73,13.68-11.84,2.61-5.11,2.96-11.14,1.05-18.06Z"/>
      </g>
      <g>
        <path class="cls-20" d="M842.71,160.37s.08.04.11.07c.27.17.53.34.78.52.08.06.16.12.24.18.12.09.23.17.34.26.09.07.17.14.25.2.11.09.21.18.31.27.09.08.17.15.25.23.07.07.14.13.21.2.09.09.17.17.26.26.07.07.13.14.19.21.12.14.24.27.36.41l-6.57-8c-.09-.11-.18-.21-.27-.31-.03-.03-.06-.06-.09-.1-.06-.07-.13-.14-.19-.21-.08-.09-.17-.18-.26-.26-.07-.07-.14-.13-.21-.2-.04-.04-.08-.08-.12-.12-.04-.04-.09-.07-.13-.11-.1-.09-.21-.18-.31-.27-.08-.07-.17-.14-.25-.2-.11-.09-.22-.17-.34-.26-.06-.04-.11-.08-.16-.12-.03-.02-.05-.04-.08-.05-.25-.18-.51-.35-.78-.52-.04-.02-.07-.04-.11-.07-.24-.15-.5-.29-.76-.43-.04-.02-.08-.05-.12-.07-.11-.06-.22-.12-.33-.17l6.57,8c.15.08.3.16.45.24.26.14.51.28.76.43Z"/>
        <path class="cls-16" d="M832.27,173.1c1.09-2.79,1.22-5.09.38-6.87-.17-.36-.39-.71-.66-1.03l-6.57-8c.27.33.49.67.66,1.03.84,1.79.71,4.08-.38,6.87-.13.33-.27.64-.41.94-.05.1-.1.19-.15.28-.1.2-.2.4-.31.58,0,.02-.02.03-.03.05-.14.23-.28.45-.43.66-.03.05-.07.09-.1.14-.11.15-.23.3-.35.44-.07.08-.13.17-.21.25-.18.2-.36.38-.55.56-.03.03-.07.06-.1.09-.16.14-.33.28-.5.41-.05.04-.1.08-.15.11-.2.14-.41.28-.63.4-.02.01-.04.02-.07.03-.23.13-.46.24-.71.35-.19.08-.4.15-.6.22-.15.05-.3.1-.46.14-.15.04-.3.08-.45.11-.11.02-.21.04-.32.06-.18.03-.36.06-.55.08-.11.01-.21.03-.32.04-.26.02-.53.04-.81.05-.05,0-.1,0-.15,0-.29,0-.58,0-.88-.02-.02,0-.03,0-.05,0-.31-.02-.63-.05-.95-.09-.06,0-.12-.01-.18-.02-.32-.04-.64-.09-.97-.15-.06-.01-.12-.02-.18-.04-.35-.07-.7-.14-1.06-.23l-9.62-2.36,6.57,8,9.62,2.36c.36.09.71.16,1.06.23.06.01.12.02.18.04.33.06.65.11.97.15.06,0,.12.01.18.02.32.04.64.07.95.09.02,0,.03,0,.05,0,.3.02.59.02.88.02.05,0,.1,0,.15,0,.23,0,.46-.02.68-.03.04,0,.09-.01.13-.02.11-.01.21-.02.32-.04.18-.02.37-.05.55-.08.11-.02.22-.04.32-.06.08-.02.16-.03.23-.05.08-.02.14-.05.22-.07.16-.04.31-.09.46-.14.07-.02.14-.04.2-.06.14-.05.27-.1.4-.16.08-.04.17-.07.25-.11.15-.07.31-.15.45-.23.02-.01.05-.02.07-.03,0,0,.01,0,.02,0,.17-.09.33-.2.49-.3.04-.03.08-.06.13-.09.05-.04.1-.07.15-.11.06-.04.12-.09.18-.13.11-.09.22-.18.32-.28.03-.03.07-.06.1-.09.01-.01.02-.02.04-.03.16-.15.32-.31.47-.48.01-.02.03-.03.04-.05.07-.08.14-.17.2-.25.09-.11.19-.22.28-.33.03-.04.05-.07.08-.11.03-.05.07-.09.1-.14.15-.21.29-.43.43-.66,0-.02.02-.03.03-.05,0,0,0-.01.01-.02.1-.18.2-.37.3-.56.05-.1.1-.19.15-.28.14-.3.28-.62.41-.94Z"/>
        <path class="cls-21" d="M840.03,146.09c1.09-2.79,1.03-5.04-.18-6.74-.07-.1-.15-.21-.23-.31l-6.57-8c.08.1.16.2.23.31,1.21,1.7,1.28,3.95.18,6.74-.12.3-.24.58-.38.85-.04.09-.09.17-.14.26-.1.19-.2.38-.31.56-.03.04-.05.09-.08.13-.14.22-.29.44-.45.64-.05.07-.11.14-.17.2-.12.15-.25.3-.38.44-.05.06-.11.11-.16.17-.15.15-.3.29-.46.42-.04.04-.08.07-.13.11-.2.16-.4.31-.61.45-.05.03-.1.06-.15.09-.17.11-.35.21-.54.31-.07.03-.13.07-.2.1-.24.12-.49.23-.75.32-.12.04-.25.08-.37.11-.19.06-.38.12-.58.17-.29.07-.58.13-.88.18-.01,0-.02,0-.03,0-.3.05-.61.08-.93.1-.06,0-.11,0-.17,0-.27.02-.55.03-.83.03-.06,0-.12,0-.18,0-.32,0-.65-.02-.99-.04-.07,0-.15-.01-.22-.02-.31-.03-.63-.06-.96-.1-.05,0-.09-.01-.14-.02-.36-.05-.73-.11-1.1-.18-.09-.02-.18-.03-.27-.05-.38-.08-.77-.16-1.17-.26l-5.9-1.45,6.57,8,5.9,1.45c.4.1.79.18,1.18.26.09.02.18.04.26.05.38.07.74.13,1.1.18.04,0,.09.01.13.02.33.04.65.08.96.1.07,0,.15.01.22.02.34.02.67.04.99.04.06,0,.12,0,.18,0,.28,0,.56,0,.84-.03.06,0,.11,0,.17,0,.03,0,.06,0,.09,0,.29-.02.56-.06.83-.1.01,0,.02,0,.03,0,.28-.04.56-.1.83-.17.02,0,.04-.01.05-.02.2-.05.39-.11.58-.17.1-.03.21-.06.3-.09.02,0,.04-.02.06-.02.22-.08.43-.17.64-.27.04-.02.07-.04.11-.06.07-.03.13-.07.2-.1.09-.05.18-.09.27-.14.09-.05.18-.11.27-.17.05-.03.1-.06.15-.09.03-.02.06-.03.08-.05.16-.11.32-.22.47-.34.02-.02.04-.04.06-.05.04-.03.08-.07.12-.11.09-.08.18-.15.27-.23.07-.06.13-.13.19-.19.05-.05.11-.11.16-.17.03-.04.07-.07.1-.1.1-.11.19-.22.28-.34.06-.07.11-.13.17-.2.01-.02.03-.03.04-.05.14-.19.28-.39.41-.59.03-.04.05-.09.08-.13.03-.05.07-.1.1-.16.08-.13.14-.27.22-.41.04-.09.09-.17.14-.26.13-.27.26-.55.38-.85Z"/>
        <polygon class="cls-14" points="809.57 110.59 783.88 176.25 790.46 184.25 816.15 118.59 809.57 110.59"/>
        <path class="cls-22" d="M854.24,132.9c-3.29-4.12-8.95-7.16-16.95-9.13l-21.14-5.18-25.69,65.66,24.6,6.03c7.89,1.93,14.59,1.78,20.1-.46,5.51-2.24,9.52-6.57,12.02-12.97,1.35-3.46,1.62-6.74.81-9.84-.81-3.1-2.97-5.54-6.49-7.32,3.5-.49,6.43-1.78,8.79-3.85,2.37-2.07,4.16-4.67,5.39-7.8,2.34-5.98,1.87-11.03-1.43-15.15ZM832.27,173.1c-1.04,2.65-2.6,4.41-4.7,5.3-2.1.89-4.74.94-7.93.16l-9.62-2.36,6.44-16.46,9.66,2.37.49.12c3.18.88,5.2,2.21,6.04,4,.84,1.79.71,4.08-.38,6.87ZM840.03,146.09c-.99,2.52-2.62,4.21-4.89,5.05-2.27.84-5.21.82-8.82-.06l-5.9-1.45,6.12-15.65,6.16,1.51c3.55.87,5.93,2.15,7.14,3.85,1.21,1.7,1.28,3.95.18,6.74Z"/>
        <path class="cls-18" d="M839.46,124.35c.38.11.76.22,1.13.33.24.07.48.15.72.23.1.03.19.06.29.09.39.13.77.26,1.14.4.06.02.12.05.18.07.32.12.63.24.94.36.09.04.19.07.28.11.36.14.71.29,1.05.44.03.01.06.03.09.04.32.14.62.28.93.43.09.04.17.08.26.13.31.15.62.31.92.47.01,0,.03.02.04.02.32.17.62.34.93.52.09.05.18.11.27.16.22.13.43.26.63.39.09.06.19.12.28.18.22.15.44.3.66.45.06.04.12.08.17.12.09.06.17.13.25.19.23.17.46.34.68.52.11.09.21.18.32.27.19.15.37.31.55.47.13.11.25.23.37.34.12.11.23.22.35.33.12.12.24.25.36.37.11.11.22.23.32.34.18.2.37.41.54.62l-6.57-8c-.14-.17-.28-.33-.42-.49-.04-.04-.08-.08-.12-.13-.1-.12-.21-.23-.32-.34-.12-.12-.24-.25-.36-.37-.11-.11-.23-.22-.35-.33-.08-.07-.15-.15-.23-.22-.04-.04-.09-.08-.14-.12-.18-.16-.36-.31-.55-.47-.11-.09-.21-.18-.32-.27-.22-.18-.45-.35-.68-.52-.07-.05-.14-.11-.21-.16-.02-.01-.03-.02-.05-.03-.06-.04-.12-.08-.17-.12-.22-.15-.44-.3-.66-.45-.09-.06-.18-.12-.28-.18-.21-.13-.42-.26-.64-.39-.09-.05-.18-.11-.27-.16-.3-.17-.6-.34-.92-.51,0,0,0,0-.01,0-.01,0-.03-.01-.04-.02-.3-.16-.61-.31-.92-.47-.09-.04-.17-.08-.26-.13-.3-.15-.61-.29-.93-.43-.03-.01-.06-.03-.09-.04-.34-.15-.69-.3-1.05-.44-.09-.04-.19-.07-.28-.11-.31-.12-.62-.24-.94-.36-.06-.02-.12-.05-.18-.07-.37-.13-.75-.27-1.14-.39-.1-.03-.19-.06-.29-.1-.14-.05-.29-.09-.43-.14-.09-.03-.19-.06-.29-.09-.37-.11-.75-.23-1.13-.33-.17-.05-.33-.1-.5-.14-.55-.15-1.1-.3-1.67-.44l-21.14-5.18,6.57,8,21.14,5.18c.57.14,1.13.29,1.67.44.17.05.33.1.5.14Z"/>
      </g>
      <g>
        <polygon class="cls-10" points="147.84 292.05 140.85 300.81 140.63 300.84 147.61 292.08 147.84 292.05"/>
        <polygon class="cls-11" points="159.88 308.34 152.89 317.11 140.85 300.81 147.84 292.05 159.88 308.34"/>
        <polygon class="cls-11" points="174.33 327.92 167.35 336.69 159.81 326.48 166.8 317.72 174.33 327.92"/>
        <polygon class="cls-12" points="187.62 325.85 180.63 334.61 167.35 336.69 174.33 327.92 187.62 325.85"/>
        <polygon class="cls-12" points="166.8 317.72 159.81 326.48 143.65 329 150.64 320.24 166.8 317.72"/>
        <polygon class="cls-11" points="133.87 275.69 126.88 284.45 131.6 342.26 138.58 333.5 133.87 275.69"/>
        <polygon class="cls-12" points="151.86 331.43 144.88 340.19 131.6 342.26 138.58 333.5 151.86 331.43"/>
        <path class="cls-26" d="M147.41,273.57l-6.79,1.06-6.75,1.05,4.72,57.81,13.28-2.07-1.23-11.19,16.16-2.52,7.53,10.21,13.28-2.07-40.21-52.28ZM149.54,309.96l-1.93-17.88.23-.04,12.04,16.3-10.34,1.61Z"/>
      </g>
      <g>
        <polygon class="cls-6" points="907.14 205.79 890.97 253.76 924.43 291.75 940.6 243.78 907.14 205.79"/>
        <polygon class="cls-24" points="990.22 233.79 974.06 281.76 924.43 291.75 940.6 243.78 990.22 233.79"/>
        <polygon class="cls-8" points="940.6 243.78 990.22 233.79 956.76 195.81 907.14 205.79 940.6 243.78"/>
      </g>
      <g>
        <polygon class="cls-17" points="881.27 5.07 868.48 37.38 890.06 64.61 902.85 32.31 881.27 5.07"/>
        <polygon class="cls-2" points="937.23 27.24 924.43 59.54 890.06 64.61 902.85 32.31 937.23 27.24"/>
        <polygon class="cls-5" points="902.85 32.31 937.23 27.24 915.65 0 881.27 5.07 902.85 32.31"/>
      </g>
      <g>
        <polygon class="cls-17" points="10.22 250.57 0 276.37 17.23 298.11 27.45 272.32 10.22 250.57"/>
        <polygon class="cls-2" points="54.89 268.27 44.68 294.06 17.23 298.11 27.45 272.32 54.89 268.27"/>
        <polygon class="cls-5" points="27.45 272.32 54.89 268.27 37.66 246.53 10.22 250.57 27.45 272.32"/>
      </g>
    </g>
  </g>
</svg>