<?xml version="1.0" standalone="no"?><svg xmlns:xlink="http://www.w3.org/1999/xlink" xmlns="http://www.w3.org/2000/svg" viewBox="0 0 1000 500" preserveAspectRatio="xMaxYMax slice"><g transform="scale(0.9758001561280251)"><rect x="0" y="0" width="1024.8" height="512.4" fill="#c9dcd2"/><rect x="0" y="0" width="73.2" height="73.2" fill="#cfe7b7"/><polygon points="0,0 73.2,0 0,73.2" fill="#d8f791"/><rect x="73.2" y="0" width="73.2" height="73.2" fill="#95a39b"/><path d="M 73.2 73.2 A 73.2 73.2 0 0 1  146.4 0 L 146.4 73.2L73.2 73.2" fill="#a2b2aa"/><rect x="146.4" y="0" width="73.2" height="73.2" fill="#565e5a"/><polygon points="146.4,0 219.60000000000002,0 146.4,73.2" fill="#cee5bc"/><rect x="219.6" y="0" width="73.2" height="73.2" fill="#b1c2b9"/><polygon points="219.6,0 292.8,0 292.8,73.2" fill="#dcfd83"/><rect x="292.8" y="0" width="73.2" height="73.2" fill="#68726d"/><path d="M 292.8 0 A 73.2 73.2 0 0 1 366 73.2 L 292.8 73.2L292.8 0" fill="#cbe0c9"/><rect x="366" y="0" width="73.2" height="73.2" fill="#c1d3ca"/><rect x="366" y="0" width="73.2" height="73.2" fill="#a6b6ae"/><rect x="439.2" y="0" width="73.2" height="73.2" fill="#323734"/><path d="M 439.2 73.2 A 73.2 73.2 0 0 1  512.4 0 L 512.4 73.2L439.2 73.2" fill="#1e2120"/><rect x="512.4" y="0" width="73.2" height="73.2" fill="#cbe0c8"/><polygon points="512.4,0 585.6,0 512.4,73.2" fill="#7c8881"/><rect x="585.6" y="0" width="73.2" height="73.2" fill="#93a19a"/><polygon points="585.6,0 658.8000000000001,0 585.6,73.2" fill="#d0e9b3"/><rect x="658.8" y="0" width="73.2" height="73.2" fill="#dafa89"/><polygon points="658.8,0 732,0 658.8,73.2" fill="#caddcf"/><rect x="732" y="0" width="73.2" height="73.2" fill="#ddff7e"/><polygon points="732,0 805.2,0 805.2,73.2" fill="#58605c"/><rect x="805.2" y="0" width="73.2" height="73.2" fill="#d2edaa"/><rect x="805.2" y="0" width="73.2" height="73.2" fill="#6e7873"/><rect x="878.4" y="0" width="73.2" height="73.2" fill="#99a8a0"/><rect x="878.4" y="0" width="73.2" height="73.2" fill="#626b66"/><rect x="951.6" y="0" width="73.2" height="73.2" fill="#363b38"/><polygon points="1024.8,0 1024.8,73.2 951.6,73.2" fill="#c6d9cf"/><rect x="0" y="73.2" width="73.2" height="73.2" fill="#b0c1b8"/><rect x="0" y="73.2" width="73.2" height="73.2" fill="#d6f399"/><rect x="73.2" y="73.2" width="73.2" height="73.2" fill="#dafa89"/><path d="M 73.2 73.2 A 73.2 73.2 0 0 0 146.4 146.4 L 146.4 73.2L73.2 73.2" fill="#d8f693"/><rect x="146.4" y="73.2" width="73.2" height="73.2" fill="#d6f499"/><polygon points="146.4,73.2 219.60000000000002,73.2 146.4,146.4" fill="#d4f0a2"/><rect x="219.6" y="73.2" width="73.2" height="73.2" fill="#d7f498"/><path d="M 219.6 146.4 A 73.2 73.2 0 0 0 292.8 73.2 L 219.6 73.2L219.6 146.4" fill="#dbfb86"/><rect x="292.8" y="73.2" width="73.2" height="73.2" fill="#b8cac1"/><polygon points="292.8,73.2 366,73.2 366,146.4" fill="#cbdfcb"/><rect x="366" y="73.2" width="73.2" height="73.2" fill="#ddfe7f"/><polygon points="366,73.2 439.2,73.2 366,146.4" fill="#49504d"/><rect x="439.2" y="73.2" width="73.2" height="73.2" fill="#8c9992"/><rect x="439.2" y="73.2" width="73.2" height="73.2" fill="#d8f791"/><rect x="512.4" y="73.2" width="73.2" height="73.2" fill="#454b48"/><rect x="512.4" y="73.2" width="73.2" height="73.2" fill="#cee6bb"/><rect x="585.6" y="73.2" width="73.2" height="73.2" fill="#d6f29c"/><rect x="585.6" y="73.2" width="73.2" height="73.2" fill="#d8f692"/><rect x="658.8" y="73.2" width="73.2" height="73.2" fill="#ddff7e"/><path d="M 658.8 73.2 A 73.2 73.2 0 0 1 732 146.4 L 658.8 146.4L658.8 73.2" fill="#808c86"/><rect x="732" y="73.2" width="73.2" height="73.2" fill="#202321"/><rect x="732" y="73.2" width="73.2" height="73.2" fill="#363b38"/><rect x="805.2" y="73.2" width="73.2" height="73.2" fill="#363b38"/><path d="M 805.2 146.4 A 73.2 73.2 0 0 0 878.4000000000001 73.2 L 805.2 73.2L805.2 146.4" fill="#161817"/><rect x="878.4" y="73.2" width="73.2" height="73.2" fill="#c1d3ca"/><polygon points="951.6,73.2 951.6,146.4 878.4,146.4" fill="#101110"/><rect x="951.6" y="73.2" width="73.2" height="73.2" fill="#cce1c5"/><polygon points="951.6,73.2 1024.8,73.2 951.6,146.4" fill="#d7f595"/><rect x="0" y="146.4" width="73.2" height="73.2" fill="#d3eda9"/><polygon points="0,146.4 73.2,219.60000000000002 0,219.60000000000002" fill="#9faea6"/><rect x="73.2" y="146.4" width="73.2" height="73.2" fill="#d6f39b"/><polygon points="73.2,146.4 146.4,146.4 73.2,219.60000000000002" fill="#9daca4"/><rect x="146.4" y="146.4" width="73.2" height="73.2" fill="#575f5a"/><polygon points="146.4,146.4 219.60000000000002,219.60000000000002 146.4,219.60000000000002" fill="#5e6762"/><rect x="219.6" y="146.4" width="73.2" height="73.2" fill="#dcfe80"/><polygon points="219.6,146.4 292.8,146.4 219.6,219.60000000000002" fill="#93a19a"/><rect x="292.8" y="146.4" width="73.2" height="73.2" fill="#d4efa3"/><rect x="292.8" y="146.4" width="73.2" height="73.2" fill="#1c1f1d"/><rect x="366" y="146.4" width="73.2" height="73.2" fill="#303432"/><path d="M 366 146.4 A 73.2 73.2 0 0 0 439.2 219.60000000000002 L 439.2 146.4L366 146.4" fill="#c7d9cf"/><rect x="439.2" y="146.4" width="73.2" height="73.2" fill="#c5d8ce"/><polygon points="512.4,146.4 512.4,219.60000000000002 439.2,219.60000000000002" fill="#ddfe7f"/><rect x="512.4" y="146.4" width="73.2" height="73.2" fill="#d9f88e"/><polygon points="512.4,146.4 585.6,219.60000000000002 512.4,219.60000000000002" fill="#98a79f"/><rect x="585.6" y="146.4" width="73.2" height="73.2" fill="#d8f791"/><rect x="585.6" y="146.4" width="73.2" height="73.2" fill="#dbfb86"/><rect x="658.8" y="146.4" width="73.2" height="73.2" fill="#cee5bd"/><path d="M 658.8 219.60000000000002 A 73.2 73.2 0 0 1  732 146.4 L 732 219.60000000000002L658.8 219.60000000000002" fill="#caddce"/><rect x="732" y="146.4" width="73.2" height="73.2" fill="#adbeb5"/><rect x="732" y="146.4" width="73.2" height="73.2" fill="#dbfb86"/><rect x="805.2" y="146.4" width="73.2" height="73.2" fill="#cfe7b8"/><rect x="805.2" y="146.4" width="73.2" height="73.2" fill="#9aa9a1"/><rect x="878.4" y="146.4" width="73.2" height="73.2" fill="#d6f39a"/><rect x="878.4" y="146.4" width="73.2" height="73.2" fill="#87938d"/><rect x="951.6" y="146.4" width="73.2" height="73.2" fill="#a2b2aa"/><rect x="951.6" y="146.4" width="73.2" height="73.2" fill="#b4c5bc"/><rect x="0" y="219.6" width="73.2" height="73.2" fill="#cce2c4"/><polygon points="73.2,219.6 73.2,292.8 0,292.8" fill="#d8f692"/><rect x="73.2" y="219.6" width="73.2" height="73.2" fill="#cee5bd"/><rect x="73.2" y="219.6" width="73.2" height="73.2" fill="#d4eea5"/><rect x="146.4" y="219.6" width="73.2" height="73.2" fill="#707b75"/><polygon points="146.4,219.6 219.60000000000002,292.8 146.4,292.8" fill="#cce1c6"/><rect x="219.6" y="219.6" width="73.2" height="73.2" fill="#c9ddd0"/><rect x="219.6" y="219.6" width="73.2" height="73.2" fill="#cde4c0"/><rect x="292.8" y="219.6" width="73.2" height="73.2" fill="#cde2c2"/><rect x="292.8" y="219.6" width="73.2" height="73.2" fill="#cfe6ba"/><rect x="366" y="219.6" width="73.2" height="73.2" fill="#d3eea6"/><polygon points="366,219.6 439.2,219.6 439.2,292.8" fill="#d1eab0"/><rect x="439.2" y="219.6" width="73.2" height="73.2" fill="#a4b4ac"/><path d="M 439.2 219.6 A 73.2 73.2 0 0 1  512.4 292.8 L 439.2 219.6 A 73.2 73.2 0 0 0 512.4 292.8" fill="#d9f88e"/><rect x="512.4" y="219.6" width="73.2" height="73.2" fill="#d6f39b"/><rect x="512.4" y="219.6" width="73.2" height="73.2" fill="#cadecd"/><rect x="585.6" y="219.6" width="73.2" height="73.2" fill="#c9dcd2"/><polygon points="585.6,219.6 658.8000000000001,219.6 585.6,292.8" fill="#2f3431"/><rect x="658.8" y="219.6" width="73.2" height="73.2" fill="#393e3c"/><rect x="658.8" y="219.6" width="73.2" height="73.2" fill="#1b1d1c"/><rect x="732" y="219.6" width="73.2" height="73.2" fill="#717c76"/><rect x="732" y="219.6" width="73.2" height="73.2" fill="#343937"/><rect x="805.2" y="219.6" width="73.2" height="73.2" fill="#606964"/><path d="M 805.2 219.6 A 73.2 73.2 0 0 0 878.4000000000001 292.8 L 878.4000000000001 219.6L805.2 219.6" fill="#d1eaaf"/><rect x="878.4" y="219.6" width="73.2" height="73.2" fill="#d4f0a3"/><rect x="878.4" y="219.6" width="73.2" height="73.2" fill="#d2ebad"/><rect x="951.6" y="219.6" width="73.2" height="73.2" fill="#cde2c3"/><polygon points="951.6,219.6 1024.8,219.6 951.6,292.8" fill="#575f5a"/><rect x="0" y="292.8" width="73.2" height="73.2" fill="#919f98"/><path d="M 0 292.8 A 73.2 73.2 0 0 1  73.2 366 L 0 292.8 A 73.2 73.2 0 0 0 73.2 366" fill="#393e3c"/><rect x="73.2" y="292.8" width="73.2" height="73.2" fill="#bdcfc6"/><rect x="73.2" y="292.8" width="73.2" height="73.2" fill="#d4efa4"/><rect x="146.4" y="292.8" width="73.2" height="73.2" fill="#d8f694"/><path d="M 146.4 366 A 73.2 73.2 0 0 1  219.60000000000002 292.8 L 146.4 366 A 73.2 73.2 0 0 0 219.60000000000002 292.8" fill="#9daca4"/><rect x="219.6" y="292.8" width="73.2" height="73.2" fill="#d4efa3"/><path d="M 219.6 292.8 A 73.2 73.2 0 0 0 292.8 366 L 292.8 292.8L219.6 292.8" fill="#dcfe7f"/><rect x="292.8" y="292.8" width="73.2" height="73.2" fill="#ddff7e"/><path d="M 292.8 292.8 A 73.2 73.2 0 0 0 366 366 L 366 292.8L292.8 292.8" fill="#d8f694"/><rect x="366" y="292.8" width="73.2" height="73.2" fill="#cbdfca"/><rect x="366" y="292.8" width="73.2" height="73.2" fill="#dbfc85"/><rect x="439.2" y="292.8" width="73.2" height="73.2" fill="#3b413e"/><rect x="439.2" y="292.8" width="73.2" height="73.2" fill="#d4efa4"/><rect x="512.4" y="292.8" width="73.2" height="73.2" fill="#d7f498"/><rect x="512.4" y="292.8" width="73.2" height="73.2" fill="#cde3c0"/><rect x="585.6" y="292.8" width="73.2" height="73.2" fill="#84908a"/><polygon points="658.8000000000001,292.8 658.8000000000001,366 585.6,366" fill="#a8b8af"/><rect x="658.8" y="292.8" width="73.2" height="73.2" fill="#212523"/><path d="M 658.8 292.8 A 73.2 73.2 0 0 1 732 366 L 658.8 366L658.8 292.8" fill="#4a514d"/><rect x="732" y="292.8" width="73.2" height="73.2" fill="#d6f39b"/><path d="M 732 366 A 73.2 73.2 0 0 0 805.2 292.8 L 732 292.8L732 366" fill="#444b48"/><rect x="805.2" y="292.8" width="73.2" height="73.2" fill="#d9f88f"/><polygon points="805.2,292.8 878.4000000000001,366 805.2,366" fill="#b7c9c0"/><rect x="878.4" y="292.8" width="73.2" height="73.2" fill="#cee5bd"/><rect x="878.4" y="292.8" width="73.2" height="73.2" fill="#d6f39a"/><rect x="951.6" y="292.8" width="73.2" height="73.2" fill="#2c312e"/><path d="M 951.6 366 A 73.2 73.2 0 0 1  1024.8 292.8 L 951.6 366 A 73.2 73.2 0 0 0 1024.8 292.8" fill="#737e78"/><rect x="0" y="366" width="73.2" height="73.2" fill="#7f8b85"/><polygon points="0,366 73.2,366 73.2,439.2" fill="#3d4340"/><rect x="73.2" y="366" width="73.2" height="73.2" fill="#cfe7b7"/><path d="M 73.2 439.2 A 73.2 73.2 0 0 1  146.4 366 L 73.2 439.2 A 73.2 73.2 0 0 0 146.4 366" fill="#d4f0a2"/><rect x="146.4" y="366" width="73.2" height="73.2" fill="#d8f692"/><path d="M 146.4 366 A 73.2 73.2 0 0 1  219.60000000000002 439.2 L 146.4 366 A 73.2 73.2 0 0 0 219.60000000000002 439.2" fill="#97a59d"/><rect x="219.6" y="366" width="73.2" height="73.2" fill="#d7f596"/><polygon points="292.8,366 292.8,439.2 219.6,439.2" fill="#080808"/><rect x="292.8" y="366" width="73.2" height="73.2" fill="#d7f595"/><path d="M 292.8 366 A 73.2 73.2 0 0 1 366 439.2 L 292.8 439.2L292.8 366" fill="#ddfe7f"/><rect x="366" y="366" width="73.2" height="73.2" fill="#555d59"/><path d="M 366 439.2 A 73.2 73.2 0 0 1  439.2 366 L 439.2 439.2L366 439.2" fill="#d0e8b4"/><rect x="439.2" y="366" width="73.2" height="73.2" fill="#d0e8b5"/><polygon points="439.2,366 512.4,366 512.4,439.2" fill="#caddcf"/><rect x="512.4" y="366" width="73.2" height="73.2" fill="#808c86"/><path d="M 512.4 366 A 73.2 73.2 0 0 1  585.6 439.2 L 512.4 366 A 73.2 73.2 0 0 0 585.6 439.2" fill="#dbfc85"/><rect x="585.6" y="366" width="73.2" height="73.2" fill="#0b0c0b"/><rect x="585.6" y="366" width="73.2" height="73.2" fill="#a2b2aa"/><rect x="658.8" y="366" width="73.2" height="73.2" fill="#89968f"/><path d="M 658.8 366 A 73.2 73.2 0 0 1 732 439.2 L 658.8 439.2L658.8 366" fill="#cbe0c9"/><rect x="732" y="366" width="73.2" height="73.2" fill="#bed0c7"/><polygon points="732,366 805.2,439.2 732,439.2" fill="#9aa8a0"/><rect x="805.2" y="366" width="73.2" height="73.2" fill="#727d77"/><rect x="805.2" y="366" width="73.2" height="73.2" fill="#cee5bd"/><rect x="878.4" y="366" width="73.2" height="73.2" fill="#97a59d"/><rect x="878.4" y="366" width="73.2" height="73.2" fill="#818d87"/><rect x="951.6" y="366" width="73.2" height="73.2" fill="#dbfc85"/><path d="M 951.6 366 A 73.2 73.2 0 0 1  1024.8 439.2 L 951.6 366 A 73.2 73.2 0 0 0 1024.8 439.2" fill="#caddcf"/><rect x="0" y="439.2" width="73.2" height="73.2" fill="#cee5bd"/><path d="M 0 512.4 A 73.2 73.2 0 0 0 73.2 439.2 L 0 439.2L0 512.4" fill="#060606"/><rect x="73.2" y="439.2" width="73.2" height="73.2" fill="#454c48"/><rect x="73.2" y="439.2" width="73.2" height="73.2" fill="#d2edaa"/><rect x="146.4" y="439.2" width="73.2" height="73.2" fill="#646d68"/><path d="M 146.4 512.4 A 73.2 73.2 0 0 1  219.60000000000002 439.2 L 146.4 512.4 A 73.2 73.2 0 0 0 219.60000000000002 439.2" fill="#cce1c7"/><rect x="219.6" y="439.2" width="73.2" height="73.2" fill="#4f5753"/><polygon points="219.6,439.2 292.8,439.2 292.8,512.4" fill="#cfe6b9"/><rect x="292.8" y="439.2" width="73.2" height="73.2" fill="#cfe7b7"/><path d="M 292.8 512.4 A 73.2 73.2 0 0 1  366 439.2 L 366 512.4L292.8 512.4" fill="#7d8983"/><rect x="366" y="439.2" width="73.2" height="73.2" fill="#cce1c7"/><rect x="366" y="439.2" width="73.2" height="73.2" fill="#cbe0c8"/><rect x="439.2" y="439.2" width="73.2" height="73.2" fill="#dbfb86"/><polygon points="439.2,439.2 512.4,512.4 439.2,512.4" fill="#2f3331"/><rect x="512.4" y="439.2" width="73.2" height="73.2" fill="#d4efa3"/><rect x="512.4" y="439.2" width="73.2" height="73.2" fill="#d4efa3"/><rect x="585.6" y="439.2" width="73.2" height="73.2" fill="#c0d2c8"/><polygon points="585.6,439.2 658.8000000000001,439.2 585.6,512.4" fill="#d7f596"/><rect x="658.8" y="439.2" width="73.2" height="73.2" fill="#c2d5cb"/><rect x="658.8" y="439.2" width="73.2" height="73.2" fill="#2a2e2c"/><rect x="732" y="439.2" width="73.2" height="73.2" fill="#93a19a"/><polygon points="805.2,439.2 805.2,512.4 732,512.4" fill="#dcfd82"/><rect x="805.2" y="439.2" width="73.2" height="73.2" fill="#89968f"/><path d="M 805.2 512.4 A 73.2 73.2 0 0 0 878.4000000000001 439.2 L 805.2 439.2L805.2 512.4" fill="#212423"/><rect x="878.4" y="439.2" width="73.2" height="73.2" fill="#c9dcd1"/><rect x="878.4" y="439.2" width="73.2" height="73.2" fill="#6b7570"/><rect x="951.6" y="439.2" width="73.2" height="73.2" fill="#cce2c4"/><rect x="951.6" y="439.2" width="73.2" height="73.2" fill="#d7f596"/></g></svg>