<?xml version="1.0" standalone="no"?><svg xmlns:xlink="http://www.w3.org/1999/xlink" xmlns="http://www.w3.org/2000/svg" viewBox="0 0 1000 666.6666666666666" preserveAspectRatio="xMaxYMax slice"><g transform="scale(1.3010668748373666)"><rect x="0" y="0" width="768.5999999999999" height="512.4" fill="#ffffff"/><rect x="0" y="0" width="64.05" height="64.05" fill="#ecfeb7"/><polygon points="64.05,0 64.05,64.05 0,64.05" fill="#e0fe88"/><rect x="64.05" y="0" width="64.05" height="64.05" fill="#9e9e9e"/><rect x="64.05" y="0" width="64.05" height="64.05" fill="#fbfff1"/><rect x="128.1" y="0" width="64.05" height="64.05" fill="#8e8e8e"/><polygon points="128.1,0 192.14999999999998,0 192.14999999999998,64.05" fill="#f2ffcd"/><rect x="192.15" y="0" width="64.05" height="64.05" fill="#acacac"/><path d="M 192.15 0 A 64.05 64.05 0 0 1  256.2 64.05 L 192.15 0 A 64.05 64.05 0 0 0 256.2 64.05" fill="#eeffbf"/><rect x="256.2" y="0" width="64.05" height="64.05" fill="#414141"/><rect x="256.2" y="0" width="64.05" height="64.05" fill="#515151"/><rect x="320.25" y="0" width="64.05" height="64.05" fill="#f4ffd3"/><rect x="320.25" y="0" width="64.05" height="64.05" fill="#fdfff8"/><rect x="384.3" y="0" width="64.05" height="64.05" fill="#d8d8d8"/><rect x="384.3" y="0" width="64.05" height="64.05" fill="#303030"/><rect x="448.35" y="0" width="64.05" height="64.05" fill="#e3fe92"/><polygon points="448.35,0 512.4,0 512.4,64.05" fill="#2c2c2c"/><rect x="512.4" y="0" width="64.05" height="64.05" fill="#fcfcfc"/><polygon points="512.4,0 576.4499999999999,0 576.4499999999999,64.05" fill="#e9feac"/><rect x="576.45" y="0" width="64.05" height="64.05" fill="#272727"/><rect x="576.45" y="0" width="64.05" height="64.05" fill="#cecece"/><rect x="640.5" y="0" width="64.05" height="64.05" fill="#a9a9a9"/><polygon points="704.55,0 704.55,64.05 640.5,64.05" fill="#ecfeb6"/><rect x="704.55" y="0" width="64.05" height="64.05" fill="#fdfff7"/><path d="M 704.55 0 A 64.05 64.05 0 0 1 768.5999999999999 64.05 L 704.55 64.05L704.55 0" fill="#e7fea3"/><rect x="0" y="64.05" width="64.05" height="64.05" fill="#323232"/><path d="M 0 128.1 A 64.05 64.05 0 0 1  64.05 64.05 L 64.05 128.1L0 128.1" fill="#cdcdcd"/><rect x="64.05" y="64.05" width="64.05" height="64.05" fill="#717171"/><polygon points="64.05,64.05 128.1,64.05 64.05,128.1" fill="#f2ffcc"/><rect x="128.1" y="64.05" width="64.05" height="64.05" fill="#7c7c7c"/><rect x="128.1" y="64.05" width="64.05" height="64.05" fill="#ebfeb1"/><rect x="192.15" y="64.05" width="64.05" height="64.05" fill="#797979"/><rect x="192.15" y="64.05" width="64.05" height="64.05" fill="#e6fea0"/><rect x="256.2" y="64.05" width="64.05" height="64.05" fill="#535353"/><polygon points="256.2,64.05 320.25,64.05 256.2,128.1" fill="#efffc2"/><rect x="320.25" y="64.05" width="64.05" height="64.05" fill="#ebfeb2"/><path d="M 320.25 128.1 A 64.05 64.05 0 0 0 384.3 64.05 L 320.25 64.05L320.25 128.1" fill="#f7ffe2"/><rect x="384.3" y="64.05" width="64.05" height="64.05" fill="#e5fe9c"/><rect x="384.3" y="64.05" width="64.05" height="64.05" fill="#efffc2"/><rect x="448.35" y="64.05" width="64.05" height="64.05" fill="#e6fe9e"/><path d="M 448.35 64.05 A 64.05 64.05 0 0 1 512.4 128.1 L 448.35 128.1L448.35 64.05" fill="#919191"/><rect x="512.4" y="64.05" width="64.05" height="64.05" fill="#8b8b8b"/><path d="M 512.4 128.1 A 64.05 64.05 0 0 0 576.4499999999999 64.05 L 512.4 64.05L512.4 128.1" fill="#9d9d9d"/><rect x="576.45" y="64.05" width="64.05" height="64.05" fill="#ddfe7d"/><rect x="576.45" y="64.05" width="64.05" height="64.05" fill="#e6fe9f"/><rect x="640.5" y="64.05" width="64.05" height="64.05" fill="#474747"/><polygon points="640.5,64.05 704.55,128.1 640.5,128.1" fill="#f3ffd1"/><rect x="704.55" y="64.05" width="64.05" height="64.05" fill="#dcdcdc"/><path d="M 704.55 128.1 A 64.05 64.05 0 0 1  768.5999999999999 64.05 L 768.5999999999999 128.1L704.55 128.1" fill="#f8f8f8"/><rect x="0" y="128.1" width="64.05" height="64.05" fill="#e4fe98"/><path d="M 0 192.14999999999998 A 64.05 64.05 0 0 1  64.05 128.1 L 64.05 192.14999999999998L0 192.14999999999998" fill="#fbffef"/><rect x="64.05" y="128.1" width="64.05" height="64.05" fill="#3d3d3d"/><path d="M 64.05 128.1 A 64.05 64.05 0 0 1 128.1 192.14999999999998 L 64.05 192.14999999999998L64.05 128.1" fill="#444444"/><rect x="128.1" y="128.1" width="64.05" height="64.05" fill="#f1ffc7"/><rect x="128.1" y="128.1" width="64.05" height="64.05" fill="#b2b2b2"/><rect x="192.15" y="128.1" width="64.05" height="64.05" fill="#040404"/><rect x="192.15" y="128.1" width="64.05" height="64.05" fill="#e6e6e6"/><rect x="256.2" y="128.1" width="64.05" height="64.05" fill="#e5fe9a"/><rect x="256.2" y="128.1" width="64.05" height="64.05" fill="#eafead"/><rect x="320.25" y="128.1" width="64.05" height="64.05" fill="#7f7f7f"/><path d="M 320.25 128.1 A 64.05 64.05 0 0 1 384.3 192.14999999999998 L 320.25 192.14999999999998L320.25 128.1" fill="#eafead"/><rect x="384.3" y="128.1" width="64.05" height="64.05" fill="#edfeb9"/><rect x="384.3" y="128.1" width="64.05" height="64.05" fill="#454545"/><rect x="448.35" y="128.1" width="64.05" height="64.05" fill="#141414"/><path d="M 448.35 192.14999999999998 A 64.05 64.05 0 0 1  512.4 128.1 L 448.35 192.14999999999998 A 64.05 64.05 0 0 0 512.4 128.1" fill="#e0fe89"/><rect x="512.4" y="128.1" width="64.05" height="64.05" fill="#fbffee"/><polygon points="512.4,128.1 576.4499999999999,128.1 512.4,192.14999999999998" fill="#a9a9a9"/><rect x="576.45" y="128.1" width="64.05" height="64.05" fill="#ebfeb2"/><path d="M 576.45 128.1 A 64.05 64.05 0 0 0 640.5 192.14999999999998 L 640.5 128.1L576.45 128.1" fill="#929292"/><rect x="640.5" y="128.1" width="64.05" height="64.05" fill="#f1ffcb"/><polygon points="640.5,128.1 704.55,128.1 704.55,192.14999999999998" fill="#f0f0f0"/><rect x="704.55" y="128.1" width="64.05" height="64.05" fill="#676767"/><rect x="704.55" y="128.1" width="64.05" height="64.05" fill="#ecfeb7"/><rect x="0" y="192.15" width="64.05" height="64.05" fill="#5e5e5e"/><path d="M 0 192.15 A 64.05 64.05 0 0 1 64.05 256.2 L 0 256.2L0 192.15" fill="#c7c7c7"/><rect x="64.05" y="192.15" width="64.05" height="64.05" fill="#fffffe"/><path d="M 64.05 192.15 A 64.05 64.05 0 0 0 128.1 256.2 L 128.1 192.15L64.05 192.15" fill="#575757"/><rect x="128.1" y="192.15" width="64.05" height="64.05" fill="#e4fe95"/><rect x="128.1" y="192.15" width="64.05" height="64.05" fill="#e2e2e2"/><rect x="192.15" y="192.15" width="64.05" height="64.05" fill="#e6fe9e"/><path d="M 192.15 192.15 A 64.05 64.05 0 0 1 256.2 256.2 L 192.15 256.2L192.15 192.15" fill="#fcfff3"/><rect x="256.2" y="192.15" width="64.05" height="64.05" fill="#ebfeb1"/><polygon points="256.2,192.15 320.25,256.2 256.2,256.2" fill="#f4ffd5"/><rect x="320.25" y="192.15" width="64.05" height="64.05" fill="#f3ffcf"/><polygon points="320.25,192.15 384.3,192.15 384.3,256.2" fill="#747474"/><rect x="384.3" y="192.15" width="64.05" height="64.05" fill="#e7fea4"/><path d="M 384.3 256.2 A 64.05 64.05 0 0 0 448.35 192.15 L 384.3 192.15L384.3 256.2" fill="#e5e5e5"/><rect x="448.35" y="192.15" width="64.05" height="64.05" fill="#f5ffda"/><polygon points="512.4,192.15 512.4,256.2 448.35,256.2" fill="#defe7f"/><rect x="512.4" y="192.15" width="64.05" height="64.05" fill="#f0ffc4"/><path d="M 512.4 256.2 A 64.05 64.05 0 0 1  576.4499999999999 192.15 L 576.4499999999999 256.2L512.4 256.2" fill="#ecfeb5"/><rect x="576.45" y="192.15" width="64.05" height="64.05" fill="#fefffd"/><polygon points="576.45,192.15 640.5,192.15 640.5,256.2" fill="#f8ffe3"/><rect x="640.5" y="192.15" width="64.05" height="64.05" fill="#9b9b9b"/><polygon points="640.5,192.15 704.55,192.15 704.55,256.2" fill="#727272"/><rect x="704.55" y="192.15" width="64.05" height="64.05" fill="#bdbdbd"/><path d="M 704.55 256.2 A 64.05 64.05 0 0 1  768.5999999999999 192.15 L 768.5999999999999 256.2L704.55 256.2" fill="#fbfff1"/><rect x="0" y="256.2" width="64.05" height="64.05" fill="#343434"/><rect x="0" y="256.2" width="64.05" height="64.05" fill="#2c2c2c"/><rect x="64.05" y="256.2" width="64.05" height="64.05" fill="#f3ffd2"/><path d="M 64.05 320.25 A 64.05 64.05 0 0 0 128.1 256.2 L 64.05 256.2L64.05 320.25" fill="#eefebd"/><rect x="128.1" y="256.2" width="64.05" height="64.05" fill="#191919"/><rect x="128.1" y="256.2" width="64.05" height="64.05" fill="#989898"/><rect x="192.15" y="256.2" width="64.05" height="64.05" fill="#e2fe8e"/><polygon points="192.15,256.2 256.2,320.25 192.15,320.25" fill="#777777"/><rect x="256.2" y="256.2" width="64.05" height="64.05" fill="#e4fe96"/><rect x="256.2" y="256.2" width="64.05" height="64.05" fill="#e6e6e6"/><rect x="320.25" y="256.2" width="64.05" height="64.05" fill="#f4f4f4"/><path d="M 320.25 256.2 A 64.05 64.05 0 0 1  384.3 320.25 L 320.25 256.2 A 64.05 64.05 0 0 0 384.3 320.25" fill="#565656"/><rect x="384.3" y="256.2" width="64.05" height="64.05" fill="#e0fe88"/><path d="M 384.3 320.25 A 64.05 64.05 0 0 0 448.35 256.2 L 384.3 256.2L384.3 320.25" fill="#161616"/><rect x="448.35" y="256.2" width="64.05" height="64.05" fill="#f5ffd9"/><path d="M 448.35 320.25 A 64.05 64.05 0 0 1  512.4 256.2 L 448.35 320.25 A 64.05 64.05 0 0 0 512.4 256.2" fill="#232323"/><rect x="512.4" y="256.2" width="64.05" height="64.05" fill="#4d4d4d"/><polygon points="576.4499999999999,256.2 576.4499999999999,320.25 512.4,320.25" fill="#979797"/><rect x="576.45" y="256.2" width="64.05" height="64.05" fill="#e9feaa"/><path d="M 576.45 320.25 A 64.05 64.05 0 0 0 640.5 256.2 L 576.45 256.2L576.45 320.25" fill="#c2c2c2"/><rect x="640.5" y="256.2" width="64.05" height="64.05" fill="#f0f0f0"/><rect x="640.5" y="256.2" width="64.05" height="64.05" fill="#020202"/><rect x="704.55" y="256.2" width="64.05" height="64.05" fill="#fdfff9"/><rect x="704.55" y="256.2" width="64.05" height="64.05" fill="#afafaf"/><rect x="0" y="320.25" width="64.05" height="64.05" fill="#141414"/><path d="M 0 384.3 A 64.05 64.05 0 0 0 64.05 320.25 L 0 320.25L0 384.3" fill="#aaaaaa"/><rect x="64.05" y="320.25" width="64.05" height="64.05" fill="#fbfff0"/><rect x="64.05" y="320.25" width="64.05" height="64.05" fill="#f3ffd2"/><rect x="128.1" y="320.25" width="64.05" height="64.05" fill="#dffe84"/><rect x="128.1" y="320.25" width="64.05" height="64.05" fill="#0f0f0f"/><rect x="192.15" y="320.25" width="64.05" height="64.05" fill="#141414"/><polygon points="192.15,320.25 256.2,384.3 192.15,384.3" fill="#dffe83"/><rect x="256.2" y="320.25" width="64.05" height="64.05" fill="#f0ffc4"/><polygon points="256.2,320.25 320.25,320.25 256.2,384.3" fill="#eaeaea"/><rect x="320.25" y="320.25" width="64.05" height="64.05" fill="#faffec"/><polygon points="320.25,320.25 384.3,320.25 320.25,384.3" fill="#dedede"/><rect x="384.3" y="320.25" width="64.05" height="64.05" fill="#676767"/><path d="M 384.3 320.25 A 64.05 64.05 0 0 1  448.35 384.3 L 384.3 320.25 A 64.05 64.05 0 0 0 448.35 384.3" fill="#edfeb9"/><rect x="448.35" y="320.25" width="64.05" height="64.05" fill="#bbbbbb"/><path d="M 448.35 320.25 A 64.05 64.05 0 0 0 512.4 384.3 L 512.4 320.25L448.35 320.25" fill="#e2fe90"/><rect x="512.4" y="320.25" width="64.05" height="64.05" fill="#020202"/><rect x="512.4" y="320.25" width="64.05" height="64.05" fill="#f4ffd6"/><rect x="576.45" y="320.25" width="64.05" height="64.05" fill="#fefffa"/><rect x="576.45" y="320.25" width="64.05" height="64.05" fill="#faffed"/><rect x="640.5" y="320.25" width="64.05" height="64.05" fill="#faffeb"/><polygon points="640.5,320.25 704.55,320.25 704.55,384.3" fill="#e5fe9b"/><rect x="704.55" y="320.25" width="64.05" height="64.05" fill="#defe7f"/><rect x="704.55" y="320.25" width="64.05" height="64.05" fill="#f9ffe7"/><rect x="0" y="384.3" width="64.05" height="64.05" fill="#f0ffc5"/><path d="M 0 448.35 A 64.05 64.05 0 0 1  64.05 384.3 L 0 448.35 A 64.05 64.05 0 0 0 64.05 384.3" fill="#8e8e8e"/><rect x="64.05" y="384.3" width="64.05" height="64.05" fill="#d9d9d9"/><path d="M 64.05 448.35 A 64.05 64.05 0 0 0 128.1 384.3 L 64.05 384.3L64.05 448.35" fill="#f1ffc8"/><rect x="128.1" y="384.3" width="64.05" height="64.05" fill="#4a4a4a"/><rect x="128.1" y="384.3" width="64.05" height="64.05" fill="#aaaaaa"/><rect x="192.15" y="384.3" width="64.05" height="64.05" fill="#959595"/><path d="M 192.15 448.35 A 64.05 64.05 0 0 0 256.2 384.3 L 192.15 384.3L192.15 448.35" fill="#252525"/><rect x="256.2" y="384.3" width="64.05" height="64.05" fill="#f2ffce"/><path d="M 256.2 384.3 A 64.05 64.05 0 0 0 320.25 448.35 L 320.25 384.3L256.2 384.3" fill="#949494"/><rect x="320.25" y="384.3" width="64.05" height="64.05" fill="#404040"/><path d="M 320.25 448.35 A 64.05 64.05 0 0 1  384.3 384.3 L 320.25 448.35 A 64.05 64.05 0 0 0 384.3 384.3" fill="#e3fe94"/><rect x="384.3" y="384.3" width="64.05" height="64.05" fill="#fbfff0"/><polygon points="448.35,384.3 448.35,448.35 384.3,448.35" fill="#dadada"/><rect x="448.35" y="384.3" width="64.05" height="64.05" fill="#6e6e6e"/><polygon points="448.35,384.3 512.4,448.35 448.35,448.35" fill="#f2ffcd"/><rect x="512.4" y="384.3" width="64.05" height="64.05" fill="#e8fea8"/><polygon points="512.4,384.3 576.4499999999999,448.35 512.4,448.35" fill="#e2fe8f"/><rect x="576.45" y="384.3" width="64.05" height="64.05" fill="#a3a3a3"/><rect x="576.45" y="384.3" width="64.05" height="64.05" fill="#131313"/><rect x="640.5" y="384.3" width="64.05" height="64.05" fill="#fcfff2"/><rect x="640.5" y="384.3" width="64.05" height="64.05" fill="#f2ffcd"/><rect x="704.55" y="384.3" width="64.05" height="64.05" fill="#f2ffcb"/><polygon points="704.55,384.3 768.5999999999999,384.3 704.55,448.35" fill="#edfeb8"/><rect x="0" y="448.35" width="64.05" height="64.05" fill="#868686"/><rect x="0" y="448.35" width="64.05" height="64.05" fill="#edfebb"/><rect x="64.05" y="448.35" width="64.05" height="64.05" fill="#f4ffd4"/><polygon points="128.1,448.35 128.1,512.4 64.05,512.4" fill="#f6ffdd"/><rect x="128.1" y="448.35" width="64.05" height="64.05" fill="#e6fe9f"/><rect x="128.1" y="448.35" width="64.05" height="64.05" fill="#bbbbbb"/><rect x="192.15" y="448.35" width="64.05" height="64.05" fill="#fefefe"/><path d="M 192.15 512.4 A 64.05 64.05 0 0 1  256.2 448.35 L 256.2 512.4L192.15 512.4" fill="#e9fea9"/><rect x="256.2" y="448.35" width="64.05" height="64.05" fill="#1e1e1e"/><rect x="256.2" y="448.35" width="64.05" height="64.05" fill="#2c2c2c"/><rect x="320.25" y="448.35" width="64.05" height="64.05" fill="#c3c3c3"/><polygon points="384.3,448.35 384.3,512.4 320.25,512.4" fill="#141414"/><rect x="384.3" y="448.35" width="64.05" height="64.05" fill="#ffffff"/><rect x="384.3" y="448.35" width="64.05" height="64.05" fill="#454545"/><rect x="448.35" y="448.35" width="64.05" height="64.05" fill="#e0fe87"/><rect x="448.35" y="448.35" width="64.05" height="64.05" fill="#090909"/><rect x="512.4" y="448.35" width="64.05" height="64.05" fill="#e8fea6"/><polygon points="576.4499999999999,448.35 576.4499999999999,512.4 512.4,512.4" fill="#535353"/><rect x="576.45" y="448.35" width="64.05" height="64.05" fill="#edfeba"/><rect x="576.45" y="448.35" width="64.05" height="64.05" fill="#e8fea7"/><rect x="640.5" y="448.35" width="64.05" height="64.05" fill="#f6ffdb"/><polygon points="704.55,448.35 704.55,512.4 640.5,512.4" fill="#ddfe7c"/><rect x="704.55" y="448.35" width="64.05" height="64.05" fill="#e6fea1"/><rect x="704.55" y="448.35" width="64.05" height="64.05" fill="#fcfff2"/></g></svg>