<?xml version="1.0" standalone="no"?><svg xmlns:xlink="http://www.w3.org/1999/xlink" xmlns="http://www.w3.org/2000/svg" viewBox="0 0 1000 571.4285714285713" preserveAspectRatio="xMaxYMax slice"><g transform="scale(1.1152001784320285)"><rect x="0" y="0" width="960.75" height="512.4" fill="#c8ddd2"/><rect x="0" y="0" width="64.05" height="64.05" fill="#aabcb2"/><polygon points="0,0 64.05,0 64.05,64.05" fill="#3e4441"/><rect x="128.1" y="0" width="64.05" height="64.05" fill="#dcfd81"/><polygon points="192.14999999999998,0 192.14999999999998,64.05 128.1,64.05" fill="#373d3a"/><rect x="192.15" y="0" width="64.05" height="64.05" fill="#5c6560"/><polygon points="192.15,0 256.2,0 256.2,64.05" fill="#dcfd83"/><rect x="256.2" y="0" width="64.05" height="64.05" fill="#d9f98c"/><path d="M 256.2 0 A 64.05 64.05 0 0 1  320.25 64.05 L 256.2 0 A 64.05 64.05 0 0 0 320.25 64.05" fill="#74807a"/><rect x="384.3" y="0" width="64.05" height="64.05" fill="#2b302d"/><path d="M 384.3 0 A 64.05 64.05 0 0 1  448.35 64.05 L 384.3 0 A 64.05 64.05 0 0 0 448.35 64.05" fill="#cae0ca"/><rect x="512.4" y="0" width="64.05" height="64.05" fill="#d2edab"/><g transform="translate(512.4,0) scale(3.2024999999999997) rotate(0)"><path d="M10 0L20 10L10 20L0 10L10 0Z" fill="#bdd1c6"/></g><rect x="576.45" y="0" width="64.05" height="64.05" fill="#cae0c9"/><polygon points="576.45,0 640.5,64.05 576.45,64.05" fill="#cae0ca"/><rect x="768.6" y="0" width="64.05" height="64.05" fill="#1b1d1c"/><path d="M 768.6 64.05 A 64.05 64.05 0 0 1  832.65 0 L 768.6 64.05 A 64.05 64.05 0 0 0 832.65 0" fill="#d9f98d"/><rect x="896.7" y="0" width="64.05" height="64.05" fill="#6d7872"/><path d="M 896.7 64.05 A 64.05 64.05 0 0 1  960.75 0 L 896.7 64.05 A 64.05 64.05 0 0 0 960.75 0" fill="#d2eda9"/><rect x="0" y="64.05" width="64.05" height="64.05" fill="#131514"/><g transform="translate(0,64.05) scale(3.2024999999999997) rotate(0)"><path d="M10 0L20 10L10 20L0 10L10 0Z" fill="#090a09"/></g><rect x="128.1" y="64.05" width="64.05" height="64.05" fill="#93a39a"/><path d="M 128.1 128.1 A 64.05 64.05 0 0 1  192.14999999999998 64.05 L 128.1 128.1 A 64.05 64.05 0 0 0 192.14999999999998 64.05" fill="#d6f499"/><rect x="192.15" y="64.05" width="64.05" height="64.05" fill="#232624"/><polygon points="192.15,64.05 256.2,64.05 256.2,128.1" fill="#cae0cb"/><rect x="256.2" y="64.05" width="64.05" height="64.05" fill="#cbe2c5"/><path d="M 256.2 128.1 A 64.05 64.05 0 0 1  320.25 64.05 L 256.2 128.1 A 64.05 64.05 0 0 0 320.25 64.05" fill="#717c76"/><rect x="320.25" y="64.05" width="64.05" height="64.05" fill="#dcfd81"/><polygon points="384.3,64.05 384.3,128.1 320.25,128.1" fill="#c8ddd1"/><rect x="384.3" y="64.05" width="64.05" height="64.05" fill="#d9f88e"/><path d="M 384.3 64.05 A 64.05 64.05 0 0 1 448.35 128.1 L 384.3 128.1L384.3 64.05" fill="#dafa89"/><rect x="448.35" y="64.05" width="64.05" height="64.05" fill="#6f7b75"/><path d="M 448.35 128.1 A 64.05 64.05 0 0 1  512.4 64.05 L 448.35 128.1 A 64.05 64.05 0 0 0 512.4 64.05" fill="#c3d7cd"/><rect x="640.5" y="64.05" width="64.05" height="64.05" fill="#d9f98d"/><path d="M 640.5 128.1 A 64.05 64.05 0 0 1  704.55 64.05 L 640.5 128.1 A 64.05 64.05 0 0 0 704.55 64.05" fill="#6d7872"/><rect x="768.6" y="64.05" width="64.05" height="64.05" fill="#cce3c3"/><g transform="translate(768.6,64.05) scale(3.2024999999999997) rotate(0)"><path d="M10 0L20 10L10 20L0 10L10 0Z" fill="#b5c8be"/></g><rect x="0" y="128.1" width="64.05" height="64.05" fill="#5e6862"/><g transform="translate(0,128.1) scale(3.2024999999999997) rotate(0)"><path d="M10 0L20 10L10 20L0 10L10 0Z" fill="#8f9e96"/></g><rect x="64.05" y="128.1" width="64.05" height="64.05" fill="#1e211f"/><polygon points="64.05,128.1 128.1,128.1 64.05,192.14999999999998" fill="#303633"/><rect x="128.1" y="128.1" width="64.05" height="64.05" fill="#060707"/><path d="M 128.1 192.14999999999998 A 64.05 64.05 0 0 1  192.14999999999998 128.1 L 128.1 192.14999999999998 A 64.05 64.05 0 0 0 192.14999999999998 128.1" fill="#535c57"/><rect x="192.15" y="128.1" width="64.05" height="64.05" fill="#d1ebaf"/><path d="M 192.15 128.1 A 64.05 64.05 0 0 0 256.2 192.14999999999998 L 256.2 128.1L192.15 128.1" fill="#cde5bf"/><rect x="256.2" y="128.1" width="64.05" height="64.05" fill="#7e8b84"/><polygon points="256.2,128.1 320.25,128.1 320.25,192.14999999999998" fill="#cae1c8"/><rect x="320.25" y="128.1" width="64.05" height="64.05" fill="#2b2f2d"/><polygon points="320.25,128.1 384.3,128.1 384.3,192.14999999999998" fill="#ddff7e"/><rect x="384.3" y="128.1" width="64.05" height="64.05" fill="#d6f499"/><path d="M 384.3 128.1 A 64.05 64.05 0 0 0 448.35 192.14999999999998 L 448.35 128.1L384.3 128.1" fill="#d1ecac"/><rect x="448.35" y="128.1" width="64.05" height="64.05" fill="#7b8781"/><path d="M 448.35 192.14999999999998 A 64.05 64.05 0 0 1  512.4 128.1 L 448.35 192.14999999999998 A 64.05 64.05 0 0 0 512.4 128.1" fill="#0a0c0b"/><rect x="512.4" y="128.1" width="64.05" height="64.05" fill="#3c423f"/><path d="M 512.4 192.14999999999998 A 64.05 64.05 0 0 1  576.4499999999999 128.1 L 576.4499999999999 192.14999999999998L512.4 192.14999999999998" fill="#343a37"/><rect x="576.45" y="128.1" width="64.05" height="64.05" fill="#131514"/><path d="M 576.45 192.14999999999998 A 64.05 64.05 0 0 1  640.5 128.1 L 576.45 192.14999999999998 A 64.05 64.05 0 0 0 640.5 128.1" fill="#383e3b"/><rect x="640.5" y="128.1" width="64.05" height="64.05" fill="#d5f39c"/><g transform="translate(640.5,128.1) scale(3.2024999999999997) rotate(0)"><path d="M10 0L20 10L10 20L0 10L10 0Z" fill="#d2edaa"/></g><rect x="704.55" y="128.1" width="64.05" height="64.05" fill="#262a28"/><path d="M 704.55 192.14999999999998 A 64.05 64.05 0 0 1  768.5999999999999 128.1 L 704.55 192.14999999999998 A 64.05 64.05 0 0 0 768.5999999999999 128.1" fill="#d7f596"/><rect x="768.6" y="128.1" width="64.05" height="64.05" fill="#cbe2c5"/><g transform="translate(768.6,128.1) scale(3.2024999999999997) rotate(0)"><path d="M10 0L20 10L10 20L0 10L10 0Z" fill="#c8ddd2"/></g><rect x="832.65" y="128.1" width="64.05" height="64.05" fill="#8a9891"/><polygon points="832.65,128.1 896.6999999999999,128.1 896.6999999999999,192.14999999999998" fill="#d8f693"/><rect x="896.7" y="128.1" width="64.05" height="64.05" fill="#d5f29c"/><path d="M 896.7 128.1 A 64.05 64.05 0 0 1  960.75 192.14999999999998 L 896.7 128.1 A 64.05 64.05 0 0 0 960.75 192.14999999999998" fill="#d4f1a0"/><rect x="256.2" y="192.15" width="64.05" height="64.05" fill="#6c7771"/><polygon points="256.2,192.15 320.25,256.2 256.2,256.2" fill="#c1d5ca"/><rect x="320.25" y="192.15" width="64.05" height="64.05" fill="#d4f19f"/><g transform="translate(320.25,192.15) scale(3.2024999999999997) rotate(0)"><path d="M10 0L20 10L10 20L0 10L10 0Z" fill="#3b413e"/></g><rect x="384.3" y="192.15" width="64.05" height="64.05" fill="#565f5b"/><g transform="translate(384.3,192.15) scale(3.2024999999999997) rotate(0)"><path d="M10 0L20 10L10 20L0 10L10 0Z" fill="#cfe8b7"/></g><rect x="512.4" y="192.15" width="64.05" height="64.05" fill="#d5f39c"/><path d="M 512.4 192.15 A 64.05 64.05 0 0 1  576.4499999999999 256.2 L 512.4 192.15 A 64.05 64.05 0 0 0 576.4499999999999 256.2" fill="#c9dfce"/><rect x="576.45" y="192.15" width="64.05" height="64.05" fill="#96a59d"/><path d="M 576.45 192.15 A 64.05 64.05 0 0 1  640.5 256.2 L 576.45 192.15 A 64.05 64.05 0 0 0 640.5 256.2" fill="#0b0c0c"/><rect x="640.5" y="192.15" width="64.05" height="64.05" fill="#d1ecac"/><polygon points="640.5,192.15 704.55,192.15 704.55,256.2" fill="#dbfb86"/><rect x="704.55" y="192.15" width="64.05" height="64.05" fill="#737f78"/><polygon points="704.55,192.15 768.5999999999999,192.15 704.55,256.2" fill="#d6f498"/><rect x="768.6" y="192.15" width="64.05" height="64.05" fill="#afc2b8"/><path d="M 768.6 192.15 A 64.05 64.05 0 0 1  832.65 256.2 L 768.6 192.15 A 64.05 64.05 0 0 0 832.65 256.2" fill="#cee7b9"/><rect x="832.65" y="192.15" width="64.05" height="64.05" fill="#a7b9b0"/><g transform="translate(832.65,192.15) scale(3.2024999999999997) rotate(0)"><path d="M10 0L20 10L10 20L0 10L10 0Z" fill="#cae1c9"/></g><rect x="0" y="256.2" width="64.05" height="64.05" fill="#74807a"/><polygon points="0,256.2 64.05,256.2 0,320.25" fill="#dafb88"/><rect x="128.1" y="256.2" width="64.05" height="64.05" fill="#1b1e1c"/><polygon points="128.1,256.2 192.14999999999998,256.2 128.1,320.25" fill="#d5f19f"/><rect x="192.15" y="256.2" width="64.05" height="64.05" fill="#545c58"/><path d="M 192.15 320.25 A 64.05 64.05 0 0 0 256.2 256.2 L 192.15 256.2L192.15 320.25" fill="#1c1f1d"/><rect x="384.3" y="256.2" width="64.05" height="64.05" fill="#070707"/><g transform="translate(384.3,256.2) scale(3.2024999999999997) rotate(0)"><path d="M10 0L20 10L10 20L0 10L10 0Z" fill="#8c9a93"/></g><rect x="448.35" y="256.2" width="64.05" height="64.05" fill="#d2eea8"/><polygon points="512.4,256.2 512.4,320.25 448.35,320.25" fill="#cae1c8"/><rect x="576.45" y="256.2" width="64.05" height="64.05" fill="#bacec4"/><g transform="translate(576.45,256.2) scale(3.2024999999999997) rotate(0)"><path d="M10 0L20 10L10 20L0 10L10 0Z" fill="#cfe9b4"/></g><rect x="768.6" y="256.2" width="64.05" height="64.05" fill="#cae0cc"/><polygon points="768.6,256.2 832.65,256.2 768.6,320.25" fill="#75817b"/><rect x="832.65" y="256.2" width="64.05" height="64.05" fill="#d9f88e"/><path d="M 832.65 320.25 A 64.05 64.05 0 0 1  896.6999999999999 256.2 L 832.65 320.25 A 64.05 64.05 0 0 0 896.6999999999999 256.2" fill="#bdd1c7"/><rect x="896.7" y="256.2" width="64.05" height="64.05" fill="#cce4c1"/><path d="M 896.7 320.25 A 64.05 64.05 0 0 1  960.75 256.2 L 896.7 320.25 A 64.05 64.05 0 0 0 960.75 256.2" fill="#5f6964"/><rect x="0" y="320.25" width="64.05" height="64.05" fill="#dafb88"/><path d="M 0 384.3 A 64.05 64.05 0 0 0 64.05 320.25 L 0 320.25L0 384.3" fill="#97a79f"/><rect x="64.05" y="320.25" width="64.05" height="64.05" fill="#3e4441"/><path d="M 64.05 320.25 A 64.05 64.05 0 0 0 128.1 384.3 L 128.1 320.25L64.05 320.25" fill="#93a29a"/><rect x="192.15" y="320.25" width="64.05" height="64.05" fill="#cbe2c5"/><path d="M 192.15 384.3 A 64.05 64.05 0 0 1  256.2 320.25 L 192.15 384.3 A 64.05 64.05 0 0 0 256.2 320.25" fill="#d8f890"/><rect x="384.3" y="320.25" width="64.05" height="64.05" fill="#3a413d"/><g transform="translate(384.3,320.25) scale(3.2024999999999997) rotate(0)"><path d="M10 0L20 10L10 20L0 10L10 0Z" fill="#738079"/></g><rect x="448.35" y="320.25" width="64.05" height="64.05" fill="#c5dacf"/><g transform="translate(448.35,320.25) scale(3.2024999999999997) rotate(0)"><path d="M10 0L20 10L10 20L0 10L10 0Z" fill="#050606"/></g><rect x="512.4" y="320.25" width="64.05" height="64.05" fill="#dafa8a"/><path d="M 512.4 384.3 A 64.05 64.05 0 0 1  576.4499999999999 320.25 L 512.4 384.3 A 64.05 64.05 0 0 0 576.4499999999999 320.25" fill="#d1ecad"/><rect x="576.45" y="320.25" width="64.05" height="64.05" fill="#d7f694"/><polygon points="576.45,320.25 640.5,384.3 576.45,384.3" fill="#cce3c4"/><rect x="640.5" y="320.25" width="64.05" height="64.05" fill="#dbfb86"/><g transform="translate(640.5,320.25) scale(3.2024999999999997) rotate(0)"><path d="M10 0L20 10L10 20L0 10L10 0Z" fill="#a4b5ac"/></g><rect x="768.6" y="320.25" width="64.05" height="64.05" fill="#d2edab"/><path d="M 768.6 320.25 A 64.05 64.05 0 0 1  832.65 384.3 L 768.6 320.25 A 64.05 64.05 0 0 0 832.65 384.3" fill="#79857f"/><rect x="832.65" y="320.25" width="64.05" height="64.05" fill="#85938c"/><path d="M 832.65 384.3 A 64.05 64.05 0 0 1  896.6999999999999 320.25 L 832.65 384.3 A 64.05 64.05 0 0 0 896.6999999999999 320.25" fill="#d7f694"/><rect x="896.7" y="320.25" width="64.05" height="64.05" fill="#101111"/><path d="M 896.7 384.3 A 64.05 64.05 0 0 1  960.75 320.25 L 896.7 384.3 A 64.05 64.05 0 0 0 960.75 320.25" fill="#cbe2c5"/><rect x="0" y="384.3" width="64.05" height="64.05" fill="#a3b4ab"/><path d="M 0 448.35 A 64.05 64.05 0 0 0 64.05 384.3 L 0 384.3L0 448.35" fill="#83918a"/><rect x="64.05" y="384.3" width="64.05" height="64.05" fill="#d2edab"/><path d="M 64.05 384.3 A 64.05 64.05 0 0 1  128.1 448.35 L 64.05 384.3 A 64.05 64.05 0 0 0 128.1 448.35" fill="#3f4643"/><rect x="128.1" y="384.3" width="64.05" height="64.05" fill="#bdd1c6"/><path d="M 128.1 384.3 A 64.05 64.05 0 0 1  192.14999999999998 448.35 L 128.1 384.3 A 64.05 64.05 0 0 0 192.14999999999998 448.35" fill="#aec1b7"/><rect x="192.15" y="384.3" width="64.05" height="64.05" fill="#d6f39b"/><g transform="translate(192.15,384.3) scale(3.2024999999999997) rotate(0)"><path d="M10 0L20 10L10 20L0 10L10 0Z" fill="#202321"/></g><rect x="320.25" y="384.3" width="64.05" height="64.05" fill="#dafb88"/><path d="M 320.25 384.3 A 64.05 64.05 0 0 1 384.3 448.35 L 320.25 448.35L320.25 384.3" fill="#d2eda9"/><rect x="384.3" y="384.3" width="64.05" height="64.05" fill="#cde5be"/><path d="M 384.3 384.3 A 64.05 64.05 0 0 1  448.35 448.35 L 384.3 384.3 A 64.05 64.05 0 0 0 448.35 448.35" fill="#d8f88f"/><rect x="640.5" y="384.3" width="64.05" height="64.05" fill="#95a49c"/><polygon points="640.5,384.3 704.55,384.3 704.55,448.35" fill="#ddfe7f"/><rect x="704.55" y="384.3" width="64.05" height="64.05" fill="#5e6863"/><path d="M 704.55 384.3 A 64.05 64.05 0 0 1  768.5999999999999 448.35 L 704.55 384.3 A 64.05 64.05 0 0 0 768.5999999999999 448.35" fill="#a9bab1"/><rect x="768.6" y="384.3" width="64.05" height="64.05" fill="#d6f49a"/><path d="M 768.6 384.3 A 64.05 64.05 0 0 1  832.65 448.35 L 768.6 384.3 A 64.05 64.05 0 0 0 832.65 448.35" fill="#c9ded0"/><rect x="64.05" y="448.35" width="64.05" height="64.05" fill="#5e6862"/><path d="M 64.05 512.4 A 64.05 64.05 0 0 0 128.1 448.35 L 64.05 448.35L64.05 512.4" fill="#88968e"/><rect x="128.1" y="448.35" width="64.05" height="64.05" fill="#414845"/><path d="M 128.1 448.35 A 64.05 64.05 0 0 1 192.14999999999998 512.4 L 128.1 512.4L128.1 448.35" fill="#7a8780"/><rect x="192.15" y="448.35" width="64.05" height="64.05" fill="#899890"/><g transform="translate(192.15,448.35) scale(3.2024999999999997) rotate(0)"><path d="M10 0L20 10L10 20L0 10L10 0Z" fill="#6b7670"/></g><rect x="256.2" y="448.35" width="64.05" height="64.05" fill="#1a1c1b"/><path d="M 256.2 512.4 A 64.05 64.05 0 0 1  320.25 448.35 L 320.25 512.4L256.2 512.4" fill="#cbe1c7"/><rect x="320.25" y="448.35" width="64.05" height="64.05" fill="#d3efa5"/><path d="M 320.25 512.4 A 64.05 64.05 0 0 0 384.3 448.35 L 320.25 448.35L320.25 512.4" fill="#cde6bc"/><rect x="384.3" y="448.35" width="64.05" height="64.05" fill="#c9ded0"/><polygon points="384.3,448.35 448.35,448.35 384.3,512.4" fill="#c6dbd0"/><rect x="448.35" y="448.35" width="64.05" height="64.05" fill="#333836"/><path d="M 448.35 512.4 A 64.05 64.05 0 0 1  512.4 448.35 L 448.35 512.4 A 64.05 64.05 0 0 0 512.4 448.35" fill="#6c7872"/><rect x="512.4" y="448.35" width="64.05" height="64.05" fill="#3a403d"/><g transform="translate(512.4,448.35) scale(3.2024999999999997) rotate(0)"><path d="M10 0L20 10L10 20L0 10L10 0Z" fill="#5e6863"/></g><rect x="640.5" y="448.35" width="64.05" height="64.05" fill="#cfe8b5"/><g transform="translate(640.5,448.35) scale(3.2024999999999997) rotate(0)"><path d="M10 0L20 10L10 20L0 10L10 0Z" fill="#cbe1c8"/></g><rect x="768.6" y="448.35" width="64.05" height="64.05" fill="#6a7670"/><polygon points="768.6,448.35 832.65,448.35 832.65,512.4" fill="#c8ddd1"/></g></svg>