<?xml version="1.0" standalone="no"?><svg xmlns:xlink="http://www.w3.org/1999/xlink" xmlns="http://www.w3.org/2000/svg" viewBox="0 0 1000 666.6666666666666" preserveAspectRatio="xMaxYMax slice"><g transform="scale(1.3010668748373666)"><rect x="0" y="0" width="768.5999999999999" height="512.4" fill="#ffffff"/><rect x="0" y="0" width="64.05" height="64.05" fill="#ffffff"/><rect x="0" y="0" width="32.03" height="32.03" fill="#e4fe96"/><polygon points="32.03,0 32.03,32.03 0,32.03" fill="#565656"/><rect x="32.03" y="0" width="32.03" height="32.03" fill="#faffea"/><polygon points="32.03,0 64.06,32.03 32.03,32.03" fill="#696969"/><rect x="0" y="32.03" width="32.03" height="32.03" fill="#ebfeb3"/><polygon points="0,32.03 32.03,32.03 0,64.06" fill="#e4fe98"/><rect x="32.03" y="32.03" width="32.03" height="32.03" fill="#989898"/><polygon points="32.03,32.03 64.06,32.03 64.06,64.06" fill="#fffffd"/><rect x="64.05" y="0" width="64.05" height="64.05" fill="#fefffd"/><polygon points="64.05,0 128.1,64.05 64.05,64.05" fill="#171717"/><rect x="128.1" y="0" width="64.05" height="64.05" fill="#ffffff"/><rect x="128.1" y="0" width="32.03" height="32.03" fill="#393939"/><path d="M 128.1 0 A 32.03 32.03 0 0 0 160.13 32.03 L 160.13 0L128.1 0" fill="#eaeaea"/><rect x="160.13" y="0" width="32.03" height="32.03" fill="#ecfeb7"/><path d="M 160.13 32.03 A 32.03 32.03 0 0 0 192.16 0 L 160.13 0L160.13 32.03" fill="#e2fe8d"/><rect x="128.1" y="32.03" width="32.03" height="32.03" fill="#b6b6b6"/><path d="M 128.1 64.06 A 32.03 32.03 0 0 1  160.13 32.03 L 160.13 64.06L128.1 64.06" fill="#f8ffe4"/><rect x="160.13" y="32.03" width="32.03" height="32.03" fill="#929292"/><path d="M 160.13 32.03 A 32.03 32.03 0 0 1 192.16 64.06 L 160.13 64.06L160.13 32.03" fill="#c3c3c3"/><rect x="192.14999999999998" y="0" width="64.05" height="64.05" fill="#ffffff"/><rect x="192.15" y="0" width="32.03" height="32.03" fill="#f6ffdd"/><polygon points="224.18,0 224.18,32.03 192.15,32.03" fill="#f3ffd2"/><rect x="224.18" y="0" width="32.03" height="32.03" fill="#eefebd"/><polygon points="224.18,0 256.21000000000004,0 224.18,32.03" fill="#8a8a8a"/><rect x="192.15" y="32.03" width="32.03" height="32.03" fill="#f4ffd3"/><polygon points="192.15,32.03 224.18,32.03 224.18,64.06" fill="#e8fea7"/><rect x="224.18" y="32.03" width="32.03" height="32.03" fill="#b2b2b2"/><polygon points="224.18,32.03 256.21000000000004,64.06 224.18,64.06" fill="#ebfeb4"/><rect x="256.2" y="0" width="64.05" height="64.05" fill="#ffffff"/><rect x="256.2" y="0" width="32.03" height="32.03" fill="#454545"/><path d="M 256.2 32.03 A 32.03 32.03 0 0 1  288.23 0 L 288.23 32.03L256.2 32.03" fill="#bfbfbf"/><rect x="288.22" y="0" width="32.03" height="32.03" fill="#eeffbe"/><path d="M 288.22 0 A 32.03 32.03 0 0 1 320.25 32.03 L 288.22 32.03L288.22 0" fill="#f5ffd9"/><rect x="256.2" y="32.03" width="32.03" height="32.03" fill="#e5fe99"/><path d="M 256.2 32.03 A 32.03 32.03 0 0 0 288.23 64.06 L 288.23 32.03L256.2 32.03" fill="#fffffe"/><rect x="288.22" y="32.03" width="32.03" height="32.03" fill="#242424"/><path d="M 288.22 64.06 A 32.03 32.03 0 0 0 320.25 32.03 L 288.22 32.03L288.22 64.06" fill="#bbbbbb"/><rect x="320.25" y="0" width="64.05" height="64.05" fill="#f9ffe7"/><polygon points="320.25,0 384.3,0 320.25,64.05" fill="#4a4a4a"/><rect x="384.3" y="0" width="64.05" height="64.05" fill="#e2fe8f"/><rect x="384.3" y="0" width="64.05" height="64.05" fill="#e8e8e8"/><rect x="448.35" y="0" width="64.05" height="64.05" fill="#f1ffca"/><path d="M 448.35 64.05 A 64.05 64.05 0 0 0 512.4 0 L 448.35 0L448.35 64.05" fill="#060606"/><rect x="512.4" y="0" width="64.05" height="64.05" fill="#f5ffda"/><path d="M 512.4 0 A 64.05 64.05 0 0 1  576.4499999999999 64.05 L 512.4 0 A 64.05 64.05 0 0 0 576.4499999999999 64.05" fill="#f8ffe5"/><rect x="576.45" y="0" width="64.05" height="64.05" fill="#f1ffc8"/><polygon points="640.5,0 640.5,64.05 576.45,64.05" fill="#c5c5c5"/><rect x="640.5" y="0" width="64.05" height="64.05" fill="#282828"/><path d="M 640.5 64.05 A 64.05 64.05 0 0 1  704.55 0 L 704.55 64.05L640.5 64.05" fill="#d2d2d2"/><rect x="704.55" y="0" width="64.05" height="64.05" fill="#ffffff"/><rect x="704.55" y="0" width="32.03" height="32.03" fill="#e6fe9e"/><circle cx="720.5649999999999" cy="16.015" r="16.015" fill="#121212"/><rect x="736.58" y="0" width="32.03" height="32.03" fill="#a0a0a0"/><rect x="736.58" y="0" width="32.03" height="32.03" fill="#f3ffd1"/><rect x="704.55" y="32.03" width="32.03" height="32.03" fill="#d7d7d7"/><circle cx="720.5649999999999" cy="48.045" r="16.015" fill="#e3fe92"/><rect x="736.58" y="32.03" width="32.03" height="32.03" fill="#cdcdcd"/><rect x="736.58" y="32.03" width="32.03" height="32.03" fill="#8f8f8f"/><rect x="0" y="64.05" width="64.05" height="64.05" fill="#ffffff"/><rect x="0" y="64.05" width="32.03" height="32.03" fill="#535353"/><polygon points="32.03,64.05 32.03,96.08 0,96.08" fill="#cbcbcb"/><rect x="32.03" y="64.05" width="32.03" height="32.03" fill="#fbffee"/><polygon points="32.03,64.05 64.06,96.08 32.03,96.08" fill="#f5ffd8"/><rect x="0" y="96.07" width="32.03" height="32.03" fill="#e8fea5"/><polygon points="0,96.07 32.03,96.07 0,128.1" fill="#858585"/><rect x="32.03" y="96.07" width="32.03" height="32.03" fill="#111111"/><polygon points="32.03,96.07 64.06,96.07 64.06,128.1" fill="#c8c8c8"/><rect x="64.05" y="64.05" width="64.05" height="64.05" fill="#ffffff"/><rect x="64.05" y="64.05" width="32.03" height="32.03" fill="#747474"/><path d="M 64.05 96.08 A 32.03 32.03 0 0 1  96.08 64.05 L 96.08 96.08L64.05 96.08" fill="#f2ffce"/><rect x="96.07" y="64.05" width="32.03" height="32.03" fill="#e8fea5"/><path d="M 96.07 64.05 A 32.03 32.03 0 0 1 128.1 96.08 L 96.07 96.08L96.07 64.05" fill="#f1ffc9"/><rect x="64.05" y="96.07" width="32.03" height="32.03" fill="#defe80"/><path d="M 64.05 96.07 A 32.03 32.03 0 0 0 96.08 128.1 L 96.08 96.07L64.05 96.07" fill="#f8ffe5"/><rect x="96.07" y="96.07" width="32.03" height="32.03" fill="#e6fea0"/><path d="M 96.07 128.1 A 32.03 32.03 0 0 0 128.1 96.07 L 96.07 96.07L96.07 128.1" fill="#090909"/><rect x="128.1" y="64.05" width="64.05" height="64.05" fill="#e5fe9b"/><rect x="128.1" y="64.05" width="64.05" height="64.05" fill="#818181"/><rect x="192.15" y="64.05" width="64.05" height="64.05" fill="#f3ffd0"/><rect x="192.15" y="64.05" width="64.05" height="64.05" fill="#edfeba"/><rect x="256.2" y="64.05" width="64.05" height="64.05" fill="#d2d2d2"/><rect x="256.2" y="64.05" width="64.05" height="64.05" fill="#edfeb9"/><rect x="320.25" y="64.05" width="64.05" height="64.05" fill="#ffffff"/><rect x="320.25" y="64.05" width="32.03" height="32.03" fill="#bdbdbd"/><path d="M 320.25 96.08 A 32.03 32.03 0 0 0 352.28 64.05 L 320.25 64.05L320.25 96.08" fill="#020202"/><rect x="352.28" y="64.05" width="32.03" height="32.03" fill="#e2e2e2"/><path d="M 352.28 64.05 A 32.03 32.03 0 0 0 384.30999999999995 96.08 L 384.30999999999995 64.05L352.28 64.05" fill="#404040"/><rect x="320.25" y="96.07" width="32.03" height="32.03" fill="#222222"/><path d="M 320.25 96.07 A 32.03 32.03 0 0 1 352.28 128.1 L 320.25 128.1L320.25 96.07" fill="#515151"/><rect x="352.28" y="96.07" width="32.03" height="32.03" fill="#1d1d1d"/><path d="M 352.28 128.1 A 32.03 32.03 0 0 1  384.30999999999995 96.07 L 384.30999999999995 128.1L352.28 128.1" fill="#ecfeb6"/><rect x="384.3" y="64.05" width="64.05" height="64.05" fill="#cecece"/><rect x="384.3" y="64.05" width="64.05" height="64.05" fill="#ebfeb3"/><rect x="448.34999999999997" y="64.05" width="64.05" height="64.05" fill="#ffffff"/><rect x="448.35" y="64.05" width="32.03" height="32.03" fill="#acacac"/><polygon points="480.38,64.05 480.38,96.08 448.35,96.08" fill="#1d1d1d"/><rect x="480.37" y="64.05" width="32.03" height="32.03" fill="#f8ffe3"/><polygon points="480.37,64.05 512.4,96.08 480.37,96.08" fill="#e0fe86"/><rect x="448.35" y="96.07" width="32.03" height="32.03" fill="#dffe85"/><polygon points="448.35,96.07 480.38,96.07 448.35,128.1" fill="#faffeb"/><rect x="480.37" y="96.07" width="32.03" height="32.03" fill="#c0c0c0"/><polygon points="480.37,96.07 512.4,96.07 512.4,128.1" fill="#525252"/><rect x="512.4" y="64.05" width="64.05" height="64.05" fill="#fcfff5"/><path d="M 512.4 64.05 A 64.05 64.05 0 0 1  576.4499999999999 128.1 L 512.4 64.05 A 64.05 64.05 0 0 0 576.4499999999999 128.1" fill="#ddfe7d"/><rect x="576.4499999999999" y="64.05" width="64.05" height="64.05" fill="#ffffff"/><rect x="576.45" y="64.05" width="32.03" height="32.03" fill="#888888"/><path d="M 576.45 64.05 A 32.03 32.03 0 0 0 608.48 96.08 L 608.48 64.05L576.45 64.05" fill="#2a2a2a"/><rect x="608.47" y="64.05" width="32.03" height="32.03" fill="#e0e0e0"/><path d="M 608.47 96.08 A 32.03 32.03 0 0 0 640.5 64.05 L 608.47 64.05L608.47 96.08" fill="#fdfff9"/><rect x="576.45" y="96.07" width="32.03" height="32.03" fill="#defe80"/><path d="M 576.45 128.1 A 32.03 32.03 0 0 1  608.48 96.07 L 608.48 128.1L576.45 128.1" fill="#f2ffcd"/><rect x="608.47" y="96.07" width="32.03" height="32.03" fill="#c8c8c8"/><path d="M 608.47 96.07 A 32.03 32.03 0 0 1 640.5 128.1 L 608.47 128.1L608.47 96.07" fill="#e6fea0"/><rect x="640.5" y="64.05" width="64.05" height="64.05" fill="#ffffff"/><rect x="640.5" y="64.05" width="32.03" height="32.03" fill="#7f7f7f"/><path d="M 640.5 64.05 A 32.03 32.03 0 0 0 672.53 96.08 L 672.53 64.05L640.5 64.05" fill="#e4fe98"/><rect x="672.53" y="64.05" width="32.03" height="32.03" fill="#e7fea2"/><path d="M 672.53 96.08 A 32.03 32.03 0 0 0 704.56 64.05 L 672.53 64.05L672.53 96.08" fill="#222222"/><rect x="640.5" y="96.07" width="32.03" height="32.03" fill="#efffc3"/><path d="M 640.5 128.1 A 32.03 32.03 0 0 1  672.53 96.07 L 672.53 128.1L640.5 128.1" fill="#fcfff3"/><rect x="672.53" y="96.07" width="32.03" height="32.03" fill="#e9fea9"/><path d="M 672.53 96.07 A 32.03 32.03 0 0 1 704.56 128.1 L 672.53 128.1L672.53 96.07" fill="#e3e3e3"/><rect x="704.55" y="64.05" width="64.05" height="64.05" fill="#ffffff"/><rect x="704.55" y="64.05" width="32.03" height="32.03" fill="#a1a1a1"/><circle cx="720.5649999999999" cy="80.065" r="16.015" fill="#bababa"/><rect x="736.58" y="64.05" width="32.03" height="32.03" fill="#f4ffd6"/><rect x="736.58" y="64.05" width="32.03" height="32.03" fill="#ebfeb1"/><rect x="704.55" y="96.07" width="32.03" height="32.03" fill="#efffc1"/><circle cx="720.5649999999999" cy="112.085" r="16.015" fill="#ecfeb5"/><rect x="736.58" y="96.07" width="32.03" height="32.03" fill="#2b2b2b"/><rect x="736.58" y="96.07" width="32.03" height="32.03" fill="#bdbdbd"/><rect x="0" y="128.1" width="64.05" height="64.05" fill="#252525"/><path d="M 0 128.1 A 64.05 64.05 0 0 1 64.05 192.14999999999998 L 0 192.14999999999998L0 128.1" fill="#faffeb"/><rect x="64.05" y="128.1" width="64.05" height="64.05" fill="#a5a5a5"/><path d="M 64.05 128.1 A 64.05 64.05 0 0 0 128.1 192.14999999999998 L 128.1 128.1L64.05 128.1" fill="#7f7f7f"/><rect x="128.1" y="128.1" width="64.05" height="64.05" fill="#e1e1e1"/><path d="M 128.1 128.1 A 64.05 64.05 0 0 0 192.14999999999998 192.14999999999998 L 192.14999999999998 128.1L128.1 128.1" fill="#414141"/><rect x="192.15" y="128.1" width="64.05" height="64.05" fill="#f1ffc8"/><rect x="192.15" y="128.1" width="64.05" height="64.05" fill="#dbdbdb"/><rect x="256.2" y="128.1" width="64.05" height="64.05" fill="#ddfe7d"/><rect x="256.2" y="128.1" width="64.05" height="64.05" fill="#e5fe9b"/><rect x="320.25" y="128.1" width="64.05" height="64.05" fill="#ffffff"/><rect x="320.25" y="128.1" width="32.03" height="32.03" fill="#faffec"/><path d="M 320.25 160.13 A 32.03 32.03 0 0 0 352.28 128.1 L 320.25 128.1L320.25 160.13" fill="#f4ffd3"/><rect x="352.28" y="128.1" width="32.03" height="32.03" fill="#4e4e4e"/><path d="M 352.28 128.1 A 32.03 32.03 0 0 0 384.30999999999995 160.13 L 384.30999999999995 128.1L352.28 128.1" fill="#4e4e4e"/><rect x="320.25" y="160.13" width="32.03" height="32.03" fill="#faffee"/><path d="M 320.25 160.13 A 32.03 32.03 0 0 1 352.28 192.16 L 320.25 192.16L320.25 160.13" fill="#f0f0f0"/><rect x="352.28" y="160.13" width="32.03" height="32.03" fill="#cccccc"/><path d="M 352.28 192.16 A 32.03 32.03 0 0 1  384.30999999999995 160.13 L 384.30999999999995 192.16L352.28 192.16" fill="#f8ffe5"/><rect x="384.29999999999995" y="128.1" width="64.05" height="64.05" fill="#ffffff"/><rect x="384.3" y="128.1" width="32.03" height="32.03" fill="#161616"/><circle cx="400.315" cy="144.115" r="16.015" fill="#e7fea3"/><rect x="416.32" y="128.1" width="32.03" height="32.03" fill="#efffc1"/><rect x="416.32" y="128.1" width="32.03" height="32.03" fill="#454545"/><rect x="384.3" y="160.13" width="32.03" height="32.03" fill="#eeffbe"/><circle cx="400.315" cy="176.14499999999998" r="16.015" fill="#fcfcfc"/><rect x="416.32" y="160.13" width="32.03" height="32.03" fill="#4e4e4e"/><rect x="416.32" y="160.13" width="32.03" height="32.03" fill="#3a3a3a"/><rect x="448.34999999999997" y="128.1" width="64.05" height="64.05" fill="#ffffff"/><rect x="448.35" y="128.1" width="32.03" height="32.03" fill="#e8fea6"/><polygon points="480.38,128.1 480.38,160.13 448.35,160.13" fill="#e1fe8a"/><rect x="480.37" y="128.1" width="32.03" height="32.03" fill="#2a2a2a"/><polygon points="480.37,128.1 512.4,160.13 480.37,160.13" fill="#c3c3c3"/><rect x="448.35" y="160.13" width="32.03" height="32.03" fill="#e5fe9a"/><polygon points="448.35,160.13 480.38,160.13 448.35,192.16" fill="#f4ffd6"/><rect x="480.37" y="160.13" width="32.03" height="32.03" fill="#e2fe8e"/><polygon points="480.37,160.13 512.4,160.13 512.4,192.16" fill="#fffffd"/><rect x="512.4" y="128.1" width="64.05" height="64.05" fill="#c3c3c3"/><polygon points="576.4499999999999,128.1 576.4499999999999,192.14999999999998 512.4,192.14999999999998" fill="#ecfeb6"/><rect x="576.4499999999999" y="128.1" width="64.05" height="64.05" fill="#ffffff"/><rect x="576.45" y="128.1" width="32.03" height="32.03" fill="#f5ffd8"/><path d="M 576.45 160.13 A 32.03 32.03 0 0 0 608.48 128.1 L 576.45 128.1L576.45 160.13" fill="#edfeba"/><rect x="608.47" y="128.1" width="32.03" height="32.03" fill="#e0fe87"/><path d="M 608.47 128.1 A 32.03 32.03 0 0 0 640.5 160.13 L 640.5 128.1L608.47 128.1" fill="#f2ffcd"/><rect x="576.45" y="160.13" width="32.03" height="32.03" fill="#eefebd"/><path d="M 576.45 160.13 A 32.03 32.03 0 0 1 608.48 192.16 L 576.45 192.16L576.45 160.13" fill="#191919"/><rect x="608.47" y="160.13" width="32.03" height="32.03" fill="#e2fe8d"/><path d="M 608.47 192.16 A 32.03 32.03 0 0 1  640.5 160.13 L 640.5 192.16L608.47 192.16" fill="#faffec"/><rect x="640.5" y="128.1" width="64.05" height="64.05" fill="#ffffff"/><rect x="640.5" y="128.1" width="32.03" height="32.03" fill="#e7fea3"/><path d="M 640.5 128.1 A 32.03 32.03 0 0 1 672.53 160.13 L 640.5 160.13L640.5 128.1" fill="#9d9d9d"/><rect x="672.53" y="128.1" width="32.03" height="32.03" fill="#f1ffc8"/><path d="M 672.53 160.13 A 32.03 32.03 0 0 1  704.56 128.1 L 704.56 160.13L672.53 160.13" fill="#fcfff5"/><rect x="640.5" y="160.13" width="32.03" height="32.03" fill="#f3ffcf"/><path d="M 640.5 192.16 A 32.03 32.03 0 0 0 672.53 160.13 L 640.5 160.13L640.5 192.16" fill="#f4ffd5"/><rect x="672.53" y="160.13" width="32.03" height="32.03" fill="#f0ffc5"/><path d="M 672.53 160.13 A 32.03 32.03 0 0 0 704.56 192.16 L 704.56 160.13L672.53 160.13" fill="#f2ffcc"/><rect x="704.55" y="128.1" width="64.05" height="64.05" fill="#b3b3b3"/><path d="M 704.55 128.1 A 64.05 64.05 0 0 1 768.5999999999999 192.14999999999998 L 704.55 192.14999999999998L704.55 128.1" fill="#f4ffd6"/><rect x="0" y="192.14999999999998" width="64.05" height="64.05" fill="#ffffff"/><rect x="0" y="192.15" width="32.03" height="32.03" fill="#737373"/><path d="M 0 192.15 A 32.03 32.03 0 0 0 32.03 224.18 L 32.03 192.15L0 192.15" fill="#f1ffcb"/><rect x="32.03" y="192.15" width="32.03" height="32.03" fill="#f1ffc8"/><path d="M 32.03 224.18 A 32.03 32.03 0 0 0 64.06 192.15 L 32.03 192.15L32.03 224.18" fill="#e7fea3"/><rect x="0" y="224.18" width="32.03" height="32.03" fill="#f6f6f6"/><path d="M 0 256.21000000000004 A 32.03 32.03 0 0 1  32.03 224.18 L 32.03 256.21000000000004L0 256.21000000000004" fill="#defe7f"/><rect x="32.03" y="224.18" width="32.03" height="32.03" fill="#f3ffd2"/><path d="M 32.03 224.18 A 32.03 32.03 0 0 1 64.06 256.21000000000004 L 32.03 256.21000000000004L32.03 224.18" fill="#f0ffc5"/><rect x="64.05" y="192.15" width="64.05" height="64.05" fill="#e1e1e1"/><rect x="64.05" y="192.15" width="64.05" height="64.05" fill="#cbcbcb"/><rect x="128.1" y="192.15" width="64.05" height="64.05" fill="#ecfeb4"/><path d="M 128.1 192.15 A 64.05 64.05 0 0 1  192.14999999999998 256.2 L 128.1 192.15 A 64.05 64.05 0 0 0 192.14999999999998 256.2" fill="#e2fe8e"/><rect x="192.15" y="192.15" width="64.05" height="64.05" fill="#bebebe"/><path d="M 192.15 192.15 A 64.05 64.05 0 0 1 256.2 256.2 L 192.15 256.2L192.15 192.15" fill="#f4ffd3"/><rect x="256.2" y="192.14999999999998" width="64.05" height="64.05" fill="#ffffff"/><rect x="256.2" y="192.15" width="32.03" height="32.03" fill="#e0fe87"/><polygon points="288.23,192.15 288.23,224.18 256.2,224.18" fill="#fefffd"/><rect x="288.22" y="192.15" width="32.03" height="32.03" fill="#e6fe9f"/><polygon points="288.22,192.15 320.25,192.15 288.22,224.18" fill="#898989"/><rect x="256.2" y="224.18" width="32.03" height="32.03" fill="#dffe84"/><polygon points="256.2,224.18 288.23,224.18 288.23,256.21000000000004" fill="#f6ffde"/><rect x="288.22" y="224.18" width="32.03" height="32.03" fill="#e8fea5"/><polygon points="288.22,224.18 320.25,256.21000000000004 288.22,256.21000000000004" fill="#f5ffd8"/><rect x="320.25" y="192.14999999999998" width="64.05" height="64.05" fill="#ffffff"/><rect x="320.25" y="192.15" width="32.03" height="32.03" fill="#e7e7e7"/><polygon points="352.28,192.15 352.28,224.18 320.25,224.18" fill="#f5ffda"/><rect x="352.28" y="192.15" width="32.03" height="32.03" fill="#9e9e9e"/><polygon points="352.28,192.15 384.30999999999995,224.18 352.28,224.18" fill="#e5fe9a"/><rect x="320.25" y="224.18" width="32.03" height="32.03" fill="#faffec"/><polygon points="320.25,224.18 352.28,224.18 352.28,256.21000000000004" fill="#e2e2e2"/><rect x="352.28" y="224.18" width="32.03" height="32.03" fill="#edfeb9"/><polygon points="352.28,224.18 384.30999999999995,224.18 352.28,256.21000000000004" fill="#e0e0e0"/><rect x="384.29999999999995" y="192.14999999999998" width="64.05" height="64.05" fill="#ffffff"/><rect x="384.3" y="192.15" width="32.03" height="32.03" fill="#f3ffcf"/><path d="M 384.3 192.15 A 32.03 32.03 0 0 1 416.33000000000004 224.18 L 384.3 224.18L384.3 192.15" fill="#959595"/><rect x="416.32" y="192.15" width="32.03" height="32.03" fill="#030303"/><path d="M 416.32 224.18 A 32.03 32.03 0 0 1  448.35 192.15 L 448.35 224.18L416.32 224.18" fill="#e9feac"/><rect x="384.3" y="224.18" width="32.03" height="32.03" fill="#a1a1a1"/><path d="M 384.3 256.21000000000004 A 32.03 32.03 0 0 0 416.33000000000004 224.18 L 384.3 224.18L384.3 256.21000000000004" fill="#1d1d1d"/><rect x="416.32" y="224.18" width="32.03" height="32.03" fill="#f1ffc9"/><path d="M 416.32 224.18 A 32.03 32.03 0 0 0 448.35 256.21000000000004 L 448.35 224.18L416.32 224.18" fill="#0e0e0e"/><rect x="448.34999999999997" y="192.14999999999998" width="64.05" height="64.05" fill="#ffffff"/><rect x="448.35" y="192.15" width="32.03" height="32.03" fill="#3f3f3f"/><path d="M 448.35 224.18 A 32.03 32.03 0 0 0 480.38 192.15 L 448.35 192.15L448.35 224.18" fill="#989898"/><rect x="480.37" y="192.15" width="32.03" height="32.03" fill="#dffe82"/><path d="M 480.37 192.15 A 32.03 32.03 0 0 0 512.4 224.18 L 512.4 192.15L480.37 192.15" fill="#f5ffd9"/><rect x="448.35" y="224.18" width="32.03" height="32.03" fill="#f8f8f8"/><path d="M 448.35 224.18 A 32.03 32.03 0 0 1 480.38 256.21000000000004 L 448.35 256.21000000000004L448.35 224.18" fill="#eefebd"/><rect x="480.37" y="224.18" width="32.03" height="32.03" fill="#e4fe95"/><path d="M 480.37 256.21000000000004 A 32.03 32.03 0 0 1  512.4 224.18 L 512.4 256.21000000000004L480.37 256.21000000000004" fill="#a6a6a6"/><rect x="512.4" y="192.14999999999998" width="64.05" height="64.05" fill="#ffffff"/><rect x="512.4" y="192.15" width="32.03" height="32.03" fill="#ececec"/><path d="M 512.4 224.18 A 32.03 32.03 0 0 1  544.43 192.15 L 544.43 224.18L512.4 224.18" fill="#ecfeb5"/><rect x="544.42" y="192.15" width="32.03" height="32.03" fill="#e9feaa"/><path d="M 544.42 192.15 A 32.03 32.03 0 0 1 576.4499999999999 224.18 L 544.42 224.18L544.42 192.15" fill="#020202"/><rect x="512.4" y="224.18" width="32.03" height="32.03" fill="#e4fe98"/><path d="M 512.4 224.18 A 32.03 32.03 0 0 0 544.43 256.21000000000004 L 544.43 224.18L512.4 224.18" fill="#d6d6d6"/><rect x="544.42" y="224.18" width="32.03" height="32.03" fill="#f0ffc6"/><path d="M 544.42 256.21000000000004 A 32.03 32.03 0 0 0 576.4499999999999 224.18 L 544.42 224.18L544.42 256.21000000000004" fill="#111111"/><rect x="576.4499999999999" y="192.14999999999998" width="64.05" height="64.05" fill="#ffffff"/><rect x="576.45" y="192.15" width="32.03" height="32.03" fill="#f1ffc8"/><path d="M 576.45 224.18 A 32.03 32.03 0 0 1 608.48 192.15 L 608.48 200.1575 A 24.0225 24.0225 0 0 0 584.4575000000001 224.18" fill="#b6b6b6"/><rect x="608.47" y="192.15" width="32.03" height="32.03" fill="#e9e9e9"/><path d="M 608.47 192.15 A 32.03 32.03 0 0 1 640.5 224.18 L 632.4925000000001 224.18 A 24.0225 24.0225 0 0 0 608.47 200.1575" fill="#e1fe8c"/><rect x="576.45" y="224.18" width="32.03" height="32.03" fill="#8e8e8e"/><path d="M 576.45 224.18 A 32.03 32.03 0 0 0 608.48 256.21000000000004 L 608.48 248.20250000000001 A 24.0225 24.0225 0 0 1 584.4575000000001 224.18" fill="#8e8e8e"/><rect x="608.47" y="224.18" width="32.03" height="32.03" fill="#e8fea5"/><path d="M 608.47 256.21000000000004 A 32.03 32.03 0 0 0 640.5 224.18 L 632.4925000000001 224.18 A 24.0225 24.0225 0 0 1 608.47 248.20250000000001" fill="#fbfff1"/><rect x="640.5" y="192.15" width="64.05" height="64.05" fill="#cbcbcb"/><polygon points="640.5,192.15 704.55,192.15 640.5,256.2" fill="#eefebc"/><rect x="704.55" y="192.15" width="64.05" height="64.05" fill="#e8fea6"/><path d="M 704.55 256.2 A 64.05 64.05 0 0 1  768.5999999999999 192.15 L 768.5999999999999 256.2L704.55 256.2" fill="#e7fea1"/><rect x="0" y="256.2" width="64.05" height="64.05" fill="#e5fe9b"/><polygon points="0,256.2 64.05,320.25 0,320.25" fill="#eeeeee"/><rect x="64.05" y="256.2" width="64.05" height="64.05" fill="#ffffff"/><rect x="64.05" y="256.2" width="32.03" height="32.03" fill="#f1ffc8"/><path d="M 64.05 288.23 A 32.03 32.03 0 0 0 96.08 256.2 L 64.05 256.2L64.05 288.23" fill="#f3ffcf"/><rect x="96.07" y="256.2" width="32.03" height="32.03" fill="#555555"/><path d="M 96.07 256.2 A 32.03 32.03 0 0 0 128.1 288.23 L 128.1 256.2L96.07 256.2" fill="#9d9d9d"/><rect x="64.05" y="288.22" width="32.03" height="32.03" fill="#dfdfdf"/><path d="M 64.05 288.22 A 32.03 32.03 0 0 1 96.08 320.25 L 64.05 320.25L64.05 288.22" fill="#373737"/><rect x="96.07" y="288.22" width="32.03" height="32.03" fill="#f1ffcb"/><path d="M 96.07 320.25 A 32.03 32.03 0 0 1  128.1 288.22 L 128.1 320.25L96.07 320.25" fill="#cfcfcf"/><rect x="128.1" y="256.2" width="64.05" height="64.05" fill="#ffffff"/><rect x="128.1" y="256.2" width="32.03" height="32.03" fill="#dffe84"/><path d="M 128.1 288.23 A 32.03 32.03 0 0 0 160.13 256.2 L 128.1 256.2L128.1 288.23" fill="#505050"/><rect x="160.13" y="256.2" width="32.03" height="32.03" fill="#e7e7e7"/><path d="M 160.13 256.2 A 32.03 32.03 0 0 0 192.16 288.23 L 192.16 256.2L160.13 256.2" fill="#ecfeb5"/><rect x="128.1" y="288.22" width="32.03" height="32.03" fill="#5e5e5e"/><path d="M 128.1 288.22 A 32.03 32.03 0 0 1 160.13 320.25 L 128.1 320.25L128.1 288.22" fill="#fafafa"/><rect x="160.13" y="288.22" width="32.03" height="32.03" fill="#8b8b8b"/><path d="M 160.13 320.25 A 32.03 32.03 0 0 1  192.16 288.22 L 192.16 320.25L160.13 320.25" fill="#ebfeb1"/><rect x="192.14999999999998" y="256.2" width="64.05" height="64.05" fill="#ffffff"/><rect x="192.15" y="256.2" width="32.03" height="32.03" fill="#cfcfcf"/><polygon points="224.18,256.2 224.18,288.23 192.15,288.23" fill="#ececec"/><rect x="224.18" y="256.2" width="32.03" height="32.03" fill="#9a9a9a"/><polygon points="224.18,256.2 256.21000000000004,256.2 224.18,288.23" fill="#e7fea1"/><rect x="192.15" y="288.22" width="32.03" height="32.03" fill="#bfbfbf"/><polygon points="192.15,288.22 224.18,288.22 224.18,320.25" fill="#939393"/><rect x="224.18" y="288.22" width="32.03" height="32.03" fill="#f5ffd9"/><polygon points="224.18,288.22 256.21000000000004,320.25 224.18,320.25" fill="#444444"/><rect x="256.2" y="256.2" width="64.05" height="64.05" fill="#ffffff"/><rect x="256.2" y="256.2" width="32.03" height="32.03" fill="#f2ffcc"/><path d="M 256.2 256.2 A 32.03 32.03 0 0 0 288.23 288.23 L 288.23 256.2L256.2 256.2" fill="#f5ffd7"/><rect x="288.22" y="256.2" width="32.03" height="32.03" fill="#1e1e1e"/><path d="M 288.22 288.23 A 32.03 32.03 0 0 0 320.25 256.2 L 288.22 256.2L288.22 288.23" fill="#3d3d3d"/><rect x="256.2" y="288.22" width="32.03" height="32.03" fill="#252525"/><path d="M 256.2 320.25 A 32.03 32.03 0 0 1  288.23 288.22 L 288.23 320.25L256.2 320.25" fill="#f8ffe4"/><rect x="288.22" y="288.22" width="32.03" height="32.03" fill="#e0fe86"/><path d="M 288.22 288.22 A 32.03 32.03 0 0 1 320.25 320.25 L 288.22 320.25L288.22 288.22" fill="#070707"/><rect x="320.25" y="256.2" width="64.05" height="64.05" fill="#ffffff"/><rect x="320.25" y="256.2" width="32.03" height="32.03" fill="#f1ffca"/><path d="M 320.25 288.23 A 32.03 32.03 0 0 1  352.28 256.2 L 352.28 288.23L320.25 288.23" fill="#e3fe94"/><rect x="352.28" y="256.2" width="32.03" height="32.03" fill="#e5e5e5"/><path d="M 352.28 256.2 A 32.03 32.03 0 0 1 384.30999999999995 288.23 L 352.28 288.23L352.28 256.2" fill="#e5fe9a"/><rect x="320.25" y="288.22" width="32.03" height="32.03" fill="#5a5a5a"/><path d="M 320.25 288.22 A 32.03 32.03 0 0 0 352.28 320.25 L 352.28 288.22L320.25 288.22" fill="#010101"/><rect x="352.28" y="288.22" width="32.03" height="32.03" fill="#c5c5c5"/><path d="M 352.28 320.25 A 32.03 32.03 0 0 0 384.30999999999995 288.22 L 352.28 288.22L352.28 320.25" fill="#e8fea7"/><rect x="384.29999999999995" y="256.2" width="64.05" height="64.05" fill="#ffffff"/><rect x="384.3" y="256.2" width="32.03" height="32.03" fill="#f7ffe1"/><path d="M 384.3 256.2 A 32.03 32.03 0 0 1 416.33000000000004 288.23 L 384.3 288.23L384.3 256.2" fill="#323232"/><rect x="416.32" y="256.2" width="32.03" height="32.03" fill="#efffc3"/><path d="M 416.32 288.23 A 32.03 32.03 0 0 1  448.35 256.2 L 448.35 288.23L416.32 288.23" fill="#f5ffd8"/><rect x="384.3" y="288.22" width="32.03" height="32.03" fill="#e4fe99"/><path d="M 384.3 320.25 A 32.03 32.03 0 0 0 416.33000000000004 288.22 L 384.3 288.22L384.3 320.25" fill="#999999"/><rect x="416.32" y="288.22" width="32.03" height="32.03" fill="#2f2f2f"/><path d="M 416.32 288.22 A 32.03 32.03 0 0 0 448.35 320.25 L 448.35 288.22L416.32 288.22" fill="#e0e0e0"/><rect x="448.35" y="256.2" width="64.05" height="64.05" fill="#5b5b5b"/><rect x="448.35" y="256.2" width="64.05" height="64.05" fill="#e9fea8"/><rect x="512.4" y="256.2" width="64.05" height="64.05" fill="#d0d0d0"/><polygon points="512.4,256.2 576.4499999999999,256.2 512.4,320.25" fill="#e5fe9a"/><rect x="576.45" y="256.2" width="64.05" height="64.05" fill="#1d1d1d"/><rect x="576.45" y="256.2" width="64.05" height="64.05" fill="#afafaf"/><rect x="640.5" y="256.2" width="64.05" height="64.05" fill="#ffffff"/><rect x="640.5" y="256.2" width="32.03" height="32.03" fill="#b0b0b0"/><path d="M 640.5 288.23 A 32.03 32.03 0 0 1  672.53 256.2 L 672.53 288.23L640.5 288.23" fill="#919191"/><rect x="672.53" y="256.2" width="32.03" height="32.03" fill="#f7ffdf"/><path d="M 672.53 256.2 A 32.03 32.03 0 0 1 704.56 288.23 L 672.53 288.23L672.53 256.2" fill="#636363"/><rect x="640.5" y="288.22" width="32.03" height="32.03" fill="#fbffee"/><path d="M 640.5 288.22 A 32.03 32.03 0 0 0 672.53 320.25 L 672.53 288.22L640.5 288.22" fill="#ecfeb4"/><rect x="672.53" y="288.22" width="32.03" height="32.03" fill="#a9a9a9"/><path d="M 672.53 320.25 A 32.03 32.03 0 0 0 704.56 288.22 L 672.53 288.22L672.53 320.25" fill="#ddfe7e"/><rect x="704.55" y="256.2" width="64.05" height="64.05" fill="#bbbbbb"/><polygon points="768.5999999999999,256.2 768.5999999999999,320.25 704.55,320.25" fill="#e5fe99"/><rect x="0" y="320.25" width="64.05" height="64.05" fill="#6e6e6e"/><rect x="0" y="320.25" width="64.05" height="64.05" fill="#ecfeb7"/><rect x="64.05" y="320.25" width="64.05" height="64.05" fill="#565656"/><polygon points="64.05,320.25 128.1,384.3 64.05,384.3" fill="#dffe82"/><rect x="128.1" y="320.25" width="64.05" height="64.05" fill="#fafafa"/><rect x="128.1" y="320.25" width="64.05" height="64.05" fill="#c6c6c6"/><rect x="192.15" y="320.25" width="64.05" height="64.05" fill="#9e9e9e"/><path d="M 192.15 320.25 A 64.05 64.05 0 0 1 256.2 384.3 L 192.15 384.3L192.15 320.25" fill="#363636"/><rect x="256.2" y="320.25" width="64.05" height="64.05" fill="#ffffff"/><rect x="256.2" y="320.25" width="32.03" height="32.03" fill="#fcfff2"/><path d="M 256.2 320.25 A 32.03 32.03 0 0 1 288.23 352.28 L 256.2 352.28L256.2 320.25" fill="#e6fe9e"/><rect x="288.22" y="320.25" width="32.03" height="32.03" fill="#e9feac"/><path d="M 288.22 352.28 A 32.03 32.03 0 0 1  320.25 320.25 L 320.25 352.28L288.22 352.28" fill="#e8fea8"/><rect x="256.2" y="352.28" width="32.03" height="32.03" fill="#ffffff"/><path d="M 256.2 384.30999999999995 A 32.03 32.03 0 0 0 288.23 352.28 L 256.2 352.28L256.2 384.30999999999995" fill="#262626"/><rect x="288.22" y="352.28" width="32.03" height="32.03" fill="#f8ffe5"/><path d="M 288.22 352.28 A 32.03 32.03 0 0 0 320.25 384.30999999999995 L 320.25 352.28L288.22 352.28" fill="#f1ffc9"/><rect x="320.25" y="320.25" width="64.05" height="64.05" fill="#808080"/><path d="M 320.25 320.25 A 64.05 64.05 0 0 0 384.3 384.3 L 384.3 320.25L320.25 320.25" fill="#666666"/><rect x="384.3" y="320.25" width="64.05" height="64.05" fill="#fcfff4"/><rect x="384.3" y="320.25" width="64.05" height="64.05" fill="#f4ffd5"/><rect x="448.35" y="320.25" width="64.05" height="64.05" fill="#ecfeb4"/><path d="M 448.35 384.3 A 64.05 64.05 0 0 1  512.4 320.25 L 512.4 384.3L448.35 384.3" fill="#e2e2e2"/><rect x="512.4" y="320.25" width="64.05" height="64.05" fill="#b0b0b0"/><path d="M 512.4 384.3 A 64.05 64.05 0 0 1  576.4499999999999 320.25 L 576.4499999999999 384.3L512.4 384.3" fill="#fcfff4"/><rect x="576.45" y="320.25" width="64.05" height="64.05" fill="#edfeb9"/><rect x="576.45" y="320.25" width="64.05" height="64.05" fill="#6a6a6a"/><rect x="640.5" y="320.25" width="64.05" height="64.05" fill="#f6ffdd"/><polygon points="640.5,320.25 704.55,384.3 640.5,384.3" fill="#cacaca"/><rect x="704.55" y="320.25" width="64.05" height="64.05" fill="#ffffff"/><rect x="704.55" y="320.25" width="32.03" height="32.03" fill="#e3fe92"/><path d="M 704.55 352.28 A 32.03 32.03 0 0 1  736.5799999999999 320.25 L 736.5799999999999 352.28L704.55 352.28" fill="#fcfcfc"/><rect x="736.58" y="320.25" width="32.03" height="32.03" fill="#dffe84"/><path d="M 736.58 320.25 A 32.03 32.03 0 0 1 768.61 352.28 L 736.58 352.28L736.58 320.25" fill="#f1ffca"/><rect x="704.55" y="352.28" width="32.03" height="32.03" fill="#c1c1c1"/><path d="M 704.55 352.28 A 32.03 32.03 0 0 0 736.5799999999999 384.30999999999995 L 736.5799999999999 352.28L704.55 352.28" fill="#ddfe7d"/><rect x="736.58" y="352.28" width="32.03" height="32.03" fill="#efffc0"/><path d="M 736.58 384.30999999999995 A 32.03 32.03 0 0 0 768.61 352.28 L 736.58 352.28L736.58 384.30999999999995" fill="#0a0a0a"/><rect x="0" y="384.29999999999995" width="64.05" height="64.05" fill="#ffffff"/><rect x="0" y="384.3" width="32.03" height="32.03" fill="#e6fe9e"/><polygon points="32.03,384.3 32.03,416.33000000000004 0,416.33000000000004" fill="#dffe85"/><rect x="32.03" y="384.3" width="32.03" height="32.03" fill="#dfdfdf"/><polygon points="32.03,384.3 64.06,416.33000000000004 32.03,416.33000000000004" fill="#686868"/><rect x="0" y="416.32" width="32.03" height="32.03" fill="#ecfeb4"/><polygon points="0,416.32 32.03,416.32 32.03,448.35" fill="#040404"/><rect x="32.03" y="416.32" width="32.03" height="32.03" fill="#ebfeb3"/><polygon points="32.03,416.32 64.06,416.32 32.03,448.35" fill="#0e0e0e"/><rect x="64.05" y="384.3" width="64.05" height="64.05" fill="#e0fe89"/><rect x="64.05" y="384.3" width="64.05" height="64.05" fill="#a4a4a4"/><rect x="128.1" y="384.3" width="64.05" height="64.05" fill="#fffffe"/><polygon points="128.1,384.3 192.14999999999998,384.3 192.14999999999998,448.35" fill="#efffc1"/><rect x="192.14999999999998" y="384.29999999999995" width="64.05" height="64.05" fill="#ffffff"/><rect x="192.15" y="384.3" width="32.03" height="32.03" fill="#f7ffdf"/><circle cx="208.16500000000002" cy="400.315" r="16.015" fill="#f0ffc4"/><rect x="224.18" y="384.3" width="32.03" height="32.03" fill="#020202"/><rect x="224.18" y="384.3" width="32.03" height="32.03" fill="#e3fe91"/><rect x="192.15" y="416.32" width="32.03" height="32.03" fill="#060606"/><circle cx="208.16500000000002" cy="432.335" r="16.015" fill="#e8fea7"/><rect x="224.18" y="416.32" width="32.03" height="32.03" fill="#f8ffe4"/><rect x="224.18" y="416.32" width="32.03" height="32.03" fill="#fefefe"/><rect x="256.2" y="384.29999999999995" width="64.05" height="64.05" fill="#ffffff"/><rect x="256.2" y="384.3" width="32.03" height="32.03" fill="#e7fea4"/><polygon points="288.23,384.3 288.23,416.33000000000004 256.2,416.33000000000004" fill="#fbffee"/><rect x="288.22" y="384.3" width="32.03" height="32.03" fill="#747474"/><polygon points="288.22,384.3 320.25,416.33000000000004 288.22,416.33000000000004" fill="#5a5a5a"/><rect x="256.2" y="416.32" width="32.03" height="32.03" fill="#7a7a7a"/><polygon points="256.2,416.32 288.23,416.32 256.2,448.35" fill="#c8c8c8"/><rect x="288.22" y="416.32" width="32.03" height="32.03" fill="#dcdcdc"/><polygon points="288.22,416.32 320.25,416.32 320.25,448.35" fill="#989898"/><rect x="320.25" y="384.29999999999995" width="64.05" height="64.05" fill="#ffffff"/><rect x="320.25" y="384.3" width="32.03" height="32.03" fill="#efffc1"/><path d="M 320.25 416.33000000000004 A 32.03 32.03 0 0 1  352.28 384.3 L 352.28 416.33000000000004L320.25 416.33000000000004" fill="#cbcbcb"/><rect x="352.28" y="384.3" width="32.03" height="32.03" fill="#f1ffc9"/><path d="M 352.28 384.3 A 32.03 32.03 0 0 1 384.30999999999995 416.33000000000004 L 352.28 416.33000000000004L352.28 384.3" fill="#808080"/><rect x="320.25" y="416.32" width="32.03" height="32.03" fill="#f1ffc9"/><path d="M 320.25 416.32 A 32.03 32.03 0 0 0 352.28 448.35 L 352.28 416.32L320.25 416.32" fill="#faffed"/><rect x="352.28" y="416.32" width="32.03" height="32.03" fill="#cdcdcd"/><path d="M 352.28 448.35 A 32.03 32.03 0 0 0 384.30999999999995 416.32 L 352.28 416.32L352.28 448.35" fill="#212121"/><rect x="384.29999999999995" y="384.29999999999995" width="64.05" height="64.05" fill="#ffffff"/><rect x="384.3" y="384.3" width="32.03" height="32.03" fill="#f2ffce"/><polygon points="416.33000000000004,384.3 416.33000000000004,416.33000000000004 384.3,416.33000000000004" fill="#edfebb"/><rect x="416.32" y="384.3" width="32.03" height="32.03" fill="#fcfff2"/><polygon points="416.32,384.3 448.35,416.33000000000004 416.32,416.33000000000004" fill="#828282"/><rect x="384.3" y="416.32" width="32.03" height="32.03" fill="#f3ffd2"/><polygon points="384.3,416.32 416.33000000000004,416.32 384.3,448.35" fill="#efffc1"/><rect x="416.32" y="416.32" width="32.03" height="32.03" fill="#585858"/><polygon points="416.32,416.32 448.35,416.32 448.35,448.35" fill="#dffe84"/><rect x="448.35" y="384.3" width="64.05" height="64.05" fill="#686868"/><rect x="448.35" y="384.3" width="64.05" height="64.05" fill="#eefebd"/><rect x="512.4" y="384.3" width="64.05" height="64.05" fill="#cfcfcf"/><rect x="512.4" y="384.3" width="64.05" height="64.05" fill="#8b8b8b"/><rect x="576.45" y="384.3" width="64.05" height="64.05" fill="#ababab"/><path d="M 576.45 448.35 A 64.05 64.05 0 0 0 640.5 384.3 L 576.45 384.3L576.45 448.35" fill="#494949"/><rect x="640.5" y="384.29999999999995" width="64.05" height="64.05" fill="#ffffff"/><rect x="640.5" y="384.3" width="32.03" height="32.03" fill="#9f9f9f"/><polygon points="672.53,384.3 672.53,416.33000000000004 640.5,416.33000000000004" fill="#f2ffce"/><rect x="672.53" y="384.3" width="32.03" height="32.03" fill="#fdfff6"/><polygon points="672.53,384.3 704.56,416.33000000000004 672.53,416.33000000000004" fill="#484848"/><rect x="640.5" y="416.32" width="32.03" height="32.03" fill="#bfbfbf"/><polygon points="640.5,416.32 672.53,416.32 672.53,448.35" fill="#e5fe9c"/><rect x="672.53" y="416.32" width="32.03" height="32.03" fill="#fcfff2"/><polygon points="672.53,416.32 704.56,416.32 672.53,448.35" fill="#b5b5b5"/><rect x="704.55" y="384.29999999999995" width="64.05" height="64.05" fill="#ffffff"/><rect x="704.55" y="384.3" width="32.03" height="32.03" fill="#111111"/><polygon points="736.5799999999999,384.3 736.5799999999999,416.33000000000004 704.55,416.33000000000004" fill="#313131"/><rect x="736.58" y="384.3" width="32.03" height="32.03" fill="#e9feaa"/><polygon points="736.58,384.3 768.61,416.33000000000004 736.58,416.33000000000004" fill="#e1e1e1"/><rect x="704.55" y="416.32" width="32.03" height="32.03" fill="#e7fea1"/><polygon points="704.55,416.32 736.5799999999999,416.32 736.5799999999999,448.35" fill="#535353"/><rect x="736.58" y="416.32" width="32.03" height="32.03" fill="#e8fea8"/><polygon points="736.58,416.32 768.61,416.32 736.58,448.35" fill="#efffc0"/><rect x="0" y="448.34999999999997" width="64.05" height="64.05" fill="#ffffff"/><rect x="0" y="448.35" width="32.03" height="32.03" fill="#f0f0f0"/><path d="M 0 448.35 A 32.03 32.03 0 0 0 32.03 480.38 L 32.03 448.35L0 448.35" fill="#505050"/><rect x="32.03" y="448.35" width="32.03" height="32.03" fill="#cacaca"/><path d="M 32.03 480.38 A 32.03 32.03 0 0 0 64.06 448.35 L 32.03 448.35L32.03 480.38" fill="#9d9d9d"/><rect x="0" y="480.37" width="32.03" height="32.03" fill="#efefef"/><path d="M 0 512.4 A 32.03 32.03 0 0 1  32.03 480.37 L 32.03 512.4L0 512.4" fill="#ecfeb6"/><rect x="32.03" y="480.37" width="32.03" height="32.03" fill="#c7c7c7"/><path d="M 32.03 480.37 A 32.03 32.03 0 0 1 64.06 512.4 L 32.03 512.4L32.03 480.37" fill="#e9e9e9"/><rect x="64.05" y="448.35" width="64.05" height="64.05" fill="#b2b2b2"/><polygon points="64.05,448.35 128.1,448.35 64.05,512.4" fill="#eefebc"/><rect x="128.1" y="448.35" width="64.05" height="64.05" fill="#e8fea6"/><path d="M 128.1 512.4 A 64.05 64.05 0 0 1  192.14999999999998 448.35 L 192.14999999999998 512.4L128.1 512.4" fill="#fbfff0"/><rect x="192.14999999999998" y="448.34999999999997" width="64.05" height="64.05" fill="#ffffff"/><rect x="192.15" y="448.35" width="32.03" height="32.03" fill="#d0d0d0"/><path d="M 192.15 480.38 A 32.03 32.03 0 0 0 224.18 448.35 L 192.15 448.35L192.15 480.38" fill="#333333"/><rect x="224.18" y="448.35" width="32.03" height="32.03" fill="#8b8b8b"/><path d="M 224.18 448.35 A 32.03 32.03 0 0 0 256.21000000000004 480.38 L 256.21000000000004 448.35L224.18 448.35" fill="#f4ffd3"/><rect x="192.15" y="480.37" width="32.03" height="32.03" fill="#505050"/><path d="M 192.15 480.37 A 32.03 32.03 0 0 1 224.18 512.4 L 192.15 512.4L192.15 480.37" fill="#f9ffe8"/><rect x="224.18" y="480.37" width="32.03" height="32.03" fill="#e7fea3"/><path d="M 224.18 512.4 A 32.03 32.03 0 0 1  256.21000000000004 480.37 L 256.21000000000004 512.4L224.18 512.4" fill="#e2fe91"/><rect x="256.2" y="448.35" width="64.05" height="64.05" fill="#101010"/><rect x="256.2" y="448.35" width="64.05" height="64.05" fill="#7f7f7f"/><rect x="320.25" y="448.35" width="64.05" height="64.05" fill="#909090"/><rect x="320.25" y="448.35" width="64.05" height="64.05" fill="#808080"/><rect x="384.29999999999995" y="448.34999999999997" width="64.05" height="64.05" fill="#ffffff"/><rect x="384.3" y="448.35" width="32.03" height="32.03" fill="#f8ffe4"/><polygon points="416.33000000000004,448.35 416.33000000000004,480.38 384.3,480.38" fill="#2e2e2e"/><rect x="416.32" y="448.35" width="32.03" height="32.03" fill="#5f5f5f"/><polygon points="416.32,448.35 448.35,480.38 416.32,480.38" fill="#343434"/><rect x="384.3" y="480.37" width="32.03" height="32.03" fill="#878787"/><polygon points="384.3,480.37 416.33000000000004,480.37 384.3,512.4" fill="#717171"/><rect x="416.32" y="480.37" width="32.03" height="32.03" fill="#e8fea8"/><polygon points="416.32,480.37 448.35,480.37 448.35,512.4" fill="#e9fea9"/><rect x="448.35" y="448.35" width="64.05" height="64.05" fill="#f7ffe0"/><polygon points="448.35,448.35 512.4,448.35 448.35,512.4" fill="#dffe82"/><rect x="512.4" y="448.34999999999997" width="64.05" height="64.05" fill="#ffffff"/><rect x="512.4" y="448.35" width="32.03" height="32.03" fill="#faffea"/><path d="M 512.4 480.38 A 32.03 32.03 0 0 1 544.43 448.35 L 544.43 456.3575 A 24.0225 24.0225 0 0 0 520.4075 480.38" fill="#eafeaf"/><rect x="544.42" y="448.35" width="32.03" height="32.03" fill="#e5fe9c"/><path d="M 544.42 448.35 A 32.03 32.03 0 0 1 576.4499999999999 480.38 L 568.4425 480.38 A 24.0225 24.0225 0 0 0 544.42 456.3575" fill="#2c2c2c"/><rect x="512.4" y="480.37" width="32.03" height="32.03" fill="#4e4e4e"/><path d="M 512.4 480.37 A 32.03 32.03 0 0 0 544.43 512.4 L 544.43 504.3925 A 24.0225 24.0225 0 0 1 520.4075 480.37" fill="#c6c6c6"/><rect x="544.42" y="480.37" width="32.03" height="32.03" fill="#212121"/><path d="M 544.42 512.4 A 32.03 32.03 0 0 0 576.4499999999999 480.37 L 568.4425 480.37 A 24.0225 24.0225 0 0 1 544.42 504.3925" fill="#f6ffdd"/><rect x="576.4499999999999" y="448.34999999999997" width="64.05" height="64.05" fill="#ffffff"/><rect x="576.45" y="448.35" width="32.03" height="32.03" fill="#565656"/><circle cx="592.465" cy="464.365" r="16.015" fill="#fefffa"/><rect x="608.47" y="448.35" width="32.03" height="32.03" fill="#efffc1"/><rect x="608.47" y="448.35" width="32.03" height="32.03" fill="#333333"/><rect x="576.45" y="480.37" width="32.03" height="32.03" fill="#f9ffe7"/><circle cx="592.465" cy="496.385" r="16.015" fill="#eeffbe"/><rect x="608.47" y="480.37" width="32.03" height="32.03" fill="#eafeaf"/><rect x="608.47" y="480.37" width="32.03" height="32.03" fill="#d5d5d5"/><rect x="640.5" y="448.34999999999997" width="64.05" height="64.05" fill="#ffffff"/><rect x="640.5" y="448.35" width="32.03" height="32.03" fill="#f3ffd2"/><path d="M 640.5 480.38 A 32.03 32.03 0 0 0 672.53 448.35 L 640.5 448.35L640.5 480.38" fill="#fcfff2"/><rect x="672.53" y="448.35" width="32.03" height="32.03" fill="#e5fe9b"/><path d="M 672.53 448.35 A 32.03 32.03 0 0 0 704.56 480.38 L 704.56 448.35L672.53 448.35" fill="#e2fe91"/><rect x="640.5" y="480.37" width="32.03" height="32.03" fill="#dcdcdc"/><path d="M 640.5 480.37 A 32.03 32.03 0 0 1 672.53 512.4 L 640.5 512.4L640.5 480.37" fill="#ecfeb6"/><rect x="672.53" y="480.37" width="32.03" height="32.03" fill="#eeffbe"/><path d="M 672.53 512.4 A 32.03 32.03 0 0 1  704.56 480.37 L 704.56 512.4L672.53 512.4" fill="#b3b3b3"/><rect x="704.55" y="448.34999999999997" width="64.05" height="64.05" fill="#ffffff"/><rect x="704.55" y="448.35" width="32.03" height="32.03" fill="#515151"/><path d="M 704.55 480.38 A 32.03 32.03 0 0 1 736.5799999999999 448.35 L 736.5799999999999 456.3575 A 24.0225 24.0225 0 0 0 712.5575 480.38" fill="#b8b8b8"/><rect x="736.58" y="448.35" width="32.03" height="32.03" fill="#bfbfbf"/><path d="M 736.58 448.35 A 32.03 32.03 0 0 1 768.61 480.38 L 760.6025000000001 480.38 A 24.0225 24.0225 0 0 0 736.58 456.3575" fill="#141414"/><rect x="704.55" y="480.37" width="32.03" height="32.03" fill="#e2fe8f"/><path d="M 704.55 480.37 A 32.03 32.03 0 0 0 736.5799999999999 512.4 L 736.5799999999999 504.3925 A 24.0225 24.0225 0 0 1 712.5575 480.37" fill="#a6a6a6"/><rect x="736.58" y="480.37" width="32.03" height="32.03" fill="#f9ffe7"/><path d="M 736.58 512.4 A 32.03 32.03 0 0 0 768.61 480.37 L 760.6025000000001 480.37 A 24.0225 24.0225 0 0 1 736.58 504.3925" fill="#8f8f8f"/></g></svg>