<?xml version="1.0" standalone="no"?><svg xmlns:xlink="http://www.w3.org/1999/xlink" xmlns="http://www.w3.org/2000/svg" viewBox="0 0 1000 500" preserveAspectRatio="xMaxYMax slice"><g transform="scale(0.9758001561280251)"><rect x="0" y="0" width="1024.8" height="512.4" fill="#c9dcd2"/><rect x="0" y="0" width="73.2" height="73.2" fill="#9eaba5"/><path d="M 0 73.2 A 73.2 73.2 0 0 1  73.2 0 L 0 73.2 A 73.2 73.2 0 0 0 73.2 0" fill="#daf98b"/><rect x="73.2" y="0" width="73.2" height="73.2" fill="#ddff7d"/><polygon points="73.2,0 146.4,0 73.2,73.2" fill="#4b4b4f"/><rect x="146.4" y="0" width="73.2" height="73.2" fill="#cfe6b9"/><path d="M 146.4 73.2 A 73.2 73.2 0 0 0 219.60000000000002 0 L 146.4 0L146.4 73.2" fill="#343037"/><rect x="219.6" y="0" width="73.2" height="73.2" fill="#434247"/><rect x="219.6" y="0" width="73.2" height="73.2" fill="#d3edaa"/><rect x="292.8" y="0" width="73.2" height="73.2" fill="#646869"/><path d="M 292.8 73.2 A 73.2 73.2 0 0 1  366 0 L 366 73.2L292.8 73.2" fill="#cde3c2"/><rect x="366" y="0" width="73.2" height="73.2" fill="#b2c2bb"/><path d="M 366 0 A 73.2 73.2 0 0 1 439.2 73.2 L 366 73.2L366 0" fill="#7e8684"/><rect x="439.2" y="0" width="73.2" height="73.2" fill="#d8f790"/><polygon points="439.2,0 512.4,0 439.2,73.2" fill="#343037"/><rect x="512.4" y="0" width="73.2" height="73.2" fill="#c9ddd0"/><polygon points="585.6,0 585.6,73.2 512.4,73.2" fill="#dafa89"/><rect x="585.6" y="0" width="73.2" height="73.2" fill="#28222a"/><polygon points="585.6,0 658.8000000000001,0 585.6,73.2" fill="#3a373d"/><rect x="658.8" y="0" width="73.2" height="73.2" fill="#cce2c4"/><polygon points="658.8,0 732,0 658.8,73.2" fill="#cce1c5"/><rect x="732" y="0" width="73.2" height="73.2" fill="#cbdfcb"/><path d="M 732 73.2 A 73.2 73.2 0 0 0 805.2 0 L 732 0L732 73.2" fill="#d3eea6"/><rect x="805.2" y="0" width="73.2" height="73.2" fill="#dafa89"/><rect x="805.2" y="0" width="73.2" height="73.2" fill="#d2ecaa"/><rect x="878.4" y="0" width="73.2" height="73.2" fill="#afbeb7"/><polygon points="878.4,0 951.6,73.2 878.4,73.2" fill="#d9f98c"/><rect x="951.6" y="0" width="73.2" height="73.2" fill="#444347"/><polygon points="951.6,0 1024.8,0 1024.8,73.2" fill="#d9f98c"/><rect x="0" y="73.2" width="73.2" height="73.2" fill="#413f44"/><polygon points="0,73.2 73.2,73.2 73.2,146.4" fill="#2f2a31"/><rect x="73.2" y="73.2" width="73.2" height="73.2" fill="#3d3b40"/><polygon points="73.2,73.2 146.4,73.2 146.4,146.4" fill="#767c7b"/><rect x="146.4" y="73.2" width="73.2" height="73.2" fill="#dbfc84"/><rect x="146.4" y="73.2" width="73.2" height="73.2" fill="#4b4b4f"/><rect x="219.6" y="73.2" width="73.2" height="73.2" fill="#cfe6b9"/><rect x="219.6" y="73.2" width="73.2" height="73.2" fill="#cbe0c9"/><rect x="292.8" y="73.2" width="73.2" height="73.2" fill="#4a494d"/><path d="M 292.8 146.4 A 73.2 73.2 0 0 1  366 73.2 L 292.8 146.4 A 73.2 73.2 0 0 0 366 73.2" fill="#363239"/><rect x="366" y="73.2" width="73.2" height="73.2" fill="#d4efa5"/><rect x="366" y="73.2" width="73.2" height="73.2" fill="#5c5f61"/><rect x="439.2" y="73.2" width="73.2" height="73.2" fill="#d8f791"/><path d="M 439.2 73.2 A 73.2 73.2 0 0 1 512.4 146.4 L 439.2 146.4L439.2 73.2" fill="#caddcf"/><rect x="512.4" y="73.2" width="73.2" height="73.2" fill="#dbfc85"/><path d="M 512.4 146.4 A 73.2 73.2 0 0 1  585.6 73.2 L 512.4 146.4 A 73.2 73.2 0 0 0 585.6 73.2" fill="#d1eab0"/><rect x="585.6" y="73.2" width="73.2" height="73.2" fill="#818987"/><path d="M 585.6 73.2 A 73.2 73.2 0 0 1 658.8000000000001 146.4 L 585.6 146.4L585.6 73.2" fill="#d7f596"/><rect x="658.8" y="73.2" width="73.2" height="73.2" fill="#c9ddd0"/><polygon points="658.8,73.2 732,73.2 658.8,146.4" fill="#cce0c7"/><rect x="732" y="73.2" width="73.2" height="73.2" fill="#d7f497"/><rect x="732" y="73.2" width="73.2" height="73.2" fill="#343037"/><rect x="805.2" y="73.2" width="73.2" height="73.2" fill="#d4efa3"/><rect x="805.2" y="73.2" width="73.2" height="73.2" fill="#9ba7a2"/><rect x="878.4" y="73.2" width="73.2" height="73.2" fill="#dbfc85"/><rect x="878.4" y="73.2" width="73.2" height="73.2" fill="#caddd0"/><rect x="951.6" y="73.2" width="73.2" height="73.2" fill="#d2ebad"/><path d="M 951.6 146.4 A 73.2 73.2 0 0 1  1024.8 73.2 L 1024.8 146.4L951.6 146.4" fill="#caddcf"/><rect x="0" y="146.4" width="73.2" height="73.2" fill="#cfe6b9"/><polygon points="0,146.4 73.2,146.4 0,219.60000000000002" fill="#d0e9b2"/><rect x="73.2" y="146.4" width="73.2" height="73.2" fill="#515154"/><rect x="73.2" y="146.4" width="73.2" height="73.2" fill="#d0e9b3"/><rect x="146.4" y="146.4" width="73.2" height="73.2" fill="#cfe7b7"/><path d="M 146.4 219.60000000000002 A 73.2 73.2 0 0 1  219.60000000000002 146.4 L 146.4 219.60000000000002 A 73.2 73.2 0 0 0 219.60000000000002 146.4" fill="#d9f88e"/><rect x="219.6" y="146.4" width="73.2" height="73.2" fill="#d8f694"/><path d="M 219.6 146.4 A 73.2 73.2 0 0 1  292.8 219.60000000000002 L 219.6 146.4 A 73.2 73.2 0 0 0 292.8 219.60000000000002" fill="#87908d"/><rect x="292.8" y="146.4" width="73.2" height="73.2" fill="#48474c"/><rect x="292.8" y="146.4" width="73.2" height="73.2" fill="#56585a"/><rect x="366" y="146.4" width="73.2" height="73.2" fill="#ddfe7f"/><path d="M 366 219.60000000000002 A 73.2 73.2 0 0 1  439.2 146.4 L 439.2 219.60000000000002L366 219.60000000000002" fill="#8b9491"/><rect x="439.2" y="146.4" width="73.2" height="73.2" fill="#d4efa4"/><path d="M 439.2 219.60000000000002 A 73.2 73.2 0 0 0 512.4 146.4 L 439.2 146.4L439.2 219.60000000000002" fill="#b5c5bd"/><rect x="512.4" y="146.4" width="73.2" height="73.2" fill="#d3eea6"/><polygon points="585.6,146.4 585.6,219.60000000000002 512.4,219.60000000000002" fill="#5e6163"/><rect x="585.6" y="146.4" width="73.2" height="73.2" fill="#a9b7b1"/><polygon points="585.6,146.4 658.8000000000001,219.60000000000002 585.6,219.60000000000002" fill="#555659"/><rect x="658.8" y="146.4" width="73.2" height="73.2" fill="#d4f0a2"/><path d="M 658.8 146.4 A 73.2 73.2 0 0 1  732 219.60000000000002 L 658.8 146.4 A 73.2 73.2 0 0 0 732 219.60000000000002" fill="#d4efa4"/><rect x="732" y="146.4" width="73.2" height="73.2" fill="#515255"/><rect x="732" y="146.4" width="73.2" height="73.2" fill="#616465"/><rect x="805.2" y="146.4" width="73.2" height="73.2" fill="#332f35"/><rect x="805.2" y="146.4" width="73.2" height="73.2" fill="#828a87"/><rect x="878.4" y="146.4" width="73.2" height="73.2" fill="#6d7272"/><polygon points="951.6,146.4 951.6,219.60000000000002 878.4,219.60000000000002" fill="#676b6c"/><rect x="951.6" y="146.4" width="73.2" height="73.2" fill="#dafa89"/><path d="M 951.6 146.4 A 73.2 73.2 0 0 1  1024.8 219.60000000000002 L 951.6 146.4 A 73.2 73.2 0 0 0 1024.8 219.60000000000002" fill="#cfe7b7"/><rect x="0" y="219.6" width="73.2" height="73.2" fill="#d3edaa"/><rect x="0" y="219.6" width="73.2" height="73.2" fill="#cfe7b7"/><rect x="73.2" y="219.6" width="73.2" height="73.2" fill="#626567"/><polygon points="73.2,219.6 146.4,292.8 73.2,292.8" fill="#c9dcd1"/><rect x="146.4" y="219.6" width="73.2" height="73.2" fill="#c0d1c8"/><polygon points="146.4,219.6 219.60000000000002,219.6 219.60000000000002,292.8" fill="#d2ebad"/><rect x="219.6" y="219.6" width="73.2" height="73.2" fill="#2a242c"/><path d="M 219.6 292.8 A 73.2 73.2 0 0 1  292.8 219.6 L 292.8 292.8L219.6 292.8" fill="#b4c4bc"/><rect x="292.8" y="219.6" width="73.2" height="73.2" fill="#d1eab1"/><path d="M 292.8 219.6 A 73.2 73.2 0 0 1  366 292.8 L 292.8 219.6 A 73.2 73.2 0 0 0 366 292.8" fill="#cce1c5"/><rect x="366" y="219.6" width="73.2" height="73.2" fill="#d6f399"/><rect x="366" y="219.6" width="73.2" height="73.2" fill="#d2ecac"/><rect x="439.2" y="219.6" width="73.2" height="73.2" fill="#d5f0a1"/><rect x="439.2" y="219.6" width="73.2" height="73.2" fill="#686c6d"/><rect x="512.4" y="219.6" width="73.2" height="73.2" fill="#a8b6b0"/><polygon points="512.4,219.6 585.6,219.6 585.6,292.8" fill="#d1ebae"/><rect x="585.6" y="219.6" width="73.2" height="73.2" fill="#cfe6ba"/><polygon points="658.8000000000001,219.6 658.8000000000001,292.8 585.6,292.8" fill="#d9f78f"/><rect x="658.8" y="219.6" width="73.2" height="73.2" fill="#767c7c"/><polygon points="658.8,219.6 732,219.6 732,292.8" fill="#56575a"/><rect x="732" y="219.6" width="73.2" height="73.2" fill="#caddd0"/><rect x="732" y="219.6" width="73.2" height="73.2" fill="#d7f497"/><rect x="805.2" y="219.6" width="73.2" height="73.2" fill="#cfe7b7"/><rect x="805.2" y="219.6" width="73.2" height="73.2" fill="#b9c9c1"/><rect x="878.4" y="219.6" width="73.2" height="73.2" fill="#3a373d"/><rect x="878.4" y="219.6" width="73.2" height="73.2" fill="#cfe6b9"/><rect x="951.6" y="219.6" width="73.2" height="73.2" fill="#cde4bf"/><rect x="951.6" y="219.6" width="73.2" height="73.2" fill="#d9f98c"/><rect x="0" y="292.8" width="73.2" height="73.2" fill="#d2ecac"/><path d="M 0 366 A 73.2 73.2 0 0 0 73.2 292.8 L 0 292.8L0 366" fill="#d4efa3"/><rect x="73.2" y="292.8" width="73.2" height="73.2" fill="#747a79"/><rect x="73.2" y="292.8" width="73.2" height="73.2" fill="#dafb88"/><rect x="146.4" y="292.8" width="73.2" height="73.2" fill="#949f9b"/><rect x="146.4" y="292.8" width="73.2" height="73.2" fill="#676b6c"/><rect x="219.6" y="292.8" width="73.2" height="73.2" fill="#d0e9b3"/><path d="M 219.6 366 A 73.2 73.2 0 0 0 292.8 292.8 L 219.6 292.8L219.6 366" fill="#7d8583"/><rect x="292.8" y="292.8" width="73.2" height="73.2" fill="#d8f693"/><path d="M 292.8 366 A 73.2 73.2 0 0 0 366 292.8 L 292.8 292.8L292.8 366" fill="#d1e9b2"/><rect x="366" y="292.8" width="73.2" height="73.2" fill="#d7f595"/><rect x="366" y="292.8" width="73.2" height="73.2" fill="#d9f88f"/><rect x="439.2" y="292.8" width="73.2" height="73.2" fill="#d2edaa"/><rect x="439.2" y="292.8" width="73.2" height="73.2" fill="#666a6b"/><rect x="512.4" y="292.8" width="73.2" height="73.2" fill="#a2b0aa"/><polygon points="512.4,292.8 585.6,292.8 512.4,366" fill="#636768"/><rect x="585.6" y="292.8" width="73.2" height="73.2" fill="#b4c4bc"/><polygon points="658.8000000000001,292.8 658.8000000000001,366 585.6,366" fill="#c6d9cf"/><rect x="658.8" y="292.8" width="73.2" height="73.2" fill="#747a79"/><polygon points="658.8,292.8 732,292.8 658.8,366" fill="#4d4d50"/><rect x="732" y="292.8" width="73.2" height="73.2" fill="#777d7c"/><path d="M 732 292.8 A 73.2 73.2 0 0 1  805.2 366 L 732 292.8 A 73.2 73.2 0 0 0 805.2 366" fill="#d1eab0"/><rect x="805.2" y="292.8" width="73.2" height="73.2" fill="#8b9491"/><rect x="805.2" y="292.8" width="73.2" height="73.2" fill="#cfe6ba"/><rect x="878.4" y="292.8" width="73.2" height="73.2" fill="#d3eda8"/><path d="M 878.4 366 A 73.2 73.2 0 0 1  951.6 292.8 L 878.4 366 A 73.2 73.2 0 0 0 951.6 292.8" fill="#d1e9b1"/><rect x="951.6" y="292.8" width="73.2" height="73.2" fill="#65686a"/><path d="M 951.6 366 A 73.2 73.2 0 0 1  1024.8 292.8 L 951.6 366 A 73.2 73.2 0 0 0 1024.8 292.8" fill="#5d6062"/><rect x="0" y="366" width="73.2" height="73.2" fill="#dcfe80"/><polygon points="0,366 73.2,439.2 0,439.2" fill="#2c262e"/><rect x="73.2" y="366" width="73.2" height="73.2" fill="#dbfc84"/><polygon points="146.4,366 146.4,439.2 73.2,439.2" fill="#b3c3bb"/><rect x="146.4" y="366" width="73.2" height="73.2" fill="#dbfb87"/><polygon points="219.60000000000002,366 219.60000000000002,439.2 146.4,439.2" fill="#353138"/><rect x="219.6" y="366" width="73.2" height="73.2" fill="#89928f"/><polygon points="292.8,366 292.8,439.2 219.6,439.2" fill="#d5f29e"/><rect x="292.8" y="366" width="73.2" height="73.2" fill="#cde3c2"/><rect x="292.8" y="366" width="73.2" height="73.2" fill="#cadecc"/><rect x="366" y="366" width="73.2" height="73.2" fill="#b6c6be"/><rect x="366" y="366" width="73.2" height="73.2" fill="#d3eda8"/><rect x="439.2" y="366" width="73.2" height="73.2" fill="#cee5bb"/><rect x="439.2" y="366" width="73.2" height="73.2" fill="#acbbb4"/><rect x="512.4" y="366" width="73.2" height="73.2" fill="#cbe0c7"/><polygon points="512.4,366 585.6,366 512.4,439.2" fill="#cce1c7"/><rect x="585.6" y="366" width="73.2" height="73.2" fill="#424045"/><path d="M 585.6 439.2 A 73.2 73.2 0 0 1  658.8000000000001 366 L 658.8000000000001 439.2L585.6 439.2" fill="#57595b"/><rect x="658.8" y="366" width="73.2" height="73.2" fill="#545558"/><path d="M 658.8 439.2 A 73.2 73.2 0 0 1  732 366 L 732 439.2L658.8 439.2" fill="#d1eab0"/><rect x="732" y="366" width="73.2" height="73.2" fill="#4f5053"/><polygon points="732,366 805.2,366 805.2,439.2" fill="#a3b1ab"/><rect x="805.2" y="366" width="73.2" height="73.2" fill="#29232b"/><polygon points="805.2,366 878.4000000000001,439.2 805.2,439.2" fill="#434146"/><rect x="878.4" y="366" width="73.2" height="73.2" fill="#d2ecaa"/><rect x="878.4" y="366" width="73.2" height="73.2" fill="#57595b"/><rect x="951.6" y="366" width="73.2" height="73.2" fill="#cee6bb"/><rect x="951.6" y="366" width="73.2" height="73.2" fill="#d5f1a0"/><rect x="0" y="439.2" width="73.2" height="73.2" fill="#cbe0c8"/><path d="M 0 439.2 A 73.2 73.2 0 0 1  73.2 512.4 L 0 439.2 A 73.2 73.2 0 0 0 73.2 512.4" fill="#d2ecab"/><rect x="73.2" y="439.2" width="73.2" height="73.2" fill="#868e8c"/><rect x="73.2" y="439.2" width="73.2" height="73.2" fill="#727877"/><rect x="146.4" y="439.2" width="73.2" height="73.2" fill="#a6b3ad"/><path d="M 146.4 512.4 A 73.2 73.2 0 0 1  219.60000000000002 439.2 L 146.4 512.4 A 73.2 73.2 0 0 0 219.60000000000002 439.2" fill="#dbfb87"/><rect x="219.6" y="439.2" width="73.2" height="73.2" fill="#d4f0a1"/><path d="M 219.6 439.2 A 73.2 73.2 0 0 1 292.8 512.4 L 219.6 512.4L219.6 439.2" fill="#5b5d5f"/><rect x="292.8" y="439.2" width="73.2" height="73.2" fill="#d5f29d"/><rect x="292.8" y="439.2" width="73.2" height="73.2" fill="#606364"/><rect x="366" y="439.2" width="73.2" height="73.2" fill="#2a252c"/><rect x="366" y="439.2" width="73.2" height="73.2" fill="#cee5bc"/><rect x="439.2" y="439.2" width="73.2" height="73.2" fill="#342f36"/><path d="M 439.2 439.2 A 73.2 73.2 0 0 0 512.4 512.4 L 512.4 439.2L439.2 439.2" fill="#4b4a4e"/><rect x="512.4" y="439.2" width="73.2" height="73.2" fill="#aab8b2"/><rect x="512.4" y="439.2" width="73.2" height="73.2" fill="#b3c2bb"/><rect x="585.6" y="439.2" width="73.2" height="73.2" fill="#c9ddd0"/><path d="M 585.6 439.2 A 73.2 73.2 0 0 0 658.8000000000001 512.4 L 658.8000000000001 439.2L585.6 439.2" fill="#2a242c"/><rect x="658.8" y="439.2" width="73.2" height="73.2" fill="#d6f39b"/><polygon points="658.8,439.2 732,512.4 658.8,512.4" fill="#d7f498"/><rect x="732" y="439.2" width="73.2" height="73.2" fill="#b1c0b9"/><path d="M 732 512.4 A 73.2 73.2 0 0 1  805.2 439.2 L 805.2 512.4L732 512.4" fill="#cce2c4"/><rect x="805.2" y="439.2" width="73.2" height="73.2" fill="#d4efa4"/><polygon points="805.2,439.2 878.4000000000001,512.4 805.2,512.4" fill="#7f8785"/><rect x="878.4" y="439.2" width="73.2" height="73.2" fill="#d1eab0"/><path d="M 878.4 439.2 A 73.2 73.2 0 0 0 951.6 512.4 L 951.6 439.2L878.4 439.2" fill="#cbdfca"/><rect x="951.6" y="439.2" width="73.2" height="73.2" fill="#8d9693"/><polygon points="951.6,439.2 1024.8,439.2 951.6,512.4" fill="#cfe6b9"/></g></svg>